<svg class="legacy-logo" xmlns="http://www.w3.org/2000/svg" xmlns:xlink="http://www.w3.org/1999/xlink" version="1.1" id="Layer_1" x="0px" y="0px" viewBox="0 0 308.93 99.63" xml:space="preserve"> <style type="text/css">.white-FFFFFF{fill:#FFF}.blue-0065bd{fill:#0065bd}</style> <rect class="white-FFFFFF" width="308.93" height="99.63"></rect> <g> <g> <path class="blue-0065bd" d="M214.58,33.36l-0.3-0.61V12.71c4.77,0,10,0,14.3,0L214.58,33.36z"></path> <rect x="259.2" y="12.71" class="blue-0065bd" width="27.38" height="75.07"></rect> <polygon class="blue-0065bd" points="165.21,38.6 165.21,12.71 181.87,12.71 "></polygon> <polygon class="blue-0065bd" points="230.94,56.63 230.94,87.78 211.47,87.78 "></polygon> <path class="blue-0065bd" d="M127.9,46.63v19.05h9.98c14.86,0,24.18-9.6,24.18-25.07c0-18.79-12.62-27.89-29.71-27.89H98.68v75.07h25.63 V33.47l5.93-0.02c3.52,0,6.37,2.95,6.37,6.59c0,3.64-2.85,6.59-6.37,6.59H127.9z"></path> <polygon class="blue-0065bd" points="187.44,56.55 187.44,87.78 167.96,87.78 "></polygon> <path class="blue-0065bd" d="M12.34,22.74c2.22-0.48,5.97-0.86,8.47-0.95c-3.91,0.56-8.47,3.7-8.47,3.7V22.74z"></path> <path class="blue-0065bd" d="M12.34,28.19c4.75-3.42,10.21-6.24,16.5-5.85c-4.05,2.74-6.87,7.12-9.32,10.95 c-2.43-0.39-4.93-0.53-7.18-0.51V28.19z"></path> <path class="blue-0065bd" d="M33.07,23.08c2.85,0.86,3.87,10.43,4.06,14.07c-5.22-1.73-10.22-2.9-15.29-3.62 C24.19,29.99,29.7,22.35,33.07,23.08z"></path> <path class="blue-0065bd" d="M39.42,38.3c-0.1-3.63-1.06-11.42-2.75-14.24c6.88,2.23,11.77,12.52,14.25,19.78l-0.68-0.41 C46.71,41.42,43.1,39.71,39.42,38.3z"></path> <path class="blue-0065bd" d="M53.55,45.31c3.95,2.52,9.25,6.69,12.34,9.66C61.98,44.21,51.39,31.15,44.6,27.35 C49.63,33.28,52.08,39.29,53.55,45.31"></path> <path class="blue-0065bd" d="M81.86,80.02c-2.89-19.34-12.46-36.56-27.1-46.99c6.82,7.18,11.69,15.92,14.5,25.32 C75.43,65.31,79.08,71.73,81.86,80.02"></path> <path class="blue-0065bd" d="M18.49,35.4c-2.87,4.82-3.92,7.48-6.15,12.57V34.92C13.71,34.95,15.96,35.06,18.49,35.4z"></path> <path class="blue-0065bd" d="M13.43,50.57c2.26-5.07,4.66-10.07,7.49-14.89c5.5,1.04,11.21,2.56,16.34,4.43 c-0.09,4.9-0.83,11.32-1.71,16.66C28.67,54.18,20.56,51.94,13.43,50.57z"></path> <path class="blue-0065bd" d="M51.73,46.39c1.31,5.58,2.09,10.88,2,17.02c-5.17-2.63-10.21-4.88-15.71-6.74c0.79-5.32,1.12-10.78,1.3-16.31 C43.57,42.04,47.72,44.08,51.73,46.39z"></path> <path class="blue-0065bd" d="M67.18,59.37c1.68,5.15,2.48,10.75,2.72,16.42c-4.04-3.62-8.88-7.29-13.78-10.12 c-0.03-5.94-0.7-11.66-1.71-17.08C59.01,51.7,63.4,55.39,67.18,59.37z"></path> <path class="blue-0065bd" d="M12.34,53.97v19.21c6.64,1.38,14.13,3.31,19.65,4.99l1.04-4.91c0.98-4.79,1.83-9.76,2.41-14.55 c-7.13-2.54-15.84-4.72-22.7-5.83L12.34,53.97z"></path> <path class="blue-0065bd" d="M37.57,59.45c4.87,1.83,11.91,4.66,16.28,7.43c-0.13,5.79-0.93,12.35-1.78,17.95 c-5.83-2.29-11.91-4.28-17.99-6.03C35.52,72.75,36.68,65.75,37.57,59.45"></path> <path class="blue-0065bd" d="M70.52,63.3c5.53,7.41,9.48,15.69,10.46,24.49H79.6c-1.77-3.28-4.59-6.67-7.43-9.92 C72.23,72.83,71.53,67.85,70.52,63.3z"></path> <path class="blue-0065bd" d="M70.06,78.95c0.03,3.13-0.32,6-0.74,8.84H59.11l-4.76-2.06c0.86-5.67,1.62-11.47,1.68-17.47 C60.68,71.1,65.78,74.74,70.06,78.95z"></path> <path class="blue-0065bd" d="M31.48,80.32c-0.56,2.6-1.14,4.84-1.83,7.46H12.34V75.39C17.84,76.58,23.03,77.79,31.48,80.32z"></path> <path class="blue-0065bd" d="M51.75,86.94c-0.02,0.26-0.08,0.55-0.13,0.85H32.09c0.59-2.33,1.05-4.4,1.58-6.81 C37.78,82.19,46.23,84.82,51.75,86.94z"></path> <path class="blue-0065bd" d="M77.1,87.78h-5.46c0.28-1.83,0.52-4.35,0.52-6.67C74.01,83.28,75.86,85.76,77.1,87.78z"></path> <path class="blue-0065bd" d="M34.44,20.68c29.9,7.43,50.32,35.61,50.02,66.65h3.5l0-74.38H12.34v6.92C16.71,19.21,27.56,18.97,34.44,20.68 z"></path> <path class="blue-0065bd" d="M297.02,77.28c2.92,0,5.24,2.37,5.24,5.34c0,3.01-2.32,5.36-5.27,5.36c-2.92,0-5.29-2.35-5.29-5.36 c0-2.97,2.37-5.34,5.29-5.34H297.02z M296.99,78.11c-2.35,0-4.27,2.01-4.27,4.51c0,2.54,1.92,4.53,4.29,4.53 c2.37,0.02,4.27-1.99,4.27-4.51c0-2.52-1.9-4.53-4.27-4.53H296.99z M296,85.72h-0.95v-5.95c0.5-0.07,0.97-0.14,1.69-0.14 c0.9,0,1.49,0.19,1.85,0.45c0.36,0.26,0.54,0.67,0.54,1.23c0,0.78-0.52,1.26-1.16,1.45v0.04c0.52,0.1,0.88,0.57,1,1.45 c0.14,0.92,0.29,1.28,0.38,1.47h-1c-0.14-0.19-0.29-0.73-0.41-1.52c-0.14-0.76-0.52-1.04-1.28-1.04H296V85.72z M296,82.42h0.69 c0.78,0,1.45-0.28,1.45-1.02c0-0.52-0.38-1.04-1.45-1.04c-0.31,0-0.52,0.02-0.69,0.05V82.42z"></path> </g> </g> </svg>