<svg width="64" height="879" viewBox="0 0 64 879" fill="none" xmlns="http://www.w3.org/2000/svg">
<path d="M31.6602 0.665039L31.6602 515.665" stroke="#27C100" stroke-width="5.9146"/>
<path d="M31.6602 571.665L31.6602 878.665" stroke="#0355D1" stroke-width="5.9146"/>
<path d="M31.8896 798.665H31.8901C35.5973 798.665 39.2683 799.394 42.6935 800.813C46.1186 802.231 49.2308 804.311 51.8522 806.932C54.4736 809.553 56.5529 812.666 57.9714 816.091C59.3898 819.516 60.1196 823.187 60.1191 826.894V826.894C60.1191 832.478 58.4635 837.936 55.3616 842.578C52.2597 847.22 47.8508 850.838 42.6926 852.975C37.5343 855.112 31.8583 855.671 26.3823 854.582C20.9064 853.492 15.8763 850.804 11.9284 846.856C7.98043 842.908 5.29183 837.878 4.20259 832.402C3.11335 826.926 3.67239 821.25 5.80901 816.092C7.94563 810.933 11.5639 806.524 16.2062 803.423C20.8485 800.321 26.3064 798.665 31.8896 798.665Z" fill="white" stroke="#27C100" stroke-width="6"/>
<path d="M31.8919 795.665C25.7152 795.665 19.6771 797.496 14.5411 800.927C9.40516 804.358 5.40205 809.236 3.03802 814.942C0.673989 820.648 0.0552203 826.928 1.25996 832.986C2.4647 839.044 5.43884 844.608 9.80626 848.976C14.1737 853.344 19.7382 856.319 25.7962 857.524C31.8542 858.729 38.1335 858.111 43.8401 855.747C49.5466 853.383 54.4241 849.381 57.8558 844.245C61.2874 839.109 63.1191 833.071 63.1191 826.894C63.1199 822.793 62.3129 818.732 60.7439 814.943C59.1749 811.154 56.8748 807.711 53.9749 804.811C51.0751 801.911 47.6323 799.61 43.8432 798.041C40.0542 796.472 35.993 795.664 31.8919 795.665V795.665ZM31.8919 852.077C26.9105 852.078 22.0409 850.601 17.8989 847.834C13.7569 845.067 10.5285 841.133 8.62197 836.531C6.71549 831.929 6.21655 826.865 7.18825 821.979C8.15995 817.094 10.5587 812.606 14.081 809.084C17.6033 805.561 22.0911 803.163 26.9768 802.191C31.8624 801.219 36.9265 801.718 41.5286 803.625C46.1307 805.531 50.0641 808.759 52.8313 812.901C55.5985 817.044 57.0752 821.913 57.0748 826.894C57.0754 830.202 56.4244 833.477 55.1591 836.532C53.8937 839.588 52.0388 842.364 49.7002 844.703C47.3616 847.041 44.5853 848.896 41.5297 850.162C38.4741 851.427 35.1991 852.078 31.8919 852.077V852.077ZM39.6744 838.931L28.9828 831.153C28.7918 831.012 28.6365 830.828 28.5293 830.616C28.4222 830.404 28.3661 830.17 28.3657 829.932V809.266C28.3663 808.865 28.5255 808.481 28.8084 808.198C29.0914 807.915 29.4751 807.755 29.8756 807.754H33.9059C34.3064 807.755 34.6901 807.915 34.973 808.198C35.256 808.481 35.4152 808.865 35.4158 809.266V827.107L43.8357 833.228C43.9966 833.345 44.1327 833.493 44.2363 833.663C44.3399 833.833 44.409 834.021 44.4394 834.218C44.4699 834.414 44.4612 834.615 44.4138 834.808C44.3665 835.002 44.2814 835.184 44.1635 835.344L41.7878 838.612C41.5495 838.935 41.1936 839.15 40.7974 839.211C40.4012 839.273 39.9968 839.175 39.6721 838.94L39.6744 838.931Z" fill="#0355D1"/>
<path d="M31.8896 657.665H31.8901C35.5973 657.665 39.2683 658.394 42.6935 659.813C46.1186 661.231 49.2308 663.311 51.8522 665.932C54.4736 668.553 56.5529 671.666 57.9714 675.091C59.3898 678.516 60.1196 682.187 60.1191 685.894V685.894C60.1191 691.478 58.4635 696.936 55.3616 701.578C52.2597 706.22 47.8508 709.838 42.6926 711.975C37.5343 714.112 31.8583 714.671 26.3823 713.582C20.9064 712.492 15.8763 709.804 11.9284 705.856C7.98043 701.908 5.29183 696.878 4.20259 691.402C3.11335 685.926 3.67239 680.25 5.80901 675.092C7.94563 669.933 11.5639 665.524 16.2062 662.423C20.8485 659.321 26.3064 657.665 31.8896 657.665Z" fill="white" stroke="#27C100" stroke-width="6"/>
<path d="M31.8919 654.665C25.7152 654.665 19.6771 656.496 14.5411 659.927C9.40516 663.358 5.40205 668.236 3.03802 673.942C0.673989 679.648 0.0552203 685.928 1.25996 691.986C2.4647 698.044 5.43884 703.608 9.80626 707.976C14.1737 712.344 19.7382 715.319 25.7962 716.524C31.8542 717.729 38.1335 717.111 43.8401 714.747C49.5466 712.383 54.4241 708.381 57.8558 703.245C61.2874 698.109 63.1191 692.071 63.1191 685.894C63.1199 681.793 62.3129 677.732 60.7439 673.943C59.1749 670.154 56.8748 666.711 53.9749 663.811C51.0751 660.911 47.6323 658.61 43.8432 657.041C40.0542 655.472 35.993 654.664 31.8919 654.665V654.665ZM31.8919 711.077C26.9105 711.078 22.0409 709.601 17.8989 706.834C13.7569 704.067 10.5285 700.133 8.62197 695.531C6.71549 690.929 6.21655 685.865 7.18825 680.979C8.15995 676.094 10.5587 671.606 14.081 668.084C17.6033 664.561 22.0911 662.163 26.9768 661.191C31.8624 660.219 36.9265 660.718 41.5286 662.625C46.1307 664.531 50.0641 667.759 52.8313 671.901C55.5985 676.044 57.0752 680.913 57.0748 685.894C57.0754 689.202 56.4244 692.477 55.1591 695.532C53.8937 698.588 52.0388 701.364 49.7002 703.703C47.3616 706.041 44.5853 707.896 41.5297 709.162C38.4741 710.427 35.1991 711.078 31.8919 711.077V711.077ZM39.6744 697.931L28.9828 690.153C28.7918 690.012 28.6365 689.828 28.5293 689.616C28.4222 689.404 28.3661 689.17 28.3657 688.932V668.266C28.3663 667.865 28.5255 667.481 28.8084 667.198C29.0914 666.915 29.4751 666.755 29.8756 666.754H33.9059C34.3064 666.755 34.6901 666.915 34.973 667.198C35.256 667.481 35.4152 667.865 35.4158 668.266V686.107L43.8357 692.228C43.9966 692.345 44.1327 692.493 44.2363 692.663C44.3399 692.833 44.409 693.021 44.4394 693.218C44.4699 693.414 44.4612 693.615 44.4138 693.808C44.3665 694.002 44.2814 694.184 44.1635 694.344L41.7878 697.612C41.5495 697.935 41.1936 698.15 40.7974 698.211C40.4012 698.273 39.9968 698.175 39.6721 697.94L39.6744 697.931Z" fill="#0355D1"/>
<path d="M31.8896 518.665H31.8901C35.5973 518.665 39.2683 519.394 42.6935 520.813C46.1186 522.231 49.2308 524.311 51.8522 526.932C54.4736 529.553 56.5529 532.666 57.9714 536.091C59.3898 539.516 60.1196 543.187 60.1191 546.894V546.894C60.1191 552.478 58.4635 557.936 55.3616 562.578C52.2597 567.22 47.8508 570.838 42.6926 572.975C37.5343 575.112 31.8583 575.671 26.3823 574.582C20.9064 573.492 15.8763 570.804 11.9284 566.856C7.98043 562.908 5.29183 557.878 4.20259 552.402C3.11335 546.926 3.67239 541.25 5.80901 536.092C7.94563 530.933 11.5639 526.524 16.2062 523.423C20.8485 520.321 26.3064 518.665 31.8896 518.665Z" fill="white" stroke="#0355D1" stroke-width="6"/>
<g clip-path="url(#clip0)">
<path d="M43.9102 527.665H19.4102C18.4436 527.665 17.6602 528.463 17.6602 529.446V530.634C17.6602 531.618 18.4436 532.415 19.4102 532.415C19.4102 539.166 23.1301 544.864 28.2216 546.665C23.1301 548.466 19.4102 554.164 19.4102 560.915C18.4436 560.915 17.6602 561.713 17.6602 562.696V563.884C17.6602 564.868 18.4436 565.665 19.4102 565.665H43.9102C44.8767 565.665 45.6602 564.868 45.6602 563.884V562.696C45.6602 561.713 44.8767 560.915 43.9102 560.915C43.9102 554.164 40.1902 548.466 35.0988 546.665C40.1902 544.864 43.9102 539.166 43.9102 532.415C44.8767 532.415 45.6602 531.618 45.6602 530.634V529.446C45.6602 528.463 44.8767 527.665 43.9102 527.665ZM38.4357 556.165H24.8847C26.1286 552.692 28.6834 550.228 31.6602 550.228C34.6367 550.228 37.1918 552.691 38.4357 556.165ZM38.4371 537.165H24.8846C24.3676 535.721 24.0768 534.103 24.0768 532.415H39.2435C39.2435 534.108 38.9528 535.724 38.4371 537.165V537.165Z" fill="#0355D1"/>
</g>
<path d="M31.8896 405.665H31.8901C35.5973 405.665 39.2683 406.394 42.6935 407.813C46.1186 409.231 49.2308 411.311 51.8522 413.932C54.4736 416.553 56.5529 419.666 57.9714 423.091C59.3898 426.516 60.1196 430.187 60.1191 433.894V433.894C60.1191 439.478 58.4635 444.936 55.3616 449.578C52.2597 454.22 47.8508 457.838 42.6926 459.975C37.5343 462.112 31.8583 462.671 26.3823 461.582C20.9064 460.492 15.8763 457.804 11.9284 453.856C7.98043 449.908 5.29183 444.878 4.20259 439.402C3.11335 433.926 3.67239 428.25 5.80901 423.092C7.94563 417.933 11.5639 413.524 16.2062 410.423C20.8485 407.321 26.3064 405.665 31.8896 405.665Z" fill="white" stroke="#27C100" stroke-width="6"/>
<path d="M25.8568 447.06L14.449 436.012C14.2856 435.854 14.156 435.666 14.0676 435.46C13.9791 435.253 13.9336 435.032 13.9336 434.808C13.9336 434.585 13.9791 434.363 14.0676 434.157C14.156 433.95 14.2856 433.762 14.449 433.604L16.9257 431.203C17.0888 431.045 17.2826 430.919 17.4958 430.833C17.7091 430.748 17.9377 430.704 18.1686 430.704C18.3994 430.704 18.628 430.748 18.8413 430.833C19.0546 430.919 19.2483 431.045 19.4114 431.203L27.1027 438.652L43.575 422.684C43.7381 422.526 43.9319 422.4 44.1451 422.314C44.3584 422.229 44.587 422.185 44.8179 422.185C45.0487 422.185 45.2774 422.229 45.4906 422.314C45.7039 422.4 45.8976 422.526 46.0607 422.684L48.5434 425.091C48.7068 425.249 48.8364 425.437 48.9249 425.643C49.0133 425.85 49.0588 426.071 49.0588 426.295C49.0588 426.519 49.0133 426.74 48.9249 426.946C48.8364 427.153 48.7068 427.341 48.5434 427.499L28.3335 447.06C28.1704 447.219 27.9767 447.344 27.7634 447.43C27.5502 447.515 27.3216 447.56 27.0907 447.56C26.8598 447.56 26.6312 447.515 26.4179 447.43C26.2047 447.344 26.011 447.219 25.8478 447.06H25.8568Z" fill="#27C100"/>
<path d="M31.8896 292.665H31.8901C35.5973 292.665 39.2683 293.394 42.6935 294.813C46.1186 296.231 49.2308 298.311 51.8522 300.932C54.4736 303.553 56.5529 306.666 57.9714 310.091C59.3898 313.516 60.1196 317.187 60.1191 320.894V320.894C60.1191 326.478 58.4635 331.936 55.3616 336.578C52.2597 341.22 47.8508 344.838 42.6926 346.975C37.5343 349.112 31.8583 349.671 26.3823 348.582C20.9064 347.492 15.8763 344.804 11.9284 340.856C7.98043 336.908 5.29183 331.878 4.20259 326.402C3.11335 320.926 3.67239 315.25 5.80901 310.092C7.94563 304.933 11.5639 300.524 16.2062 297.423C20.8485 294.321 26.3064 292.665 31.8896 292.665Z" fill="white" stroke="#27C100" stroke-width="6"/>
<path d="M25.8568 334.06L14.449 323.012C14.2856 322.854 14.156 322.666 14.0676 322.46C13.9791 322.253 13.9336 322.032 13.9336 321.808C13.9336 321.585 13.9791 321.363 14.0676 321.157C14.156 320.95 14.2856 320.762 14.449 320.604L16.9257 318.203C17.0888 318.045 17.2826 317.919 17.4958 317.833C17.7091 317.748 17.9377 317.704 18.1686 317.704C18.3994 317.704 18.628 317.748 18.8413 317.833C19.0546 317.919 19.2483 318.045 19.4114 318.203L27.1027 325.652L43.575 309.684C43.7381 309.526 43.9319 309.4 44.1451 309.314C44.3584 309.229 44.587 309.185 44.8179 309.185C45.0487 309.185 45.2774 309.229 45.4906 309.314C45.7039 309.4 45.8976 309.526 46.0607 309.684L48.5434 312.091C48.7068 312.249 48.8364 312.437 48.9249 312.643C49.0133 312.85 49.0588 313.071 49.0588 313.295C49.0588 313.519 49.0133 313.74 48.9249 313.946C48.8364 314.153 48.7068 314.341 48.5434 314.499L28.3335 334.06C28.1704 334.219 27.9767 334.344 27.7634 334.43C27.5502 334.515 27.3216 334.56 27.0907 334.56C26.8598 334.56 26.6312 334.515 26.4179 334.43C26.2047 334.344 26.011 334.219 25.8478 334.06H25.8568Z" fill="#27C100"/>
<path d="M31.8896 156.665H31.8901C35.5973 156.665 39.2683 157.394 42.6935 158.813C46.1186 160.231 49.2308 162.311 51.8522 164.932C54.4736 167.553 56.5529 170.666 57.9714 174.091C59.3898 177.516 60.1196 181.187 60.1191 184.894V184.894C60.1191 190.478 58.4635 195.936 55.3616 200.578C52.2597 205.22 47.8508 208.838 42.6926 210.975C37.5343 213.112 31.8583 213.671 26.3823 212.582C20.9064 211.492 15.8763 208.804 11.9284 204.856C7.98043 200.908 5.29183 195.878 4.20259 190.402C3.11335 184.926 3.67239 179.25 5.80901 174.092C7.94563 168.933 11.5639 164.524 16.2062 161.423C20.8485 158.321 26.3064 156.665 31.8896 156.665Z" fill="white" stroke="#27C100" stroke-width="6"/>
<path d="M25.8568 198.06L14.449 187.012C14.2856 186.854 14.156 186.666 14.0676 186.46C13.9791 186.253 13.9336 186.032 13.9336 185.808C13.9336 185.585 13.9791 185.363 14.0676 185.157C14.156 184.95 14.2856 184.762 14.449 184.604L16.9257 182.203C17.0888 182.045 17.2826 181.919 17.4958 181.833C17.7091 181.748 17.9377 181.704 18.1686 181.704C18.3994 181.704 18.628 181.748 18.8413 181.833C19.0546 181.919 19.2483 182.045 19.4114 182.203L27.1027 189.652L43.575 173.684C43.7381 173.526 43.9319 173.4 44.1451 173.314C44.3584 173.229 44.587 173.185 44.8179 173.185C45.0487 173.185 45.2774 173.229 45.4906 173.314C45.7039 173.4 45.8976 173.526 46.0607 173.684L48.5434 176.091C48.7068 176.249 48.8364 176.437 48.9249 176.643C49.0133 176.85 49.0588 177.071 49.0588 177.295C49.0588 177.519 49.0133 177.74 48.9249 177.946C48.8364 178.153 48.7068 178.341 48.5434 178.499L28.3335 198.06C28.1704 198.219 27.9767 198.344 27.7634 198.43C27.5502 198.515 27.3216 198.56 27.0907 198.56C26.8598 198.56 26.6312 198.515 26.4179 198.43C26.2047 198.344 26.011 198.219 25.8478 198.06H25.8568Z" fill="#27C100"/>
<path d="M31.8919 17.665C25.7152 17.6646 19.6771 19.4958 14.5411 22.9271C9.40516 26.3583 5.40205 31.2355 3.03802 36.9419C0.673989 42.6483 0.0552203 48.9276 1.25996 54.9857C2.4647 61.0437 5.43884 66.6085 9.80626 70.9762C14.1737 75.344 19.7382 78.3185 25.7962 79.5237C31.8542 80.7289 38.1335 80.1106 43.8401 77.7469C49.5466 75.3833 54.4241 71.3806 57.8558 66.2449C61.2874 61.1092 63.1191 55.0712 63.1191 48.8945C63.1199 44.7933 62.3129 40.7321 60.7439 36.943C59.1749 33.1538 56.8748 29.7108 53.9749 26.8107C51.0751 23.9107 47.6323 21.6103 43.8432 20.0411C40.0542 18.4718 35.993 17.6644 31.8919 17.665V17.665ZM31.8919 74.0774C26.9105 74.0779 22.0409 72.6011 17.8989 69.8339C13.7569 67.0667 10.5285 63.1333 8.62197 58.5312C6.71549 53.9291 6.21655 48.8651 7.18825 43.9794C8.15995 39.0937 10.5587 34.606 14.081 31.0836C17.6033 27.5613 22.0911 25.1626 26.9768 24.1909C31.8624 23.2192 36.9265 23.7181 41.5286 25.6246C46.1307 27.5311 50.0641 30.7595 52.8313 34.9015C55.5985 39.0435 57.0752 43.9131 57.0748 48.8945C57.0754 52.2017 56.4244 55.4767 55.1591 58.5323C53.8937 61.5879 52.0388 64.3643 49.7002 66.7028C47.3616 69.0414 44.5853 70.8963 41.5297 72.1617C38.4741 73.427 35.1991 74.078 31.8919 74.0774V74.0774ZM39.6744 60.931L28.9828 53.153C28.7918 53.0119 28.6365 52.828 28.5293 52.616C28.4222 52.404 28.3661 52.1699 28.3657 51.9324V31.2658C28.3663 30.8653 28.5255 30.4813 28.8084 30.1979C29.0914 29.9145 29.4751 29.7548 29.8756 29.7536H33.9059C34.3064 29.7548 34.6901 29.9145 34.973 30.1979C35.256 30.4813 35.4152 30.8653 35.4158 31.2658V49.107L43.8357 55.2281C43.9966 55.3451 44.1327 55.4928 44.2363 55.6627C44.3399 55.8325 44.409 56.0212 44.4394 56.2178C44.4699 56.4144 44.4612 56.6151 44.4138 56.8083C44.3665 57.0016 44.2814 57.1835 44.1635 57.3438L41.7878 60.6123C41.5495 60.9347 41.1936 61.15 40.7974 61.2114C40.4012 61.2728 39.9968 61.1753 39.6721 60.9401L39.6744 60.931Z" fill="#0355D1"/>
<path d="M31.8896 20.665H31.8901C35.5973 20.6645 39.2683 21.3943 42.6935 22.8128C46.1186 24.2312 49.2308 26.3105 51.8522 28.932C54.4736 31.5534 56.5529 34.6655 57.9714 38.0907C59.3898 41.5158 60.1196 45.1868 60.1191 48.8941V48.8945C60.1191 54.4778 58.4635 59.9356 55.3616 64.5779C52.2597 69.2203 47.8508 72.8385 42.6926 74.9751C37.5343 77.1117 31.8583 77.6708 26.3823 76.5815C20.9064 75.4923 15.8763 72.8037 11.9284 68.8557C7.98043 64.9078 5.29183 59.8778 4.20259 54.4018C3.11335 48.9258 3.67239 43.2498 5.80901 38.0916C7.94563 32.9333 11.5639 28.5245 16.2062 25.4226C20.8485 22.3207 26.3064 20.665 31.8896 20.665Z" fill="white" stroke="#27C100" stroke-width="6"/>
<path d="M25.8568 62.0406L14.449 50.992C14.2856 50.8341 14.156 50.6464 14.0676 50.4399C13.9791 50.2333 13.9336 50.0119 13.9336 49.7883C13.9336 49.5647 13.9791 49.3433 14.0676 49.1368C14.156 48.9302 14.2856 48.7426 14.449 48.5846L16.9257 46.183C17.0888 46.0248 17.2826 45.8992 17.4958 45.8136C17.7091 45.7279 17.9377 45.6838 18.1686 45.6838C18.3994 45.6838 18.628 45.7279 18.8413 45.8136C19.0546 45.8992 19.2483 46.0248 19.4114 46.183L27.1027 53.6321L43.575 37.664C43.7381 37.5057 43.9319 37.3802 44.1451 37.2945C44.3584 37.2089 44.587 37.1648 44.8179 37.1648C45.0487 37.1648 45.2774 37.2089 45.4906 37.2945C45.7039 37.3802 45.8976 37.5057 46.0607 37.664L48.5434 40.0714C48.7068 40.2294 48.8364 40.417 48.9249 40.6236C49.0133 40.8301 49.0588 41.0515 49.0588 41.2751C49.0588 41.4987 49.0133 41.7201 48.9249 41.9267C48.8364 42.1332 48.7068 42.3209 48.5434 42.4788L28.3335 62.0406C28.1704 62.1989 27.9767 62.3244 27.7634 62.4101C27.5502 62.4957 27.3216 62.5398 27.0907 62.5398C26.8598 62.5398 26.6312 62.4957 26.4179 62.4101C26.2047 62.3244 26.011 62.1989 25.8478 62.0406H25.8568Z" fill="#27C100"/>
<defs>
<clipPath id="clip0">
<rect x="17.6602" y="527.665" width="28" height="38" fill="white"/>
</clipPath>
</defs>
</svg>
