<svg width="63" height="878" viewBox="0 0 63 878" fill="none" xmlns="http://www.w3.org/2000/svg">
<path d="M31 0L31 672" stroke="#27C100" stroke-width="5.9146"/>
<path d="M31 716L31 878" stroke="#0355D1" stroke-width="5.9146"/>
<path d="M31.2295 797.665H31.2299C34.9371 797.665 38.6082 798.394 42.0333 799.813C45.4585 801.231 48.5706 803.311 51.192 805.932C53.8134 808.553 55.8927 811.666 57.3112 815.091C58.7297 818.516 59.4595 822.187 59.4589 825.894V825.894C59.4589 831.478 57.8033 836.936 54.7014 841.578C51.5995 846.22 47.1907 849.838 42.0324 851.975C36.8742 854.112 31.1982 854.671 25.7222 853.582C20.2462 852.492 15.2162 849.804 11.2682 845.856C7.32027 841.908 4.63168 836.878 3.54244 831.402C2.4532 825.926 3.01223 820.25 5.14885 815.092C7.28548 809.933 10.9037 805.524 15.546 802.423C20.1883 799.321 25.6462 797.665 31.2295 797.665Z" fill="white" stroke="#0355D1" stroke-width="6"/>
<path d="M43.25 807H18.75C17.7835 807 17 807.797 17 808.781V809.969C17 810.953 17.7835 811.75 18.75 811.75C18.75 818.501 22.4699 824.199 27.5614 826C22.4699 827.801 18.75 833.499 18.75 840.25C17.7835 840.25 17 841.047 17 842.031V843.219C17 844.203 17.7835 845 18.75 845H43.25C44.2165 845 45 844.203 45 843.219V842.031C45 841.047 44.2165 840.25 43.25 840.25C43.25 833.499 39.5301 827.801 34.4386 826C39.5301 824.199 43.25 818.501 43.25 811.75C44.2165 811.75 45 810.953 45 809.969V808.781C45 807.797 44.2165 807 43.25 807ZM37.7756 835.5H24.2246C25.4685 832.027 28.0232 829.562 31 829.562C33.9765 829.562 36.5316 832.026 37.7756 835.5ZM37.7769 816.5H24.2244C23.7075 815.056 23.4167 813.438 23.4167 811.75H38.5833C38.5833 813.443 38.2926 815.059 37.7769 816.5V816.5Z" fill="#0355D1"/>
<path d="M31.2295 656.665H31.2299C34.9371 656.665 38.6082 657.394 42.0333 658.813C45.4585 660.231 48.5706 662.311 51.192 664.932C53.8134 667.553 55.8927 670.666 57.3112 674.091C58.7297 677.516 59.4595 681.187 59.4589 684.894V684.894C59.4589 690.478 57.8033 695.936 54.7014 700.578C51.5995 705.22 47.1907 708.838 42.0324 710.975C36.8742 713.112 31.1982 713.671 25.7222 712.582C20.2462 711.492 15.2162 708.804 11.2682 704.856C7.32027 700.908 4.63168 695.878 3.54244 690.402C2.4532 684.926 3.01223 679.25 5.14885 674.092C7.28548 668.933 10.9037 664.524 15.546 661.423C20.1883 658.321 25.6462 656.665 31.2295 656.665Z" fill="white" stroke="#27C100" stroke-width="6"/>
<path d="M25.1967 698.06L13.7888 687.012C13.6255 686.854 13.4958 686.666 13.4074 686.46C13.319 686.253 13.2734 686.032 13.2734 685.808C13.2734 685.585 13.319 685.363 13.4074 685.157C13.4958 684.95 13.6255 684.762 13.7888 684.604L16.2655 682.203C16.4287 682.045 16.6224 681.919 16.8357 681.833C17.0489 681.748 17.2775 681.704 17.5084 681.704C17.7393 681.704 17.9679 681.748 18.1811 681.833C18.3944 681.919 18.5881 682.045 18.7513 682.203L26.4425 689.652L42.9149 673.684C43.078 673.526 43.2717 673.4 43.485 673.314C43.6982 673.229 43.9268 673.185 44.1577 673.185C44.3886 673.185 44.6172 673.229 44.8305 673.314C45.0437 673.4 45.2375 673.526 45.4006 673.684L47.8833 676.091C48.0467 676.249 48.1763 676.437 48.2647 676.643C48.3532 676.85 48.3987 677.071 48.3987 677.295C48.3987 677.519 48.3532 677.74 48.2647 677.946C48.1763 678.153 48.0467 678.341 47.8833 678.499L27.6734 698.06C27.5103 698.219 27.3165 698.344 27.1033 698.43C26.89 698.515 26.6614 698.56 26.4305 698.56C26.1997 698.56 25.9711 698.515 25.7578 698.43C25.5445 698.344 25.3508 698.219 25.1877 698.06H25.1967Z" fill="#27C100"/>
<path d="M31.2295 517.665H31.2299C34.9371 517.665 38.6082 518.394 42.0333 519.813C45.4585 521.231 48.5706 523.311 51.192 525.932C53.8134 528.553 55.8927 531.666 57.3112 535.091C58.7297 538.516 59.4595 542.187 59.4589 545.894V545.894C59.4589 551.478 57.8033 556.936 54.7014 561.578C51.5995 566.22 47.1907 569.838 42.0324 571.975C36.8742 574.112 31.1982 574.671 25.7222 573.582C20.2462 572.492 15.2162 569.804 11.2682 565.856C7.32027 561.908 4.63168 556.878 3.54244 551.402C2.4532 545.926 3.01223 540.25 5.14885 535.092C7.28548 529.933 10.9037 525.524 15.546 522.423C20.1883 519.321 25.6462 517.665 31.2295 517.665Z" fill="white" stroke="#27C100" stroke-width="6"/>
<path d="M25.1967 559.06L13.7888 548.012C13.6255 547.854 13.4958 547.666 13.4074 547.46C13.319 547.253 13.2734 547.032 13.2734 546.808C13.2734 546.585 13.319 546.363 13.4074 546.157C13.4958 545.95 13.6255 545.762 13.7888 545.604L16.2655 543.203C16.4287 543.045 16.6224 542.919 16.8357 542.833C17.0489 542.748 17.2775 542.704 17.5084 542.704C17.7393 542.704 17.9679 542.748 18.1811 542.833C18.3944 542.919 18.5881 543.045 18.7513 543.203L26.4425 550.652L42.9149 534.684C43.078 534.526 43.2717 534.4 43.485 534.314C43.6982 534.229 43.9268 534.185 44.1577 534.185C44.3886 534.185 44.6172 534.229 44.8305 534.314C45.0437 534.4 45.2375 534.526 45.4006 534.684L47.8833 537.091C48.0467 537.249 48.1763 537.437 48.2647 537.643C48.3532 537.85 48.3987 538.071 48.3987 538.295C48.3987 538.519 48.3532 538.74 48.2647 538.946C48.1763 539.153 48.0467 539.341 47.8833 539.499L27.6734 559.06C27.5103 559.219 27.3165 559.344 27.1033 559.43C26.89 559.515 26.6614 559.56 26.4305 559.56C26.1997 559.56 25.9711 559.515 25.7578 559.43C25.5445 559.344 25.3508 559.219 25.1877 559.06H25.1967Z" fill="#27C100"/>
<path d="M31.2295 404.665H31.2299C34.9371 404.665 38.6082 405.394 42.0333 406.813C45.4585 408.231 48.5706 410.311 51.192 412.932C53.8134 415.553 55.8927 418.666 57.3112 422.091C58.7297 425.516 59.4595 429.187 59.4589 432.894V432.894C59.4589 438.478 57.8033 443.936 54.7014 448.578C51.5995 453.22 47.1907 456.838 42.0324 458.975C36.8742 461.112 31.1982 461.671 25.7222 460.582C20.2462 459.492 15.2162 456.804 11.2682 452.856C7.32027 448.908 4.63168 443.878 3.54244 438.402C2.4532 432.926 3.01223 427.25 5.14885 422.092C7.28548 416.933 10.9037 412.524 15.546 409.423C20.1883 406.321 25.6462 404.665 31.2295 404.665Z" fill="white" stroke="#27C100" stroke-width="6"/>
<path d="M25.1967 446.06L13.7888 435.012C13.6255 434.854 13.4958 434.666 13.4074 434.46C13.319 434.253 13.2734 434.032 13.2734 433.808C13.2734 433.585 13.319 433.363 13.4074 433.157C13.4958 432.95 13.6255 432.762 13.7888 432.604L16.2655 430.203C16.4287 430.045 16.6224 429.919 16.8357 429.833C17.0489 429.748 17.2775 429.704 17.5084 429.704C17.7393 429.704 17.9679 429.748 18.1811 429.833C18.3944 429.919 18.5881 430.045 18.7513 430.203L26.4425 437.652L42.9149 421.684C43.078 421.526 43.2717 421.4 43.485 421.314C43.6982 421.229 43.9268 421.185 44.1577 421.185C44.3886 421.185 44.6172 421.229 44.8305 421.314C45.0437 421.4 45.2375 421.526 45.4006 421.684L47.8833 424.091C48.0467 424.249 48.1763 424.437 48.2647 424.643C48.3532 424.85 48.3987 425.071 48.3987 425.295C48.3987 425.519 48.3532 425.74 48.2647 425.946C48.1763 426.153 48.0467 426.341 47.8833 426.499L27.6734 446.06C27.5103 446.219 27.3165 446.344 27.1033 446.43C26.89 446.515 26.6614 446.56 26.4305 446.56C26.1997 446.56 25.9711 446.515 25.7578 446.43C25.5445 446.344 25.3508 446.219 25.1877 446.06H25.1967Z" fill="#27C100"/>
<path d="M31.2295 291.665H31.2299C34.9371 291.665 38.6082 292.394 42.0333 293.813C45.4585 295.231 48.5706 297.311 51.192 299.932C53.8134 302.553 55.8927 305.666 57.3112 309.091C58.7297 312.516 59.4595 316.187 59.4589 319.894V319.894C59.4589 325.478 57.8033 330.936 54.7014 335.578C51.5995 340.22 47.1907 343.838 42.0324 345.975C36.8742 348.112 31.1982 348.671 25.7222 347.582C20.2462 346.492 15.2162 343.804 11.2682 339.856C7.32027 335.908 4.63168 330.878 3.54244 325.402C2.4532 319.926 3.01223 314.25 5.14885 309.092C7.28548 303.933 10.9037 299.524 15.546 296.423C20.1883 293.321 25.6462 291.665 31.2295 291.665Z" fill="white" stroke="#27C100" stroke-width="6"/>
<path d="M25.1967 333.06L13.7888 322.012C13.6255 321.854 13.4958 321.666 13.4074 321.46C13.319 321.253 13.2734 321.032 13.2734 320.808C13.2734 320.585 13.319 320.363 13.4074 320.157C13.4958 319.95 13.6255 319.762 13.7888 319.604L16.2655 317.203C16.4287 317.045 16.6224 316.919 16.8357 316.833C17.0489 316.748 17.2775 316.704 17.5084 316.704C17.7393 316.704 17.9679 316.748 18.1811 316.833C18.3944 316.919 18.5881 317.045 18.7513 317.203L26.4425 324.652L42.9149 308.684C43.078 308.526 43.2717 308.4 43.485 308.314C43.6982 308.229 43.9268 308.185 44.1577 308.185C44.3886 308.185 44.6172 308.229 44.8305 308.314C45.0437 308.4 45.2375 308.526 45.4006 308.684L47.8833 311.091C48.0467 311.249 48.1763 311.437 48.2647 311.643C48.3532 311.85 48.3987 312.071 48.3987 312.295C48.3987 312.519 48.3532 312.74 48.2647 312.946C48.1763 313.153 48.0467 313.341 47.8833 313.499L27.6734 333.06C27.5103 333.219 27.3165 333.344 27.1033 333.43C26.89 333.515 26.6614 333.56 26.4305 333.56C26.1997 333.56 25.9711 333.515 25.7578 333.43C25.5445 333.344 25.3508 333.219 25.1877 333.06H25.1967Z" fill="#27C100"/>
<path d="M31.2295 155.665H31.2299C34.9371 155.665 38.6082 156.394 42.0333 157.813C45.4585 159.231 48.5706 161.311 51.192 163.932C53.8134 166.553 55.8927 169.666 57.3112 173.091C58.7297 176.516 59.4595 180.187 59.4589 183.894V183.894C59.4589 189.478 57.8033 194.936 54.7014 199.578C51.5995 204.22 47.1907 207.838 42.0324 209.975C36.8742 212.112 31.1982 212.671 25.7222 211.582C20.2462 210.492 15.2162 207.804 11.2682 203.856C7.32027 199.908 4.63168 194.878 3.54244 189.402C2.4532 183.926 3.01223 178.25 5.14885 173.092C7.28548 167.933 10.9037 163.524 15.546 160.423C20.1883 157.321 25.6462 155.665 31.2295 155.665Z" fill="white" stroke="#27C100" stroke-width="6"/>
<path d="M25.1967 197.06L13.7888 186.012C13.6255 185.854 13.4958 185.666 13.4074 185.46C13.319 185.253 13.2734 185.032 13.2734 184.808C13.2734 184.585 13.319 184.363 13.4074 184.157C13.4958 183.95 13.6255 183.762 13.7888 183.604L16.2655 181.203C16.4287 181.045 16.6224 180.919 16.8357 180.833C17.0489 180.748 17.2775 180.704 17.5084 180.704C17.7393 180.704 17.9679 180.748 18.1811 180.833C18.3944 180.919 18.5881 181.045 18.7513 181.203L26.4425 188.652L42.9149 172.684C43.078 172.526 43.2717 172.4 43.485 172.314C43.6982 172.229 43.9268 172.185 44.1577 172.185C44.3886 172.185 44.6172 172.229 44.8305 172.314C45.0437 172.4 45.2375 172.526 45.4006 172.684L47.8833 175.091C48.0467 175.249 48.1763 175.437 48.2647 175.643C48.3532 175.85 48.3987 176.071 48.3987 176.295C48.3987 176.519 48.3532 176.74 48.2647 176.946C48.1763 177.153 48.0467 177.341 47.8833 177.499L27.6734 197.06C27.5103 197.219 27.3165 197.344 27.1033 197.43C26.89 197.515 26.6614 197.56 26.4305 197.56C26.1997 197.56 25.9711 197.515 25.7578 197.43C25.5445 197.344 25.3508 197.219 25.1877 197.06H25.1967Z" fill="#27C100"/>
<path d="M31.2317 16.665C25.055 16.6646 19.0169 18.4958 13.881 21.9271C8.745 25.3583 4.74189 30.2355 2.37786 35.9419C0.0138323 41.6483 -0.604936 47.9276 0.599804 53.9857C1.80454 60.0437 4.77868 65.6085 9.14611 69.9762C13.5135 74.344 19.0781 77.3185 25.1361 78.5237C31.194 79.7289 37.4734 79.1106 43.1799 76.7469C48.8865 74.3833 53.764 70.3806 57.1956 65.2449C60.6273 60.1092 62.4589 54.0712 62.4589 47.8945C62.4598 43.7933 61.6527 39.7321 60.0837 35.943C58.5148 32.1538 56.2146 28.7108 53.3148 25.8107C50.4149 22.9107 46.9721 20.6103 43.1831 19.0411C39.394 17.4718 35.3329 16.6644 31.2317 16.665V16.665ZM31.2317 73.0774C26.2504 73.0779 21.3808 71.6011 17.2387 68.8339C13.0967 66.0667 9.8683 62.1333 7.96182 57.5312C6.05533 52.9291 5.55639 47.8651 6.52809 42.9794C7.4998 38.0937 9.8985 33.606 13.4208 30.0836C16.9432 26.5613 21.431 24.1626 26.3166 23.1909C31.2023 22.2192 36.2664 22.7181 40.8685 24.6246C45.4705 26.5311 49.4039 29.7595 52.1711 33.9015C54.9383 38.0435 56.4151 42.9131 56.4146 47.8945C56.4152 51.2017 55.7643 54.4767 54.4989 57.5323C53.2336 60.5879 51.3786 63.3643 49.0401 65.7028C46.7015 68.0414 43.9251 69.8963 40.8695 71.1617C37.8139 72.427 34.539 73.078 31.2317 73.0774V73.0774ZM39.0142 59.931L28.3226 52.153C28.1316 52.0119 27.9763 51.828 27.8692 51.616C27.762 51.404 27.706 51.1699 27.7055 50.9324V30.2658C27.7061 29.8653 27.8653 29.4813 28.1483 29.1979C28.4313 28.9145 28.815 28.7548 29.2155 28.7536H33.2457C33.6462 28.7548 34.0299 28.9145 34.3129 29.1979C34.5959 29.4813 34.7551 29.8653 34.7557 30.2658V48.107L43.1756 54.2281C43.3364 54.3451 43.4726 54.4928 43.5762 54.6627C43.6798 54.8325 43.7488 55.0212 43.7793 55.2178C43.8097 55.4144 43.801 55.6151 43.7537 55.8083C43.7063 56.0016 43.6212 56.1835 43.5033 56.3438L41.1277 59.6123C40.8894 59.9347 40.5334 60.15 40.1372 60.2114C39.741 60.2728 39.3366 60.1753 39.012 59.9401L39.0142 59.931Z" fill="#0355D1"/>
<path d="M31.2295 19.665H31.2299C34.9371 19.6645 38.6082 20.3943 42.0333 21.8128C45.4585 23.2312 48.5706 25.3105 51.192 27.932C53.8134 30.5534 55.8927 33.6655 57.3112 37.0907C58.7297 40.5158 59.4595 44.1868 59.4589 47.8941V47.8945C59.4589 53.4778 57.8033 58.9356 54.7014 63.5779C51.5995 68.2203 47.1907 71.8385 42.0324 73.9751C36.8742 76.1117 31.1982 76.6708 25.7222 75.5815C20.2462 74.4923 15.2162 71.8037 11.2682 67.8557C7.32027 63.9078 4.63168 58.8778 3.54244 53.4018C2.4532 47.9258 3.01223 42.2498 5.14885 37.0916C7.28548 31.9333 10.9037 27.5245 15.546 24.4226C20.1883 21.3207 25.6462 19.665 31.2295 19.665Z" fill="white" stroke="#27C100" stroke-width="6"/>
<path d="M25.1967 61.0406L13.7888 49.992C13.6255 49.8341 13.4958 49.6464 13.4074 49.4399C13.319 49.2333 13.2734 49.0119 13.2734 48.7883C13.2734 48.5647 13.319 48.3433 13.4074 48.1368C13.4958 47.9302 13.6255 47.7426 13.7888 47.5846L16.2655 45.183C16.4287 45.0248 16.6224 44.8992 16.8357 44.8136C17.0489 44.7279 17.2775 44.6838 17.5084 44.6838C17.7393 44.6838 17.9679 44.7279 18.1811 44.8136C18.3944 44.8992 18.5881 45.0248 18.7513 45.183L26.4425 52.6321L42.9149 36.664C43.078 36.5057 43.2717 36.3802 43.485 36.2945C43.6982 36.2089 43.9268 36.1648 44.1577 36.1648C44.3886 36.1648 44.6172 36.2089 44.8305 36.2945C45.0437 36.3802 45.2375 36.5057 45.4006 36.664L47.8833 39.0714C48.0467 39.2294 48.1763 39.417 48.2647 39.6236C48.3532 39.8301 48.3987 40.0515 48.3987 40.2751C48.3987 40.4987 48.3532 40.7201 48.2647 40.9267C48.1763 41.1332 48.0467 41.3209 47.8833 41.4788L27.6734 61.0406C27.5103 61.1989 27.3165 61.3244 27.1033 61.4101C26.89 61.4957 26.6614 61.5398 26.4305 61.5398C26.1997 61.5398 25.9711 61.4957 25.7578 61.4101C25.5445 61.3244 25.3508 61.1989 25.1877 61.0406H25.1967Z" fill="#27C100"/>
</svg>
