<svg width="63" height="1045" viewBox="0 0 63 1045" fill="none" xmlns="http://www.w3.org/2000/svg">
<path d="M31.3672 0.665039L31.3672 440.665" stroke="#27C100" stroke-width="5.9146"/>
<path d="M31.3672 466.665L31.3672 1044.67" stroke="#0355D1" stroke-width="5.9146"/>
<path d="M31.5967 963.665H31.5971C35.3043 963.665 38.9754 964.394 42.4005 965.813C45.8256 967.231 48.9378 969.311 51.5592 971.932C54.1806 974.553 56.2599 977.666 57.6784 981.091C59.0968 984.516 59.8266 988.187 59.8261 991.894V991.894C59.8261 997.478 58.1705 1002.94 55.0686 1007.58C51.9667 1012.22 47.5579 1015.84 42.3996 1017.98C37.2413 1020.11 31.5653 1020.67 26.0894 1019.58C20.6134 1018.49 15.5834 1015.8 11.6354 1011.86C7.68746 1007.91 4.99886 1002.88 3.90962 997.402C2.82038 991.926 3.37942 986.25 5.51604 981.092C7.65266 975.933 11.2709 971.524 15.9132 968.423C20.5555 965.321 26.0134 963.665 31.5967 963.665Z" fill="white" stroke="#27C100" stroke-width="6"/>
<path d="M31.5989 960.665C25.4222 960.665 19.3841 962.496 14.2481 965.927C9.11219 969.358 5.10908 974.236 2.74505 979.942C0.38102 985.648 -0.237748 991.928 0.966991 997.986C2.17173 1004.04 5.14587 1009.61 9.5133 1013.98C13.8807 1018.34 19.4453 1021.32 25.5033 1022.52C31.5612 1023.73 37.8405 1023.11 43.5471 1020.75C49.2537 1018.38 54.1312 1014.38 57.5628 1009.24C60.9945 1004.11 62.8261 998.071 62.8261 991.894C62.827 987.793 62.0199 983.732 60.4509 979.943C58.882 976.154 56.5818 972.711 53.682 969.811C50.7821 966.911 47.3393 964.61 43.5503 963.041C39.7612 961.472 35.7001 960.664 31.5989 960.665V960.665ZM31.5989 1017.08C26.6176 1017.08 21.7479 1015.6 17.6059 1012.83C13.4639 1010.07 10.2355 1006.13 8.32901 1001.53C6.42252 996.929 5.92358 991.865 6.89528 986.979C7.86698 982.094 10.2657 977.606 13.788 974.084C17.3104 970.561 21.7982 968.163 26.6838 967.191C31.5695 966.219 36.6336 966.718 41.2356 968.625C45.8377 970.531 49.7711 973.759 52.5383 977.901C55.3055 982.044 56.7823 986.913 56.7818 991.894C56.7824 995.202 56.1315 998.477 54.8661 1001.53C53.6008 1004.59 51.7458 1007.36 49.4072 1009.7C47.0687 1012.04 44.2923 1013.9 41.2367 1015.16C38.1811 1016.43 34.9061 1017.08 31.5989 1017.08V1017.08ZM39.3814 1003.93L28.6898 996.153C28.4988 996.012 28.3435 995.828 28.2363 995.616C28.1292 995.404 28.0731 995.17 28.0727 994.932V974.266C28.0733 973.865 28.2325 973.481 28.5155 973.198C28.7985 972.915 29.1822 972.755 29.5826 972.754H33.6129C34.0134 972.755 34.3971 972.915 34.6801 973.198C34.963 973.481 35.1222 973.865 35.1228 974.266V992.107L43.5428 998.228C43.7036 998.345 43.8398 998.493 43.9434 998.663C44.047 998.833 44.116 999.021 44.1464 999.218C44.1769 999.414 44.1682 999.615 44.1208 999.808C44.0735 1000 43.9884 1000.18 43.8705 1000.34L41.4949 1003.61C41.2566 1003.93 40.9006 1004.15 40.5044 1004.21C40.1082 1004.27 39.7038 1004.18 39.3791 1003.94L39.3814 1003.93Z" fill="#0355D1"/>
<path d="M31.5967 822.665H31.5971C35.3043 822.665 38.9754 823.394 42.4005 824.813C45.8256 826.231 48.9378 828.311 51.5592 830.932C54.1806 833.553 56.2599 836.666 57.6784 840.091C59.0968 843.516 59.8266 847.187 59.8261 850.894V850.894C59.8261 856.478 58.1705 861.936 55.0686 866.578C51.9667 871.22 47.5579 874.838 42.3996 876.975C37.2413 879.112 31.5653 879.671 26.0894 878.582C20.6134 877.492 15.5834 874.804 11.6354 870.856C7.68746 866.908 4.99886 861.878 3.90962 856.402C2.82038 850.926 3.37942 845.25 5.51604 840.092C7.65266 834.933 11.2709 830.524 15.9132 827.423C20.5555 824.321 26.0134 822.665 31.5967 822.665Z" fill="white" stroke="#27C100" stroke-width="6"/>
<path d="M31.5989 819.665C25.4222 819.665 19.3841 821.496 14.2481 824.927C9.11219 828.358 5.10908 833.236 2.74505 838.942C0.38102 844.648 -0.237748 850.928 0.966991 856.986C2.17173 863.044 5.14587 868.608 9.5133 872.976C13.8807 877.344 19.4453 880.319 25.5033 881.524C31.5612 882.729 37.8405 882.111 43.5471 879.747C49.2537 877.383 54.1312 873.381 57.5628 868.245C60.9945 863.109 62.8261 857.071 62.8261 850.894C62.827 846.793 62.0199 842.732 60.4509 838.943C58.882 835.154 56.5818 831.711 53.682 828.811C50.7821 825.911 47.3393 823.61 43.5503 822.041C39.7612 820.472 35.7001 819.664 31.5989 819.665V819.665ZM31.5989 876.077C26.6176 876.078 21.7479 874.601 17.6059 871.834C13.4639 869.067 10.2355 865.133 8.32901 860.531C6.42252 855.929 5.92358 850.865 6.89528 845.979C7.86698 841.094 10.2657 836.606 13.788 833.084C17.3104 829.561 21.7982 827.163 26.6838 826.191C31.5695 825.219 36.6336 825.718 41.2356 827.625C45.8377 829.531 49.7711 832.759 52.5383 836.901C55.3055 841.044 56.7823 845.913 56.7818 850.894C56.7824 854.202 56.1315 857.477 54.8661 860.532C53.6008 863.588 51.7458 866.364 49.4072 868.703C47.0687 871.041 44.2923 872.896 41.2367 874.162C38.1811 875.427 34.9061 876.078 31.5989 876.077V876.077ZM39.3814 862.931L28.6898 855.153C28.4988 855.012 28.3435 854.828 28.2363 854.616C28.1292 854.404 28.0731 854.17 28.0727 853.932V833.266C28.0733 832.865 28.2325 832.481 28.5155 832.198C28.7985 831.915 29.1822 831.755 29.5826 831.754H33.6129C34.0134 831.755 34.3971 831.915 34.6801 832.198C34.963 832.481 35.1222 832.865 35.1228 833.266V851.107L43.5428 857.228C43.7036 857.345 43.8398 857.493 43.9434 857.663C44.047 857.833 44.116 858.021 44.1464 858.218C44.1769 858.414 44.1682 858.615 44.1208 858.808C44.0735 859.002 43.9884 859.184 43.8705 859.344L41.4949 862.612C41.2566 862.935 40.9006 863.15 40.5044 863.211C40.1082 863.273 39.7038 863.175 39.3791 862.94L39.3814 862.931Z" fill="#0355D1"/>
<path d="M31.5967 684.665H31.5971C35.3043 684.665 38.9754 685.394 42.4005 686.813C45.8256 688.231 48.9378 690.311 51.5592 692.932C54.1806 695.553 56.2599 698.666 57.6784 702.091C59.0968 705.516 59.8266 709.187 59.8261 712.894V712.894C59.8261 718.478 58.1705 723.936 55.0686 728.578C51.9667 733.22 47.5579 736.838 42.3996 738.975C37.2413 741.112 31.5653 741.671 26.0894 740.582C20.6134 739.492 15.5834 736.804 11.6354 732.856C7.68746 728.908 4.99886 723.878 3.90962 718.402C2.82038 712.926 3.37942 707.25 5.51604 702.092C7.65266 696.933 11.2709 692.524 15.9132 689.423C20.5555 686.321 26.0134 684.665 31.5967 684.665Z" fill="white" stroke="#27C100" stroke-width="6"/>
<path d="M31.5989 681.665C25.4222 681.665 19.3841 683.496 14.2481 686.927C9.11219 690.358 5.10908 695.236 2.74505 700.942C0.38102 706.648 -0.237748 712.928 0.966991 718.986C2.17173 725.044 5.14587 730.608 9.5133 734.976C13.8807 739.344 19.4453 742.319 25.5033 743.524C31.5612 744.729 37.8405 744.111 43.5471 741.747C49.2537 739.383 54.1312 735.381 57.5628 730.245C60.9945 725.109 62.8261 719.071 62.8261 712.894C62.827 708.793 62.0199 704.732 60.4509 700.943C58.882 697.154 56.5818 693.711 53.682 690.811C50.7821 687.911 47.3393 685.61 43.5503 684.041C39.7612 682.472 35.7001 681.664 31.5989 681.665V681.665ZM31.5989 738.077C26.6176 738.078 21.7479 736.601 17.6059 733.834C13.4639 731.067 10.2355 727.133 8.32901 722.531C6.42252 717.929 5.92358 712.865 6.89528 707.979C7.86698 703.094 10.2657 698.606 13.788 695.084C17.3104 691.561 21.7982 689.163 26.6838 688.191C31.5695 687.219 36.6336 687.718 41.2356 689.625C45.8377 691.531 49.7711 694.759 52.5383 698.901C55.3055 703.044 56.7823 707.913 56.7818 712.894C56.7824 716.202 56.1315 719.477 54.8661 722.532C53.6008 725.588 51.7458 728.364 49.4072 730.703C47.0687 733.041 44.2923 734.896 41.2367 736.162C38.1811 737.427 34.9061 738.078 31.5989 738.077V738.077ZM39.3814 724.931L28.6898 717.153C28.4988 717.012 28.3435 716.828 28.2363 716.616C28.1292 716.404 28.0731 716.17 28.0727 715.932V695.266C28.0733 694.865 28.2325 694.481 28.5155 694.198C28.7985 693.915 29.1822 693.755 29.5826 693.754H33.6129C34.0134 693.755 34.3971 693.915 34.6801 694.198C34.963 694.481 35.1222 694.865 35.1228 695.266V713.107L43.5428 719.228C43.7036 719.345 43.8398 719.493 43.9434 719.663C44.047 719.833 44.116 720.021 44.1464 720.218C44.1769 720.414 44.1682 720.615 44.1208 720.808C44.0735 721.002 43.9884 721.184 43.8705 721.344L41.4949 724.612C41.2566 724.935 40.9006 725.15 40.5044 725.211C40.1082 725.273 39.7038 725.175 39.3791 724.94L39.3814 724.931Z" fill="#0355D1"/>
<path d="M31.5967 571.665H31.5971C35.3043 571.665 38.9754 572.394 42.4005 573.813C45.8256 575.231 48.9378 577.311 51.5592 579.932C54.1806 582.553 56.2599 585.666 57.6784 589.091C59.0968 592.516 59.8266 596.187 59.8261 599.894V599.894C59.8261 605.478 58.1705 610.936 55.0686 615.578C51.9667 620.22 47.5579 623.838 42.3996 625.975C37.2413 628.112 31.5653 628.671 26.0894 627.582C20.6134 626.492 15.5834 623.804 11.6354 619.856C7.68746 615.908 4.99886 610.878 3.90962 605.402C2.82038 599.926 3.37942 594.25 5.51604 589.092C7.65266 583.933 11.2709 579.524 15.9132 576.423C20.5555 573.321 26.0134 571.665 31.5967 571.665Z" fill="white" stroke="#0355D1" stroke-width="6"/>
<path d="M31.5989 568.665C25.4222 568.665 19.3841 570.496 14.2481 573.927C9.11219 577.358 5.10908 582.236 2.74505 587.942C0.38102 593.648 -0.237748 599.928 0.966991 605.986C2.17173 612.044 5.14587 617.608 9.5133 621.976C13.8807 626.344 19.4453 629.319 25.5033 630.524C31.5612 631.729 37.8405 631.111 43.5471 628.747C49.2537 626.383 54.1312 622.381 57.5628 617.245C60.9945 612.109 62.8261 606.071 62.8261 599.894C62.827 595.793 62.0199 591.732 60.4509 587.943C58.882 584.154 56.5818 580.711 53.682 577.811C50.7821 574.911 47.3393 572.61 43.5503 571.041C39.7612 569.472 35.7001 568.664 31.5989 568.665V568.665ZM31.5989 625.077C26.6176 625.078 21.7479 623.601 17.6059 620.834C13.4639 618.067 10.2355 614.133 8.32901 609.531C6.42252 604.929 5.92358 599.865 6.89528 594.979C7.86698 590.094 10.2657 585.606 13.788 582.084C17.3104 578.561 21.7982 576.163 26.6838 575.191C31.5695 574.219 36.6336 574.718 41.2356 576.625C45.8377 578.531 49.7711 581.759 52.5383 585.901C55.3055 590.044 56.7823 594.913 56.7818 599.894C56.7824 603.202 56.1315 606.477 54.8661 609.532C53.6008 612.588 51.7458 615.364 49.4072 617.703C47.0687 620.041 44.2923 621.896 41.2367 623.162C38.1811 624.427 34.9061 625.078 31.5989 625.077V625.077ZM39.3814 611.931L28.6898 604.153C28.4988 604.012 28.3435 603.828 28.2363 603.616C28.1292 603.404 28.0731 603.17 28.0727 602.932V582.266C28.0733 581.865 28.2325 581.481 28.5155 581.198C28.7985 580.915 29.1822 580.755 29.5826 580.754H33.6129C34.0134 580.755 34.3971 580.915 34.6801 581.198C34.963 581.481 35.1222 581.865 35.1228 582.266V600.107L43.5428 606.228C43.7036 606.345 43.8398 606.493 43.9434 606.663C44.047 606.833 44.116 607.021 44.1464 607.218C44.1769 607.414 44.1682 607.615 44.1208 607.808C44.0735 608.002 43.9884 608.184 43.8705 608.344L41.4949 611.612C41.2566 611.935 40.9006 612.15 40.5044 612.211C40.1082 612.273 39.7038 612.175 39.3791 611.94L39.3814 611.931Z" fill="#0355D1"/>
<path d="M31.5967 415.665H31.5971C35.3043 415.665 38.9754 416.394 42.4005 417.813C45.8256 419.231 48.9378 421.311 51.5592 423.932C54.1806 426.553 56.2599 429.666 57.6784 433.091C59.0968 436.516 59.8266 440.187 59.8261 443.894V443.894C59.8261 449.478 58.1705 454.936 55.0686 459.578C51.9667 464.22 47.5579 467.838 42.3996 469.975C37.2413 472.112 31.5653 472.671 26.0894 471.582C20.6134 470.492 15.5834 467.804 11.6354 463.856C7.68746 459.908 4.99886 454.878 3.90962 449.402C2.82038 443.926 3.37942 438.25 5.51604 433.092C7.65266 427.933 11.2709 423.524 15.9132 420.423C20.5555 417.321 26.0134 415.665 31.5967 415.665Z" fill="white" stroke="#0355D1" stroke-width="6"/>
<g clip-path="url(#clip0)">
<path d="M43.6172 424.665H19.1172C18.1507 424.665 17.3672 425.463 17.3672 426.446V427.634C17.3672 428.618 18.1507 429.415 19.1172 429.415C19.1172 436.166 22.8371 441.864 27.9286 443.665C22.8371 445.466 19.1172 451.164 19.1172 457.915C18.1507 457.915 17.3672 458.713 17.3672 459.696V460.884C17.3672 461.868 18.1507 462.665 19.1172 462.665H43.6172C44.5837 462.665 45.3672 461.868 45.3672 460.884V459.696C45.3672 458.713 44.5837 457.915 43.6172 457.915C43.6172 451.164 39.8973 445.466 34.8058 443.665C39.8973 441.864 43.6172 436.166 43.6172 429.415C44.5837 429.415 45.3672 428.618 45.3672 427.634V426.446C45.3672 425.463 44.5837 424.665 43.6172 424.665ZM38.1427 453.165H24.5918C25.8357 449.692 28.3904 447.228 31.3672 447.228C34.3437 447.228 36.8988 449.691 38.1427 453.165ZM38.1441 434.165H24.5916C24.0746 432.721 23.7839 431.103 23.7839 429.415H38.9505C38.9505 431.108 38.6598 432.724 38.1441 434.165V434.165Z" fill="#0355D1"/>
</g>
<path d="M31.5967 302.665H31.5971C35.3043 302.665 38.9754 303.394 42.4005 304.813C45.8256 306.231 48.9378 308.311 51.5592 310.932C54.1806 313.553 56.2599 316.666 57.6784 320.091C59.0968 323.516 59.8266 327.187 59.8261 330.894V330.894C59.8261 336.478 58.1705 341.936 55.0686 346.578C51.9667 351.22 47.5579 354.838 42.3996 356.975C37.2413 359.112 31.5653 359.671 26.0894 358.582C20.6134 357.492 15.5834 354.804 11.6354 350.856C7.68746 346.908 4.99886 341.878 3.90962 336.402C2.82038 330.926 3.37942 325.25 5.51604 320.092C7.65266 314.933 11.2709 310.524 15.9132 307.423C20.5555 304.321 26.0134 302.665 31.5967 302.665Z" fill="white" stroke="#27C100" stroke-width="6"/>
<path d="M25.5639 344.06L14.156 333.012C13.9926 332.854 13.863 332.666 13.7746 332.46C13.6861 332.253 13.6406 332.032 13.6406 331.808C13.6406 331.585 13.6861 331.363 13.7746 331.157C13.863 330.95 13.9926 330.762 14.156 330.604L16.6327 328.203C16.7959 328.045 16.9896 327.919 17.2028 327.833C17.4161 327.748 17.6447 327.704 17.8756 327.704C18.1065 327.704 18.3351 327.748 18.5483 327.833C18.7616 327.919 18.9553 328.045 19.1184 328.203L26.8097 335.652L43.282 319.684C43.4452 319.526 43.6389 319.4 43.8522 319.314C44.0654 319.229 44.294 319.185 44.5249 319.185C44.7558 319.185 44.9844 319.229 45.1976 319.314C45.4109 319.4 45.6046 319.526 45.7678 319.684L48.2505 322.091C48.4138 322.249 48.5435 322.437 48.6319 322.643C48.7204 322.85 48.7659 323.071 48.7659 323.295C48.7659 323.519 48.7204 323.74 48.6319 323.946C48.5435 324.153 48.4138 324.341 48.2505 324.499L28.0406 344.06C27.8775 344.219 27.6837 344.344 27.4705 344.43C27.2572 344.515 27.0286 344.56 26.7977 344.56C26.5668 344.56 26.3382 344.515 26.125 344.43C25.9117 344.344 25.718 344.219 25.5549 344.06H25.5639Z" fill="#27C100"/>
<path d="M31.5967 166.665H31.5971C35.3043 166.665 38.9754 167.394 42.4005 168.813C45.8256 170.231 48.9378 172.311 51.5592 174.932C54.1806 177.553 56.2599 180.666 57.6784 184.091C59.0968 187.516 59.8266 191.187 59.8261 194.894V194.894C59.8261 200.478 58.1705 205.936 55.0686 210.578C51.9667 215.22 47.5579 218.838 42.3996 220.975C37.2413 223.112 31.5653 223.671 26.0894 222.582C20.6134 221.492 15.5834 218.804 11.6354 214.856C7.68746 210.908 4.99886 205.878 3.90962 200.402C2.82038 194.926 3.37942 189.25 5.51604 184.092C7.65266 178.933 11.2709 174.524 15.9132 171.423C20.5555 168.321 26.0134 166.665 31.5967 166.665Z" fill="white" stroke="#27C100" stroke-width="6"/>
<path d="M25.5639 208.06L14.156 197.012C13.9926 196.854 13.863 196.666 13.7746 196.46C13.6861 196.253 13.6406 196.032 13.6406 195.808C13.6406 195.585 13.6861 195.363 13.7746 195.157C13.863 194.95 13.9926 194.762 14.156 194.604L16.6327 192.203C16.7959 192.045 16.9896 191.919 17.2028 191.833C17.4161 191.748 17.6447 191.704 17.8756 191.704C18.1065 191.704 18.3351 191.748 18.5483 191.833C18.7616 191.919 18.9553 192.045 19.1184 192.203L26.8097 199.652L43.282 183.684C43.4452 183.526 43.6389 183.4 43.8522 183.314C44.0654 183.229 44.294 183.185 44.5249 183.185C44.7558 183.185 44.9844 183.229 45.1976 183.314C45.4109 183.4 45.6046 183.526 45.7678 183.684L48.2505 186.091C48.4138 186.249 48.5435 186.437 48.6319 186.643C48.7204 186.85 48.7659 187.071 48.7659 187.295C48.7659 187.519 48.7204 187.74 48.6319 187.946C48.5435 188.153 48.4138 188.341 48.2505 188.499L28.0406 208.06C27.8775 208.219 27.6837 208.344 27.4705 208.43C27.2572 208.515 27.0286 208.56 26.7977 208.56C26.5668 208.56 26.3382 208.515 26.125 208.43C25.9117 208.344 25.718 208.219 25.5549 208.06H25.5639Z" fill="#27C100"/>
<path d="M31.5989 27.665C25.4222 27.6646 19.3841 29.4958 14.2481 32.9271C9.11219 36.3583 5.10908 41.2355 2.74505 46.9419C0.38102 52.6483 -0.237748 58.9276 0.966991 64.9857C2.17173 71.0437 5.14587 76.6085 9.5133 80.9762C13.8807 85.344 19.4453 88.3185 25.5033 89.5237C31.5612 90.7289 37.8405 90.1106 43.5471 87.7469C49.2537 85.3833 54.1312 81.3806 57.5628 76.2449C60.9945 71.1092 62.8261 65.0712 62.8261 58.8945C62.827 54.7933 62.0199 50.7321 60.4509 46.943C58.882 43.1538 56.5818 39.7108 53.682 36.8107C50.7821 33.9107 47.3393 31.6103 43.5503 30.0411C39.7612 28.4718 35.7001 27.6644 31.5989 27.665V27.665ZM31.5989 84.0774C26.6176 84.0779 21.7479 82.6011 17.6059 79.8339C13.4639 77.0667 10.2355 73.1333 8.32901 68.5312C6.42252 63.9291 5.92358 58.8651 6.89528 53.9794C7.86698 49.0937 10.2657 44.606 13.788 41.0836C17.3104 37.5613 21.7982 35.1626 26.6838 34.1909C31.5695 33.2192 36.6336 33.7181 41.2356 35.6246C45.8377 37.5311 49.7711 40.7595 52.5383 44.9015C55.3055 49.0435 56.7823 53.9131 56.7818 58.8945C56.7824 62.2017 56.1315 65.4767 54.8661 68.5323C53.6008 71.5879 51.7458 74.3643 49.4072 76.7028C47.0687 79.0414 44.2923 80.8963 41.2367 82.1617C38.1811 83.427 34.9061 84.078 31.5989 84.0774V84.0774ZM39.3814 70.931L28.6898 63.153C28.4988 63.0119 28.3435 62.828 28.2363 62.616C28.1292 62.404 28.0731 62.1699 28.0727 61.9324V41.2658C28.0733 40.8653 28.2325 40.4813 28.5155 40.1979C28.7985 39.9145 29.1822 39.7548 29.5826 39.7536H33.6129C34.0134 39.7548 34.3971 39.9145 34.6801 40.1979C34.963 40.4813 35.1222 40.8653 35.1228 41.2658V59.107L43.5428 65.2281C43.7036 65.3451 43.8398 65.4928 43.9434 65.6627C44.047 65.8325 44.116 66.0212 44.1464 66.2178C44.1769 66.4144 44.1682 66.6151 44.1208 66.8083C44.0735 67.0016 43.9884 67.1835 43.8705 67.3438L41.4949 70.6123C41.2566 70.9347 40.9006 71.15 40.5044 71.2114C40.1082 71.2728 39.7038 71.1753 39.3791 70.9401L39.3814 70.931Z" fill="#0355D1"/>
<path d="M31.5967 30.665H31.5971C35.3043 30.6645 38.9754 31.3943 42.4005 32.8128C45.8256 34.2312 48.9378 36.3105 51.5592 38.932C54.1806 41.5534 56.2599 44.6655 57.6784 48.0907C59.0968 51.5158 59.8266 55.1868 59.8261 58.8941V58.8945C59.8261 64.4778 58.1705 69.9356 55.0686 74.5779C51.9667 79.2203 47.5579 82.8385 42.3996 84.9751C37.2413 87.1117 31.5653 87.6708 26.0894 86.5815C20.6134 85.4923 15.5834 82.8037 11.6354 78.8557C7.68746 74.9078 4.99886 69.8778 3.90962 64.4018C2.82038 58.9258 3.37942 53.2498 5.51604 48.0916C7.65266 42.9333 11.2709 38.5245 15.9132 35.4226C20.5555 32.3207 26.0134 30.665 31.5967 30.665Z" fill="white" stroke="#27C100" stroke-width="6"/>
<path d="M25.5639 72.0406L14.156 60.992C13.9926 60.8341 13.863 60.6464 13.7746 60.4399C13.6861 60.2333 13.6406 60.0119 13.6406 59.7883C13.6406 59.5647 13.6861 59.3433 13.7746 59.1368C13.863 58.9302 13.9926 58.7426 14.156 58.5846L16.6327 56.183C16.7959 56.0248 16.9896 55.8992 17.2028 55.8136C17.4161 55.7279 17.6447 55.6838 17.8756 55.6838C18.1065 55.6838 18.3351 55.7279 18.5483 55.8136C18.7616 55.8992 18.9553 56.0248 19.1184 56.183L26.8097 63.6321L43.282 47.664C43.4452 47.5057 43.6389 47.3802 43.8522 47.2945C44.0654 47.2089 44.294 47.1648 44.5249 47.1648C44.7558 47.1648 44.9844 47.2089 45.1976 47.2945C45.4109 47.3802 45.6046 47.5057 45.7678 47.664L48.2505 50.0714C48.4138 50.2294 48.5435 50.417 48.6319 50.6236C48.7204 50.8301 48.7659 51.0515 48.7659 51.2751C48.7659 51.4987 48.7204 51.7201 48.6319 51.9267C48.5435 52.1332 48.4138 52.3209 48.2505 52.4788L28.0406 72.0406C27.8775 72.1989 27.6837 72.3244 27.4705 72.4101C27.2572 72.4957 27.0286 72.5398 26.7977 72.5398C26.5668 72.5398 26.3382 72.4957 26.125 72.4101C25.9117 72.3244 25.718 72.1989 25.5549 72.0406H25.5639Z" fill="#27C100"/>
<defs>
<clipPath id="clip0">
<rect x="17.3672" y="424.665" width="28" height="38" fill="white"/>
</clipPath>
</defs>
</svg>
