<svg width="63" height="1045" viewBox="0 0 63 1045" fill="none" xmlns="http://www.w3.org/2000/svg">
<path d="M31.0137 0.665039L31.0137 568.665" stroke="#27C100" stroke-width="5.9146"/>
<path d="M31.0137 580.665L31.0137 1044.67" stroke="#0355D1" stroke-width="5.9146"/>
<path d="M31.2431 964.665H31.2436C34.9508 964.665 38.6218 965.394 42.047 966.813C45.4721 968.231 48.5843 970.311 51.2057 972.932C53.8271 975.553 55.9064 978.666 57.3249 982.091C58.7433 985.516 59.4731 989.187 59.4726 992.894V992.894C59.4726 998.478 57.817 1003.94 54.7151 1008.58C51.6132 1013.22 47.2043 1016.84 42.0461 1018.98C36.8878 1021.11 31.2118 1021.67 25.7359 1020.58C20.2599 1019.49 15.2299 1016.8 11.2819 1012.86C7.33394 1008.91 4.64535 1003.88 3.55611 998.402C2.46687 992.926 3.0259 987.25 5.16253 982.092C7.29915 976.933 10.9174 972.524 15.5597 969.423C20.202 966.321 25.6599 964.665 31.2431 964.665Z" fill="white" stroke="#27C100" stroke-width="6"/>
<path d="M31.2454 961.665C25.0687 961.665 19.0306 963.496 13.8946 966.927C8.75867 970.358 4.75556 975.236 2.39153 980.942C0.0275042 986.648 -0.591264 992.928 0.613476 998.986C1.81822 1005.04 4.79235 1010.61 9.15978 1014.98C13.5272 1019.34 19.0918 1022.32 25.1497 1023.52C31.2077 1024.73 37.487 1024.11 43.1936 1021.75C48.9002 1019.38 53.7777 1015.38 57.2093 1010.24C60.6409 1005.11 62.4726 999.071 62.4726 992.894C62.4735 988.793 61.6664 984.732 60.0974 980.943C58.5284 977.154 56.2283 973.711 53.3285 970.811C50.4286 967.911 46.9858 965.61 43.1967 964.041C39.4077 962.472 35.3466 961.664 31.2454 961.665V961.665ZM31.2454 1018.08C26.264 1018.08 21.3944 1016.6 17.2524 1013.83C13.1104 1011.07 9.88198 1007.13 7.97549 1002.53C6.069 997.929 5.57006 992.865 6.54177 987.979C7.51347 983.094 9.91217 978.606 13.4345 975.084C16.9569 971.561 21.4446 969.163 26.3303 968.191C31.216 967.219 36.28 967.718 40.8821 969.625C45.4842 971.531 49.4176 974.759 52.1848 978.901C54.952 983.044 56.4288 987.913 56.4283 992.894C56.4289 996.202 55.7779 999.477 54.5126 1002.53C53.2472 1005.59 51.3923 1008.36 49.0537 1010.7C46.7152 1013.04 43.9388 1014.9 40.8832 1016.16C37.8276 1017.43 34.5526 1018.08 31.2454 1018.08V1018.08ZM39.0279 1004.93L28.3363 997.153C28.1453 997.012 27.99 996.828 27.8828 996.616C27.7757 996.404 27.7196 996.17 27.7192 995.932V975.266C27.7198 974.865 27.879 974.481 28.162 974.198C28.4449 973.915 28.8286 973.755 29.2291 973.754H33.2594C33.6599 973.755 34.0436 973.915 34.3266 974.198C34.6095 974.481 34.7687 974.865 34.7693 975.266V993.107L43.1892 999.228C43.3501 999.345 43.4863 999.493 43.5899 999.663C43.6935 999.833 43.7625 1000.02 43.7929 1000.22C43.8234 1000.41 43.8147 1000.62 43.7673 1000.81C43.72 1001 43.6349 1001.18 43.517 1001.34L41.1413 1004.61C40.903 1004.93 40.5471 1005.15 40.1509 1005.21C39.7547 1005.27 39.3503 1005.18 39.0256 1004.94L39.0279 1004.93Z" fill="#0355D1"/>
<path d="M31.2431 823.665H31.2436C34.9508 823.665 38.6218 824.394 42.047 825.813C45.4721 827.231 48.5843 829.311 51.2057 831.932C53.8271 834.553 55.9064 837.666 57.3249 841.091C58.7433 844.516 59.4731 848.187 59.4726 851.894V851.894C59.4726 857.478 57.817 862.936 54.7151 867.578C51.6132 872.22 47.2043 875.838 42.0461 877.975C36.8878 880.112 31.2118 880.671 25.7359 879.582C20.2599 878.492 15.2299 875.804 11.2819 871.856C7.33394 867.908 4.64535 862.878 3.55611 857.402C2.46687 851.926 3.0259 846.25 5.16253 841.092C7.29915 835.933 10.9174 831.524 15.5597 828.423C20.202 825.321 25.6599 823.665 31.2431 823.665Z" fill="white" stroke="#27C100" stroke-width="6"/>
<path d="M31.2454 820.665C25.0687 820.665 19.0306 822.496 13.8946 825.927C8.75867 829.358 4.75556 834.236 2.39153 839.942C0.0275042 845.648 -0.591264 851.928 0.613476 857.986C1.81822 864.044 4.79235 869.608 9.15978 873.976C13.5272 878.344 19.0918 881.319 25.1497 882.524C31.2077 883.729 37.487 883.111 43.1936 880.747C48.9002 878.383 53.7777 874.381 57.2093 869.245C60.6409 864.109 62.4726 858.071 62.4726 851.894C62.4735 847.793 61.6664 843.732 60.0974 839.943C58.5284 836.154 56.2283 832.711 53.3285 829.811C50.4286 826.911 46.9858 824.61 43.1967 823.041C39.4077 821.472 35.3466 820.664 31.2454 820.665V820.665ZM31.2454 877.077C26.264 877.078 21.3944 875.601 17.2524 872.834C13.1104 870.067 9.88198 866.133 7.97549 861.531C6.069 856.929 5.57006 851.865 6.54177 846.979C7.51347 842.094 9.91217 837.606 13.4345 834.084C16.9569 830.561 21.4446 828.163 26.3303 827.191C31.216 826.219 36.28 826.718 40.8821 828.625C45.4842 830.531 49.4176 833.759 52.1848 837.901C54.952 842.044 56.4288 846.913 56.4283 851.894C56.4289 855.202 55.7779 858.477 54.5126 861.532C53.2472 864.588 51.3923 867.364 49.0537 869.703C46.7152 872.041 43.9388 873.896 40.8832 875.162C37.8276 876.427 34.5526 877.078 31.2454 877.077V877.077ZM39.0279 863.931L28.3363 856.153C28.1453 856.012 27.99 855.828 27.8828 855.616C27.7757 855.404 27.7196 855.17 27.7192 854.932V834.266C27.7198 833.865 27.879 833.481 28.162 833.198C28.4449 832.915 28.8286 832.755 29.2291 832.754H33.2594C33.6599 832.755 34.0436 832.915 34.3266 833.198C34.6095 833.481 34.7687 833.865 34.7693 834.266V852.107L43.1892 858.228C43.3501 858.345 43.4863 858.493 43.5899 858.663C43.6935 858.833 43.7625 859.021 43.7929 859.218C43.8234 859.414 43.8147 859.615 43.7673 859.808C43.72 860.002 43.6349 860.184 43.517 860.344L41.1413 863.612C40.903 863.935 40.5471 864.15 40.1509 864.211C39.7547 864.273 39.3503 864.175 39.0256 863.94L39.0279 863.931Z" fill="#0355D1"/>
<path d="M31.2431 684.665H31.2436C34.9508 684.665 38.6218 685.394 42.047 686.813C45.4721 688.231 48.5843 690.311 51.2057 692.932C53.8271 695.553 55.9064 698.666 57.3249 702.091C58.7433 705.516 59.4731 709.187 59.4726 712.894V712.894C59.4726 718.478 57.817 723.936 54.7151 728.578C51.6132 733.22 47.2043 736.838 42.0461 738.975C36.8878 741.112 31.2118 741.671 25.7359 740.582C20.2599 739.492 15.2299 736.804 11.2819 732.856C7.33394 728.908 4.64535 723.878 3.55611 718.402C2.46687 712.926 3.0259 707.25 5.16253 702.092C7.29915 696.933 10.9174 692.524 15.5597 689.423C20.202 686.321 25.6599 684.665 31.2431 684.665Z" fill="white" stroke="#27C100" stroke-width="6"/>
<path d="M31.2454 681.665C25.0687 681.665 19.0306 683.496 13.8946 686.927C8.75867 690.358 4.75556 695.236 2.39153 700.942C0.0275042 706.648 -0.591264 712.928 0.613476 718.986C1.81822 725.044 4.79235 730.608 9.15978 734.976C13.5272 739.344 19.0918 742.319 25.1497 743.524C31.2077 744.729 37.487 744.111 43.1936 741.747C48.9002 739.383 53.7777 735.381 57.2093 730.245C60.6409 725.109 62.4726 719.071 62.4726 712.894C62.4735 708.793 61.6664 704.732 60.0974 700.943C58.5284 697.154 56.2283 693.711 53.3285 690.811C50.4286 687.911 46.9858 685.61 43.1967 684.041C39.4077 682.472 35.3466 681.664 31.2454 681.665V681.665ZM31.2454 738.077C26.264 738.078 21.3944 736.601 17.2524 733.834C13.1104 731.067 9.88198 727.133 7.97549 722.531C6.069 717.929 5.57006 712.865 6.54177 707.979C7.51347 703.094 9.91217 698.606 13.4345 695.084C16.9569 691.561 21.4446 689.163 26.3303 688.191C31.216 687.219 36.28 687.718 40.8821 689.625C45.4842 691.531 49.4176 694.759 52.1848 698.901C54.952 703.044 56.4288 707.913 56.4283 712.894C56.4289 716.202 55.7779 719.477 54.5126 722.532C53.2472 725.588 51.3923 728.364 49.0537 730.703C46.7152 733.041 43.9388 734.896 40.8832 736.162C37.8276 737.427 34.5526 738.078 31.2454 738.077V738.077ZM39.0279 724.931L28.3363 717.153C28.1453 717.012 27.99 716.828 27.8828 716.616C27.7757 716.404 27.7196 716.17 27.7192 715.932V695.266C27.7198 694.865 27.879 694.481 28.162 694.198C28.4449 693.915 28.8286 693.755 29.2291 693.754H33.2594C33.6599 693.755 34.0436 693.915 34.3266 694.198C34.6095 694.481 34.7687 694.865 34.7693 695.266V713.107L43.1892 719.228C43.3501 719.345 43.4863 719.493 43.5899 719.663C43.6935 719.833 43.7625 720.021 43.7929 720.218C43.8234 720.414 43.8147 720.615 43.7673 720.808C43.72 721.002 43.6349 721.184 43.517 721.344L41.1413 724.612C40.903 724.935 40.5471 725.15 40.1509 725.211C39.7547 725.273 39.3503 725.175 39.0256 724.94L39.0279 724.931Z" fill="#0355D1"/>
<path d="M31.2431 571.665H31.2436C34.9508 571.665 38.6218 572.394 42.047 573.813C45.4721 575.231 48.5843 577.311 51.2057 579.932C53.8271 582.553 55.9064 585.666 57.3249 589.091C58.7433 592.516 59.4731 596.187 59.4726 599.894V599.894C59.4726 605.478 57.817 610.936 54.7151 615.578C51.6132 620.22 47.2043 623.838 42.0461 625.975C36.8878 628.112 31.2118 628.671 25.7359 627.582C20.2599 626.492 15.2299 623.804 11.2819 619.856C7.33394 615.908 4.64535 610.878 3.55611 605.402C2.46687 599.926 3.0259 594.25 5.16253 589.092C7.29915 583.933 10.9174 579.524 15.5597 576.423C20.202 573.321 25.6599 571.665 31.2431 571.665Z" fill="white" stroke="#0355D1" stroke-width="6"/>
<g clip-path="url(#clip0)">
<path d="M43.2637 580.665H18.7637C17.7972 580.665 17.0137 581.463 17.0137 582.446V583.634C17.0137 584.618 17.7972 585.415 18.7637 585.415C18.7637 592.166 22.4836 597.864 27.5751 599.665C22.4836 601.466 18.7637 607.164 18.7637 613.915C17.7972 613.915 17.0137 614.713 17.0137 615.696V616.884C17.0137 617.868 17.7972 618.665 18.7637 618.665H43.2637C44.2302 618.665 45.0137 617.868 45.0137 616.884V615.696C45.0137 614.713 44.2302 613.915 43.2637 613.915C43.2637 607.164 39.5438 601.466 34.4523 599.665C39.5438 597.864 43.2637 592.166 43.2637 585.415C44.2302 585.415 45.0137 584.618 45.0137 583.634V582.446C45.0137 581.463 44.2302 580.665 43.2637 580.665ZM37.7892 609.165H24.2383C25.4821 605.692 28.0369 603.228 31.0137 603.228C33.9902 603.228 36.5453 605.691 37.7892 609.165ZM37.7906 590.165H24.2381C23.7211 588.721 23.4303 587.103 23.4303 585.415H38.597C38.597 587.108 38.3063 588.724 37.7906 590.165V590.165Z" fill="#0355D1"/>
</g>
<path d="M31.2431 415.665H31.2436C34.9508 415.665 38.6218 416.394 42.047 417.813C45.4721 419.231 48.5843 421.311 51.2057 423.932C53.8271 426.553 55.9064 429.666 57.3249 433.091C58.7433 436.516 59.4731 440.187 59.4726 443.894V443.894C59.4726 449.478 57.817 454.936 54.7151 459.578C51.6132 464.22 47.2043 467.838 42.0461 469.975C36.8878 472.112 31.2118 472.671 25.7359 471.582C20.2599 470.492 15.2299 467.804 11.2819 463.856C7.33394 459.908 4.64535 454.878 3.55611 449.402C2.46687 443.926 3.0259 438.25 5.16253 433.092C7.29915 427.933 10.9174 423.524 15.5597 420.423C20.202 417.321 25.6599 415.665 31.2431 415.665Z" fill="white" stroke="#27C100" stroke-width="6"/>
<path d="M25.2104 457.06L13.8025 446.012C13.6391 445.854 13.5095 445.666 13.4211 445.46C13.3326 445.253 13.2871 445.032 13.2871 444.808C13.2871 444.585 13.3326 444.363 13.4211 444.157C13.5095 443.95 13.6391 443.762 13.8025 443.604L16.2792 441.203C16.4423 441.045 16.6361 440.919 16.8493 440.833C17.0626 440.748 17.2912 440.704 17.5221 440.704C17.7529 440.704 17.9816 440.748 18.1948 440.833C18.4081 440.919 18.6018 441.045 18.7649 441.203L26.4562 448.652L42.9285 432.684C43.0916 432.526 43.2854 432.4 43.4986 432.314C43.7119 432.229 43.9405 432.185 44.1714 432.185C44.4023 432.185 44.6309 432.229 44.8441 432.314C45.0574 432.4 45.2511 432.526 45.4142 432.684L47.8969 435.091C48.0603 435.249 48.19 435.437 48.2784 435.643C48.3668 435.85 48.4124 436.071 48.4124 436.295C48.4124 436.519 48.3668 436.74 48.2784 436.946C48.19 437.153 48.0603 437.341 47.8969 437.499L27.6871 457.06C27.5239 457.219 27.3302 457.344 27.1169 457.43C26.9037 457.515 26.6751 457.56 26.4442 457.56C26.2133 457.56 25.9847 457.515 25.7715 457.43C25.5582 457.344 25.3645 457.219 25.2014 457.06H25.2104Z" fill="#27C100"/>
<path d="M31.2431 302.665H31.2436C34.9508 302.665 38.6218 303.394 42.047 304.813C45.4721 306.231 48.5843 308.311 51.2057 310.932C53.8271 313.553 55.9064 316.666 57.3249 320.091C58.7433 323.516 59.4731 327.187 59.4726 330.894V330.894C59.4726 336.478 57.817 341.936 54.7151 346.578C51.6132 351.22 47.2043 354.838 42.0461 356.975C36.8878 359.112 31.2118 359.671 25.7359 358.582C20.2599 357.492 15.2299 354.804 11.2819 350.856C7.33394 346.908 4.64535 341.878 3.55611 336.402C2.46687 330.926 3.0259 325.25 5.16253 320.092C7.29915 314.933 10.9174 310.524 15.5597 307.423C20.202 304.321 25.6599 302.665 31.2431 302.665Z" fill="white" stroke="#27C100" stroke-width="6"/>
<path d="M25.2104 344.06L13.8025 333.012C13.6391 332.854 13.5095 332.666 13.4211 332.46C13.3326 332.253 13.2871 332.032 13.2871 331.808C13.2871 331.585 13.3326 331.363 13.4211 331.157C13.5095 330.95 13.6391 330.762 13.8025 330.604L16.2792 328.203C16.4423 328.045 16.6361 327.919 16.8493 327.833C17.0626 327.748 17.2912 327.704 17.5221 327.704C17.7529 327.704 17.9816 327.748 18.1948 327.833C18.4081 327.919 18.6018 328.045 18.7649 328.203L26.4562 335.652L42.9285 319.684C43.0916 319.526 43.2854 319.4 43.4986 319.314C43.7119 319.229 43.9405 319.185 44.1714 319.185C44.4023 319.185 44.6309 319.229 44.8441 319.314C45.0574 319.4 45.2511 319.526 45.4142 319.684L47.8969 322.091C48.0603 322.249 48.19 322.437 48.2784 322.643C48.3668 322.85 48.4124 323.071 48.4124 323.295C48.4124 323.519 48.3668 323.74 48.2784 323.946C48.19 324.153 48.0603 324.341 47.8969 324.499L27.6871 344.06C27.5239 344.219 27.3302 344.344 27.1169 344.43C26.9037 344.515 26.6751 344.56 26.4442 344.56C26.2133 344.56 25.9847 344.515 25.7715 344.43C25.5582 344.344 25.3645 344.219 25.2014 344.06H25.2104Z" fill="#27C100"/>
<path d="M31.2431 166.665H31.2436C34.9508 166.665 38.6218 167.394 42.047 168.813C45.4721 170.231 48.5843 172.311 51.2057 174.932C53.8271 177.553 55.9064 180.666 57.3249 184.091C58.7433 187.516 59.4731 191.187 59.4726 194.894V194.894C59.4726 200.478 57.817 205.936 54.7151 210.578C51.6132 215.22 47.2043 218.838 42.0461 220.975C36.8878 223.112 31.2118 223.671 25.7359 222.582C20.2599 221.492 15.2299 218.804 11.2819 214.856C7.33394 210.908 4.64535 205.878 3.55611 200.402C2.46687 194.926 3.0259 189.25 5.16253 184.092C7.29915 178.933 10.9174 174.524 15.5597 171.423C20.202 168.321 25.6599 166.665 31.2431 166.665Z" fill="white" stroke="#27C100" stroke-width="6"/>
<path d="M25.2104 208.06L13.8025 197.012C13.6391 196.854 13.5095 196.666 13.4211 196.46C13.3326 196.253 13.2871 196.032 13.2871 195.808C13.2871 195.585 13.3326 195.363 13.4211 195.157C13.5095 194.95 13.6391 194.762 13.8025 194.604L16.2792 192.203C16.4423 192.045 16.6361 191.919 16.8493 191.833C17.0626 191.748 17.2912 191.704 17.5221 191.704C17.7529 191.704 17.9816 191.748 18.1948 191.833C18.4081 191.919 18.6018 192.045 18.7649 192.203L26.4562 199.652L42.9285 183.684C43.0916 183.526 43.2854 183.4 43.4986 183.314C43.7119 183.229 43.9405 183.185 44.1714 183.185C44.4023 183.185 44.6309 183.229 44.8441 183.314C45.0574 183.4 45.2511 183.526 45.4142 183.684L47.8969 186.091C48.0603 186.249 48.19 186.437 48.2784 186.643C48.3668 186.85 48.4124 187.071 48.4124 187.295C48.4124 187.519 48.3668 187.74 48.2784 187.946C48.19 188.153 48.0603 188.341 47.8969 188.499L27.6871 208.06C27.5239 208.219 27.3302 208.344 27.1169 208.43C26.9037 208.515 26.6751 208.56 26.4442 208.56C26.2133 208.56 25.9847 208.515 25.7715 208.43C25.5582 208.344 25.3645 208.219 25.2014 208.06H25.2104Z" fill="#27C100"/>
<path d="M31.2454 27.665C25.0687 27.6646 19.0306 29.4958 13.8946 32.9271C8.75867 36.3583 4.75556 41.2355 2.39153 46.9419C0.0275042 52.6483 -0.591264 58.9276 0.613476 64.9857C1.81822 71.0437 4.79235 76.6085 9.15978 80.9762C13.5272 85.344 19.0918 88.3185 25.1497 89.5237C31.2077 90.7289 37.487 90.1106 43.1936 87.7469C48.9002 85.3833 53.7777 81.3806 57.2093 76.2449C60.6409 71.1092 62.4726 65.0712 62.4726 58.8945C62.4735 54.7933 61.6664 50.7321 60.0974 46.943C58.5284 43.1538 56.2283 39.7108 53.3285 36.8107C50.4286 33.9107 46.9858 31.6103 43.1967 30.0411C39.4077 28.4718 35.3466 27.6644 31.2454 27.665V27.665ZM31.2454 84.0774C26.264 84.0779 21.3944 82.6011 17.2524 79.8339C13.1104 77.0667 9.88198 73.1333 7.97549 68.5312C6.069 63.9291 5.57006 58.8651 6.54177 53.9794C7.51347 49.0937 9.91217 44.606 13.4345 41.0836C16.9569 37.5613 21.4446 35.1626 26.3303 34.1909C31.216 33.2192 36.28 33.7181 40.8821 35.6246C45.4842 37.5311 49.4176 40.7595 52.1848 44.9015C54.952 49.0435 56.4288 53.9131 56.4283 58.8945C56.4289 62.2017 55.7779 65.4767 54.5126 68.5323C53.2472 71.5879 51.3923 74.3643 49.0537 76.7028C46.7152 79.0414 43.9388 80.8963 40.8832 82.1617C37.8276 83.427 34.5526 84.078 31.2454 84.0774V84.0774ZM39.0279 70.931L28.3363 63.153C28.1453 63.0119 27.99 62.828 27.8828 62.616C27.7757 62.404 27.7196 62.1699 27.7192 61.9324V41.2658C27.7198 40.8653 27.879 40.4813 28.162 40.1979C28.4449 39.9145 28.8286 39.7548 29.2291 39.7536H33.2594C33.6599 39.7548 34.0436 39.9145 34.3266 40.1979C34.6095 40.4813 34.7687 40.8653 34.7693 41.2658V59.107L43.1892 65.2281C43.3501 65.3451 43.4863 65.4928 43.5899 65.6627C43.6935 65.8325 43.7625 66.0212 43.7929 66.2178C43.8234 66.4144 43.8147 66.6151 43.7673 66.8083C43.72 67.0016 43.6349 67.1835 43.517 67.3438L41.1413 70.6123C40.903 70.9347 40.5471 71.15 40.1509 71.2114C39.7547 71.2728 39.3503 71.1753 39.0256 70.9401L39.0279 70.931Z" fill="#0355D1"/>
<path d="M31.2431 30.665H31.2436C34.9508 30.6645 38.6218 31.3943 42.047 32.8128C45.4721 34.2312 48.5843 36.3105 51.2057 38.932C53.8271 41.5534 55.9064 44.6655 57.3249 48.0907C58.7433 51.5158 59.4731 55.1868 59.4726 58.8941V58.8945C59.4726 64.4778 57.817 69.9356 54.7151 74.5779C51.6132 79.2203 47.2043 82.8385 42.0461 84.9751C36.8878 87.1117 31.2118 87.6708 25.7359 86.5815C20.2599 85.4923 15.2299 82.8037 11.2819 78.8557C7.33394 74.9078 4.64535 69.8778 3.55611 64.4018C2.46687 58.9258 3.0259 53.2498 5.16253 48.0916C7.29915 42.9333 10.9174 38.5245 15.5597 35.4226C20.202 32.3207 25.6599 30.665 31.2431 30.665Z" fill="white" stroke="#27C100" stroke-width="6"/>
<path d="M25.2104 72.0406L13.8025 60.992C13.6391 60.8341 13.5095 60.6464 13.4211 60.4399C13.3326 60.2333 13.2871 60.0119 13.2871 59.7883C13.2871 59.5647 13.3326 59.3433 13.4211 59.1368C13.5095 58.9302 13.6391 58.7426 13.8025 58.5846L16.2792 56.183C16.4423 56.0248 16.6361 55.8992 16.8493 55.8136C17.0626 55.7279 17.2912 55.6838 17.5221 55.6838C17.7529 55.6838 17.9816 55.7279 18.1948 55.8136C18.4081 55.8992 18.6018 56.0248 18.7649 56.183L26.4562 63.6321L42.9285 47.664C43.0916 47.5057 43.2854 47.3802 43.4986 47.2945C43.7119 47.2089 43.9405 47.1648 44.1714 47.1648C44.4023 47.1648 44.6309 47.2089 44.8441 47.2945C45.0574 47.3802 45.2511 47.5057 45.4142 47.664L47.8969 50.0714C48.0603 50.2294 48.19 50.417 48.2784 50.6236C48.3668 50.8301 48.4124 51.0515 48.4124 51.2751C48.4124 51.4987 48.3668 51.7201 48.2784 51.9267C48.19 52.1332 48.0603 52.3209 47.8969 52.4788L27.6871 72.0406C27.5239 72.1989 27.3302 72.3244 27.1169 72.4101C26.9037 72.4957 26.6751 72.5398 26.4442 72.5398C26.2133 72.5398 25.9847 72.4957 25.7715 72.4101C25.5582 72.3244 25.3645 72.1989 25.2014 72.0406H25.2104Z" fill="#27C100"/>
<defs>
<clipPath id="clip0">
<rect x="17.0137" y="580.665" width="28" height="38" fill="white"/>
</clipPath>
</defs>
</svg>
