<svg width="64" height="888" viewBox="0 0 64 888" fill="none" xmlns="http://www.w3.org/2000/svg">
<path d="M31.7813 0.665039L31.7813 167.665" stroke="#27C100" stroke-width="5.9146"/>
<path d="M31.7813 225.665L31.7813 887.665" stroke="#0355D1" stroke-width="5.9146"/>
<path d="M32.0107 807.665H32.0111C35.7184 807.665 39.3894 808.394 42.8146 809.813C46.2397 811.231 49.3519 813.311 51.9733 815.932C54.5947 818.553 56.674 821.666 58.0924 825.091C59.5109 828.516 60.2407 832.187 60.2402 835.894V835.894C60.2402 841.478 58.5846 846.936 55.4827 851.578C52.3808 856.22 47.9719 859.838 42.8137 861.975C37.6554 864.112 31.9794 864.671 26.5034 863.582C21.0274 862.492 15.9974 859.804 12.0495 855.856C8.10152 851.908 5.41293 846.878 4.32369 841.402C3.23445 835.926 3.79348 830.25 5.9301 825.092C8.06673 819.933 11.685 815.524 16.3273 812.423C20.9696 809.321 26.4275 807.665 32.0107 807.665Z" fill="white" stroke="#27C100" stroke-width="6"/>
<path d="M32.013 804.665C25.8363 804.665 19.7982 806.496 14.6622 809.927C9.52625 813.358 5.52314 818.236 3.15911 823.942C0.795082 829.648 0.176314 835.928 1.38105 841.986C2.58579 848.044 5.55993 853.608 9.92736 857.976C14.2948 862.344 19.8593 865.319 25.9173 866.524C31.9753 867.729 38.2546 867.111 43.9612 864.747C49.6677 862.383 54.5452 858.381 57.9769 853.245C61.4085 848.109 63.2402 842.071 63.2402 835.894C63.241 831.793 62.434 827.732 60.865 823.943C59.296 820.154 56.9959 816.711 54.096 813.811C51.1962 810.911 47.7534 808.61 43.9643 807.041C40.1752 805.472 36.1141 804.664 32.013 804.665V804.665ZM32.013 861.077C27.0316 861.078 22.162 859.601 18.02 856.834C13.878 854.067 10.6496 850.133 8.74307 845.531C6.83658 840.929 6.33764 835.865 7.30934 830.979C8.28105 826.094 10.6797 821.606 14.2021 818.084C17.7244 814.561 22.2122 812.163 27.0979 811.191C31.9835 810.219 37.0476 810.718 41.6497 812.625C46.2518 814.531 50.1851 817.759 52.9524 821.901C55.7196 826.044 57.1963 830.913 57.1959 835.894C57.1965 839.202 56.5455 842.477 55.2802 845.532C54.0148 848.588 52.1599 851.364 49.8213 853.703C47.4827 856.041 44.7064 857.896 41.6508 859.162C38.5952 860.427 35.3202 861.078 32.013 861.077V861.077ZM39.7955 847.931L29.1039 840.153C28.9129 840.012 28.7576 839.828 28.6504 839.616C28.5432 839.404 28.4872 839.17 28.4868 838.932V818.266C28.4874 817.865 28.6466 817.481 28.9295 817.198C29.2125 816.915 29.5962 816.755 29.9967 816.754H34.027C34.4275 816.755 34.8112 816.915 35.0941 817.198C35.3771 817.481 35.5363 817.865 35.5369 818.266V836.107L43.9568 842.228C44.1177 842.345 44.2538 842.493 44.3574 842.663C44.461 842.833 44.53 843.021 44.5605 843.218C44.591 843.414 44.5823 843.615 44.5349 843.808C44.4876 844.002 44.4025 844.184 44.2846 844.344L41.9089 847.612C41.6706 847.935 41.3147 848.15 40.9185 848.211C40.5223 848.273 40.1179 848.175 39.7932 847.94L39.7955 847.931Z" fill="#0355D1"/>
<path d="M32.0107 666.665H32.0111C35.7184 666.665 39.3894 667.394 42.8146 668.813C46.2397 670.231 49.3519 672.311 51.9733 674.932C54.5947 677.553 56.674 680.666 58.0924 684.091C59.5109 687.516 60.2407 691.187 60.2402 694.894V694.894C60.2402 700.478 58.5846 705.936 55.4827 710.578C52.3808 715.22 47.9719 718.838 42.8137 720.975C37.6554 723.112 31.9794 723.671 26.5034 722.582C21.0274 721.492 15.9974 718.804 12.0495 714.856C8.10152 710.908 5.41293 705.878 4.32369 700.402C3.23445 694.926 3.79348 689.25 5.9301 684.092C8.06673 678.933 11.685 674.524 16.3273 671.423C20.9696 668.321 26.4275 666.665 32.0107 666.665Z" fill="white" stroke="#27C100" stroke-width="6"/>
<path d="M32.013 663.665C25.8363 663.665 19.7982 665.496 14.6622 668.927C9.52625 672.358 5.52314 677.236 3.15911 682.942C0.795082 688.648 0.176314 694.928 1.38105 700.986C2.58579 707.044 5.55993 712.608 9.92736 716.976C14.2948 721.344 19.8593 724.319 25.9173 725.524C31.9753 726.729 38.2546 726.111 43.9612 723.747C49.6677 721.383 54.5452 717.381 57.9769 712.245C61.4085 707.109 63.2402 701.071 63.2402 694.894C63.241 690.793 62.434 686.732 60.865 682.943C59.296 679.154 56.9959 675.711 54.096 672.811C51.1962 669.911 47.7534 667.61 43.9643 666.041C40.1752 664.472 36.1141 663.664 32.013 663.665V663.665ZM32.013 720.077C27.0316 720.078 22.162 718.601 18.02 715.834C13.878 713.067 10.6496 709.133 8.74307 704.531C6.83658 699.929 6.33764 694.865 7.30934 689.979C8.28105 685.094 10.6797 680.606 14.2021 677.084C17.7244 673.561 22.2122 671.163 27.0979 670.191C31.9835 669.219 37.0476 669.718 41.6497 671.625C46.2518 673.531 50.1851 676.759 52.9524 680.901C55.7196 685.044 57.1963 689.913 57.1959 694.894C57.1965 698.202 56.5455 701.477 55.2802 704.532C54.0148 707.588 52.1599 710.364 49.8213 712.703C47.4827 715.041 44.7064 716.896 41.6508 718.162C38.5952 719.427 35.3202 720.078 32.013 720.077V720.077ZM39.7955 706.931L29.1039 699.153C28.9129 699.012 28.7576 698.828 28.6504 698.616C28.5432 698.404 28.4872 698.17 28.4868 697.932V677.266C28.4874 676.865 28.6466 676.481 28.9295 676.198C29.2125 675.915 29.5962 675.755 29.9967 675.754H34.027C34.4275 675.755 34.8112 675.915 35.0941 676.198C35.3771 676.481 35.5363 676.865 35.5369 677.266V695.107L43.9568 701.228C44.1177 701.345 44.2538 701.493 44.3574 701.663C44.461 701.833 44.53 702.021 44.5605 702.218C44.591 702.414 44.5823 702.615 44.5349 702.808C44.4876 703.002 44.4025 703.184 44.2846 703.344L41.9089 706.612C41.6706 706.935 41.3147 707.15 40.9185 707.211C40.5223 707.273 40.1179 707.175 39.7932 706.94L39.7955 706.931Z" fill="#0355D1"/>
<path d="M32.0107 528.665H32.0111C35.7184 528.665 39.3894 529.394 42.8146 530.813C46.2397 532.231 49.3519 534.311 51.9733 536.932C54.5947 539.553 56.674 542.666 58.0924 546.091C59.5109 549.516 60.2407 553.187 60.2402 556.894V556.894C60.2402 562.478 58.5846 567.936 55.4827 572.578C52.3808 577.22 47.9719 580.838 42.8137 582.975C37.6554 585.112 31.9794 585.671 26.5034 584.582C21.0274 583.492 15.9974 580.804 12.0495 576.856C8.10152 572.908 5.41293 567.878 4.32369 562.402C3.23445 556.926 3.79348 551.25 5.9301 546.092C8.06673 540.933 11.685 536.524 16.3273 533.423C20.9696 530.321 26.4275 528.665 32.0107 528.665Z" fill="white" stroke="#27C100" stroke-width="6"/>
<path d="M32.013 525.665C25.8363 525.665 19.7982 527.496 14.6622 530.927C9.52625 534.358 5.52314 539.236 3.15911 544.942C0.795082 550.648 0.176314 556.928 1.38105 562.986C2.58579 569.044 5.55993 574.608 9.92736 578.976C14.2948 583.344 19.8593 586.319 25.9173 587.524C31.9753 588.729 38.2546 588.111 43.9612 585.747C49.6677 583.383 54.5452 579.381 57.9769 574.245C61.4085 569.109 63.2402 563.071 63.2402 556.894C63.241 552.793 62.434 548.732 60.865 544.943C59.296 541.154 56.9959 537.711 54.096 534.811C51.1962 531.911 47.7534 529.61 43.9643 528.041C40.1752 526.472 36.1141 525.664 32.013 525.665V525.665ZM32.013 582.077C27.0316 582.078 22.162 580.601 18.02 577.834C13.878 575.067 10.6496 571.133 8.74307 566.531C6.83658 561.929 6.33764 556.865 7.30934 551.979C8.28105 547.094 10.6797 542.606 14.2021 539.084C17.7244 535.561 22.2122 533.163 27.0979 532.191C31.9835 531.219 37.0476 531.718 41.6497 533.625C46.2518 535.531 50.1851 538.759 52.9524 542.901C55.7196 547.044 57.1963 551.913 57.1959 556.894C57.1965 560.202 56.5455 563.477 55.2802 566.532C54.0148 569.588 52.1599 572.364 49.8213 574.703C47.4827 577.041 44.7064 578.896 41.6508 580.162C38.5952 581.427 35.3202 582.078 32.013 582.077V582.077ZM39.7955 568.931L29.1039 561.153C28.9129 561.012 28.7576 560.828 28.6504 560.616C28.5432 560.404 28.4872 560.17 28.4868 559.932V539.266C28.4874 538.865 28.6466 538.481 28.9295 538.198C29.2125 537.915 29.5962 537.755 29.9967 537.754H34.027C34.4275 537.755 34.8112 537.915 35.0941 538.198C35.3771 538.481 35.5363 538.865 35.5369 539.266V557.107L43.9568 563.228C44.1177 563.345 44.2538 563.493 44.3574 563.663C44.461 563.833 44.53 564.021 44.5605 564.218C44.591 564.414 44.5823 564.615 44.5349 564.808C44.4876 565.002 44.4025 565.184 44.2846 565.344L41.9089 568.612C41.6706 568.935 41.3147 569.15 40.9185 569.211C40.5223 569.273 40.1179 569.175 39.7932 568.94L39.7955 568.931Z" fill="#0355D1"/>
<path d="M32.0107 415.665H32.0111C35.7184 415.665 39.3894 416.394 42.8146 417.813C46.2397 419.231 49.3519 421.311 51.9733 423.932C54.5947 426.553 56.674 429.666 58.0924 433.091C59.5109 436.516 60.2407 440.187 60.2402 443.894V443.894C60.2402 449.478 58.5846 454.936 55.4827 459.578C52.3808 464.22 47.9719 467.838 42.8137 469.975C37.6554 472.112 31.9794 472.671 26.5034 471.582C21.0274 470.492 15.9974 467.804 12.0495 463.856C8.10152 459.908 5.41293 454.878 4.32369 449.402C3.23445 443.926 3.79348 438.25 5.9301 433.092C8.06673 427.933 11.685 423.524 16.3273 420.423C20.9696 417.321 26.4275 415.665 32.0107 415.665Z" fill="white" stroke="#27C100" stroke-width="6"/>
<path d="M32.013 412.665C25.8363 412.665 19.7982 414.496 14.6622 417.927C9.52625 421.358 5.52314 426.236 3.15911 431.942C0.795082 437.648 0.176314 443.928 1.38105 449.986C2.58579 456.044 5.55993 461.608 9.92736 465.976C14.2948 470.344 19.8593 473.319 25.9173 474.524C31.9753 475.729 38.2546 475.111 43.9612 472.747C49.6677 470.383 54.5452 466.381 57.9769 461.245C61.4085 456.109 63.2402 450.071 63.2402 443.894C63.241 439.793 62.434 435.732 60.865 431.943C59.296 428.154 56.9959 424.711 54.096 421.811C51.1962 418.911 47.7534 416.61 43.9643 415.041C40.1752 413.472 36.1141 412.664 32.013 412.665V412.665ZM32.013 469.077C27.0316 469.078 22.162 467.601 18.02 464.834C13.878 462.067 10.6496 458.133 8.74307 453.531C6.83658 448.929 6.33764 443.865 7.30934 438.979C8.28105 434.094 10.6797 429.606 14.2021 426.084C17.7244 422.561 22.2122 420.163 27.0979 419.191C31.9835 418.219 37.0476 418.718 41.6497 420.625C46.2518 422.531 50.1851 425.759 52.9524 429.901C55.7196 434.044 57.1963 438.913 57.1959 443.894C57.1965 447.202 56.5455 450.477 55.2802 453.532C54.0148 456.588 52.1599 459.364 49.8213 461.703C47.4827 464.041 44.7064 465.896 41.6508 467.162C38.5952 468.427 35.3202 469.078 32.013 469.077V469.077ZM39.7955 455.931L29.1039 448.153C28.9129 448.012 28.7576 447.828 28.6504 447.616C28.5432 447.404 28.4872 447.17 28.4868 446.932V426.266C28.4874 425.865 28.6466 425.481 28.9295 425.198C29.2125 424.915 29.5962 424.755 29.9967 424.754H34.027C34.4275 424.755 34.8112 424.915 35.0941 425.198C35.3771 425.481 35.5363 425.865 35.5369 426.266V444.107L43.9568 450.228C44.1177 450.345 44.2538 450.493 44.3574 450.663C44.461 450.833 44.53 451.021 44.5605 451.218C44.591 451.414 44.5823 451.615 44.5349 451.808C44.4876 452.002 44.4025 452.184 44.2846 452.344L41.9089 455.612C41.6706 455.935 41.3147 456.15 40.9185 456.211C40.5223 456.273 40.1179 456.175 39.7932 455.94L39.7955 455.931Z" fill="#0355D1"/>
<path d="M32.0107 302.665H32.0111C35.7184 302.665 39.3894 303.394 42.8146 304.813C46.2397 306.231 49.3519 308.311 51.9733 310.932C54.5947 313.553 56.674 316.666 58.0924 320.091C59.5109 323.516 60.2407 327.187 60.2402 330.894V330.894C60.2402 336.478 58.5846 341.936 55.4827 346.578C52.3808 351.22 47.9719 354.838 42.8137 356.975C37.6554 359.112 31.9794 359.671 26.5034 358.582C21.0274 357.492 15.9974 354.804 12.0495 350.856C8.10152 346.908 5.41293 341.878 4.32369 336.402C3.23445 330.926 3.79348 325.25 5.9301 320.092C8.06673 314.933 11.685 310.524 16.3273 307.423C20.9696 304.321 26.4275 302.665 32.0107 302.665Z" fill="white" stroke="#27C100" stroke-width="6"/>
<path d="M32.013 299.665C25.8363 299.665 19.7982 301.496 14.6622 304.927C9.52625 308.358 5.52314 313.236 3.15911 318.942C0.795082 324.648 0.176314 330.928 1.38105 336.986C2.58579 343.044 5.55993 348.608 9.92736 352.976C14.2948 357.344 19.8593 360.319 25.9173 361.524C31.9753 362.729 38.2546 362.111 43.9612 359.747C49.6677 357.383 54.5452 353.381 57.9769 348.245C61.4085 343.109 63.2402 337.071 63.2402 330.894C63.241 326.793 62.434 322.732 60.865 318.943C59.296 315.154 56.9959 311.711 54.096 308.811C51.1962 305.911 47.7534 303.61 43.9643 302.041C40.1752 300.472 36.1141 299.664 32.013 299.665V299.665ZM32.013 356.077C27.0316 356.078 22.162 354.601 18.02 351.834C13.878 349.067 10.6496 345.133 8.74307 340.531C6.83658 335.929 6.33764 330.865 7.30934 325.979C8.28105 321.094 10.6797 316.606 14.2021 313.084C17.7244 309.561 22.2122 307.163 27.0979 306.191C31.9835 305.219 37.0476 305.718 41.6497 307.625C46.2518 309.531 50.1851 312.759 52.9524 316.901C55.7196 321.044 57.1963 325.913 57.1959 330.894C57.1965 334.202 56.5455 337.477 55.2802 340.532C54.0148 343.588 52.1599 346.364 49.8213 348.703C47.4827 351.041 44.7064 352.896 41.6508 354.162C38.5952 355.427 35.3202 356.078 32.013 356.077V356.077ZM39.7955 342.931L29.1039 335.153C28.9129 335.012 28.7576 334.828 28.6504 334.616C28.5432 334.404 28.4872 334.17 28.4868 333.932V313.266C28.4874 312.865 28.6466 312.481 28.9295 312.198C29.2125 311.915 29.5962 311.755 29.9967 311.754H34.027C34.4275 311.755 34.8112 311.915 35.0941 312.198C35.3771 312.481 35.5363 312.865 35.5369 313.266V331.107L43.9568 337.228C44.1177 337.345 44.2538 337.493 44.3574 337.663C44.461 337.833 44.53 338.021 44.5605 338.218C44.591 338.414 44.5823 338.615 44.5349 338.808C44.4876 339.002 44.4025 339.184 44.2846 339.344L41.9089 342.612C41.6706 342.935 41.3147 343.15 40.9185 343.211C40.5223 343.273 40.1179 343.175 39.7932 342.94L39.7955 342.931Z" fill="#0355D1"/>
<path d="M32.0107 166.665H32.0111C35.7184 166.665 39.3894 167.394 42.8146 168.813C46.2397 170.231 49.3519 172.311 51.9733 174.932C54.5947 177.553 56.674 180.666 58.0924 184.091C59.5109 187.516 60.2407 191.187 60.2402 194.894V194.894C60.2402 200.478 58.5846 205.936 55.4827 210.578C52.3808 215.22 47.9719 218.838 42.8137 220.975C37.6554 223.112 31.9794 223.671 26.5034 222.582C21.0274 221.492 15.9974 218.804 12.0495 214.856C8.10152 210.908 5.41293 205.878 4.32369 200.402C3.23445 194.926 3.79348 189.25 5.9301 184.092C8.06673 178.933 11.685 174.524 16.3273 171.423C20.9696 168.321 26.4275 166.665 32.0107 166.665Z" fill="white" stroke="#0355D1" stroke-width="6"/>
<g clip-path="url(#clip0)">
<path d="M44.0312 175.665H19.5312C18.5647 175.665 17.7812 176.463 17.7812 177.446V178.634C17.7812 179.618 18.5647 180.415 19.5312 180.415C19.5312 187.166 23.2512 192.864 28.3426 194.665C23.2512 196.466 19.5312 202.164 19.5312 208.915C18.5647 208.915 17.7812 209.713 17.7812 210.696V211.884C17.7812 212.868 18.5647 213.665 19.5312 213.665H44.0312C44.9978 213.665 45.7812 212.868 45.7812 211.884V210.696C45.7812 209.713 44.9978 208.915 44.0312 208.915C44.0312 202.164 40.3113 196.466 35.2199 194.665C40.3113 192.864 44.0312 187.166 44.0312 180.415C44.9978 180.415 45.7812 179.618 45.7812 178.634V177.446C45.7812 176.463 44.9978 175.665 44.0312 175.665ZM38.5568 204.165H25.0058C26.2497 200.692 28.8045 198.228 31.7812 198.228C34.7578 198.228 37.3129 200.691 38.5568 204.165ZM38.5582 185.165H25.0057C24.4887 183.721 24.1979 182.103 24.1979 180.415H39.3646C39.3646 182.108 39.0739 183.724 38.5582 185.165V185.165Z" fill="#0355D1"/>
</g>
<path d="M32.013 27.665C25.8363 27.6646 19.7982 29.4958 14.6622 32.9271C9.52625 36.3583 5.52314 41.2355 3.15911 46.9419C0.795082 52.6483 0.176314 58.9276 1.38105 64.9857C2.58579 71.0437 5.55993 76.6085 9.92736 80.9762C14.2948 85.344 19.8593 88.3185 25.9173 89.5237C31.9753 90.7289 38.2546 90.1106 43.9612 87.7469C49.6677 85.3833 54.5452 81.3806 57.9769 76.2449C61.4085 71.1092 63.2402 65.0712 63.2402 58.8945C63.241 54.7933 62.434 50.7321 60.865 46.943C59.296 43.1538 56.9959 39.7108 54.096 36.8107C51.1962 33.9107 47.7534 31.6103 43.9643 30.0411C40.1752 28.4718 36.1141 27.6644 32.013 27.665V27.665ZM32.013 84.0774C27.0316 84.0779 22.162 82.6011 18.02 79.8339C13.878 77.0667 10.6496 73.1333 8.74307 68.5312C6.83658 63.9291 6.33764 58.8651 7.30934 53.9794C8.28105 49.0937 10.6797 44.606 14.2021 41.0836C17.7244 37.5613 22.2122 35.1626 27.0979 34.1909C31.9835 33.2192 37.0476 33.7181 41.6497 35.6246C46.2518 37.5311 50.1851 40.7595 52.9524 44.9015C55.7196 49.0435 57.1963 53.9131 57.1959 58.8945C57.1965 62.2017 56.5455 65.4767 55.2802 68.5323C54.0148 71.5879 52.1599 74.3643 49.8213 76.7028C47.4827 79.0414 44.7064 80.8963 41.6508 82.1617C38.5952 83.427 35.3202 84.078 32.013 84.0774V84.0774ZM39.7955 70.931L29.1039 63.153C28.9129 63.0119 28.7576 62.828 28.6504 62.616C28.5432 62.404 28.4872 62.1699 28.4868 61.9324V41.2658C28.4874 40.8653 28.6466 40.4813 28.9295 40.1979C29.2125 39.9145 29.5962 39.7548 29.9967 39.7536H34.027C34.4275 39.7548 34.8112 39.9145 35.0941 40.1979C35.3771 40.4813 35.5363 40.8653 35.5369 41.2658V59.107L43.9568 65.2281C44.1177 65.3451 44.2538 65.4928 44.3574 65.6627C44.461 65.8325 44.53 66.0212 44.5605 66.2178C44.591 66.4144 44.5823 66.6151 44.5349 66.8083C44.4876 67.0016 44.4025 67.1835 44.2846 67.3438L41.9089 70.6123C41.6706 70.9347 41.3147 71.15 40.9185 71.2114C40.5223 71.2728 40.1179 71.1753 39.7932 70.9401L39.7955 70.931Z" fill="#0355D1"/>
<path d="M32.0107 30.665H32.0111C35.7184 30.6645 39.3894 31.3943 42.8146 32.8128C46.2397 34.2312 49.3519 36.3105 51.9733 38.932C54.5947 41.5534 56.674 44.6655 58.0924 48.0907C59.5109 51.5158 60.2407 55.1868 60.2402 58.8941V58.8945C60.2402 64.4778 58.5846 69.9356 55.4827 74.5779C52.3808 79.2203 47.9719 82.8385 42.8137 84.9751C37.6554 87.1117 31.9794 87.6708 26.5034 86.5815C21.0274 85.4923 15.9974 82.8037 12.0495 78.8557C8.10152 74.9078 5.41293 69.8778 4.32369 64.4018C3.23445 58.9258 3.79348 53.2498 5.9301 48.0916C8.06673 42.9333 11.685 38.5245 16.3273 35.4226C20.9696 32.3207 26.4275 30.665 32.0107 30.665Z" fill="white" stroke="#27C100" stroke-width="6"/>
<path d="M25.9779 72.0406L14.5701 60.992C14.4067 60.8341 14.2771 60.6464 14.1886 60.4399C14.1002 60.2333 14.0547 60.0119 14.0547 59.7883C14.0547 59.5647 14.1002 59.3433 14.1886 59.1368C14.2771 58.9302 14.4067 58.7426 14.5701 58.5846L17.0468 56.183C17.2099 56.0248 17.4036 55.8992 17.6169 55.8136C17.8302 55.7279 18.0588 55.6838 18.2897 55.6838C18.5205 55.6838 18.7491 55.7279 18.9624 55.8136C19.1757 55.8992 19.3694 56.0248 19.5325 56.183L27.2238 63.6321L43.6961 47.664C43.8592 47.5057 44.053 47.3802 44.2662 47.2945C44.4795 47.2089 44.7081 47.1648 44.939 47.1648C45.1698 47.1648 45.3984 47.2089 45.6117 47.2945C45.825 47.3802 46.0187 47.5057 46.1818 47.664L48.6645 50.0714C48.8279 50.2294 48.9575 50.417 49.046 50.6236C49.1344 50.8301 49.1799 51.0515 49.1799 51.2751C49.1799 51.4987 49.1344 51.7201 49.046 51.9267C48.9575 52.1332 48.8279 52.3209 48.6645 52.4788L28.4546 72.0406C28.2915 72.1989 28.0978 72.3244 27.8845 72.4101C27.6713 72.4957 27.4427 72.5398 27.2118 72.5398C26.9809 72.5398 26.7523 72.4957 26.539 72.4101C26.3258 72.3244 26.132 72.1989 25.9689 72.0406H25.9779Z" fill="#27C100"/>
<defs>
<clipPath id="clip0">
<rect x="17.7812" y="175.665" width="28" height="38" fill="white"/>
</clipPath>
</defs>
</svg>
