<svg width="63" height="879" viewBox="0 0 63 879" fill="none" xmlns="http://www.w3.org/2000/svg">
<path d="M31.3067 0.665039L31.3067 672.665" stroke="#27C100" stroke-width="5.9146"/>
<path d="M31.3066 716.665L31.3066 878.665" stroke="#0355D1" stroke-width="5.9146"/>
<path d="M31.5361 798.665H31.5365C35.2438 798.665 38.9148 799.394 42.3399 800.813C45.7651 802.231 48.8772 804.311 51.4987 806.932C54.1201 809.553 56.1994 812.666 57.6178 816.091C59.0363 819.516 59.7661 823.187 59.7656 826.894V826.894C59.7656 832.478 58.1099 837.936 55.008 842.578C51.9062 847.22 47.4973 850.838 42.3391 852.975C37.1808 855.112 31.5048 855.671 26.0288 854.582C20.5528 853.492 15.5228 850.804 11.5749 846.856C7.62691 842.908 4.93832 837.878 3.84908 832.402C2.75984 826.926 3.31887 821.25 5.45549 816.092C7.59212 810.933 11.2104 806.524 15.8527 803.423C20.495 800.321 25.9529 798.665 31.5361 798.665Z" fill="white" stroke="#27C100" stroke-width="6"/>
<path d="M31.5384 795.665C25.3617 795.665 19.3235 797.496 14.1876 800.927C9.05164 804.358 5.04853 809.236 2.6845 814.942C0.320473 820.648 -0.298295 826.928 0.906444 832.986C2.11118 839.044 5.08532 844.608 9.45275 848.976C13.8202 853.344 19.3847 856.319 25.4427 857.524C31.5007 858.729 37.78 858.111 43.4866 855.747C49.1931 853.383 54.0706 849.381 57.5023 844.245C60.9339 839.109 62.7655 833.071 62.7655 826.894C62.7664 822.793 61.9593 818.732 60.3904 814.943C58.8214 811.154 56.5213 807.711 53.6214 804.811C50.7216 801.911 47.2788 799.61 43.4897 798.041C39.7006 796.472 35.6395 795.664 31.5384 795.665V795.665ZM31.5384 852.077C26.557 852.078 21.6874 850.601 17.5454 847.834C13.4033 845.067 10.1749 841.133 8.26846 836.531C6.36197 831.929 5.86303 826.865 6.83473 821.979C7.80644 817.094 10.2051 812.606 13.7275 809.084C17.2498 805.561 21.7376 803.163 26.6233 802.191C31.5089 801.219 36.573 801.718 41.1751 803.625C45.7772 805.531 49.7105 808.759 52.4777 812.901C55.245 817.044 56.7217 821.913 56.7213 826.894C56.7219 830.202 56.0709 833.477 54.8056 836.532C53.5402 839.588 51.6853 842.364 49.3467 844.703C47.0081 847.041 44.2317 848.896 41.1761 850.162C38.1205 851.427 34.8456 852.078 31.5384 852.077V852.077ZM39.3209 838.931L28.6292 831.153C28.4382 831.012 28.2829 830.828 28.1758 830.616C28.0686 830.404 28.0126 830.17 28.0122 829.932V809.266C28.0128 808.865 28.172 808.481 28.4549 808.198C28.7379 807.915 29.1216 807.755 29.5221 807.754H33.5524C33.9528 807.755 34.3366 807.915 34.6195 808.198C34.9025 808.481 35.0617 808.865 35.0623 809.266V827.107L43.4822 833.228C43.6431 833.345 43.7792 833.493 43.8828 833.663C43.9864 833.833 44.0554 834.021 44.0859 834.218C44.1164 834.414 44.1077 834.615 44.0603 834.808C44.013 835.002 43.9279 835.184 43.81 835.344L41.4343 838.612C41.196 838.935 40.8401 839.15 40.4439 839.211C40.0477 839.273 39.6433 839.175 39.3186 838.94L39.3209 838.931Z" fill="#0355D1"/>
<path d="M31.5361 657.665H31.5365C35.2438 657.665 38.9148 658.394 42.3399 659.813C45.7651 661.231 48.8772 663.311 51.4987 665.932C54.1201 668.553 56.1994 671.666 57.6178 675.091C59.0363 678.516 59.7661 682.187 59.7656 685.894V685.894C59.7656 691.478 58.1099 696.936 55.008 701.578C51.9062 706.22 47.4973 709.838 42.3391 711.975C37.1808 714.112 31.5048 714.671 26.0288 713.582C20.5528 712.492 15.5228 709.804 11.5749 705.856C7.62691 701.908 4.93832 696.878 3.84908 691.402C2.75984 685.926 3.31887 680.25 5.45549 675.092C7.59212 669.933 11.2104 665.524 15.8527 662.423C20.495 659.321 25.9529 657.665 31.5361 657.665Z" fill="white" stroke="#0355D1" stroke-width="6"/>
<g clip-path="url(#clip0)">
<path d="M43.5566 666.665H19.0566C18.0901 666.665 17.3066 667.463 17.3066 668.446V669.634C17.3066 670.618 18.0901 671.415 19.0566 671.415C19.0566 678.166 22.7766 683.864 27.868 685.665C22.7766 687.466 19.0566 693.164 19.0566 699.915C18.0901 699.915 17.3066 700.713 17.3066 701.696V702.884C17.3066 703.868 18.0901 704.665 19.0566 704.665H43.5566C44.5232 704.665 45.3066 703.868 45.3066 702.884V701.696C45.3066 700.713 44.5232 699.915 43.5566 699.915C43.5566 693.164 39.8367 687.466 34.7452 685.665C39.8367 683.864 43.5566 678.166 43.5566 671.415C44.5232 671.415 45.3066 670.618 45.3066 669.634V668.446C45.3066 667.463 44.5232 666.665 43.5566 666.665ZM38.0822 695.165H24.5312C25.7751 691.692 28.3299 689.228 31.3066 689.228C34.2832 689.228 36.8382 691.691 38.0822 695.165ZM38.0836 676.165H24.5311C24.0141 674.721 23.7233 673.103 23.7233 671.415H38.89C38.89 673.108 38.5993 674.724 38.0836 676.165V676.165Z" fill="#0355D1"/>
</g>
<path d="M31.5361 518.665H31.5365C35.2438 518.665 38.9148 519.394 42.3399 520.813C45.7651 522.231 48.8772 524.311 51.4987 526.932C54.1201 529.553 56.1994 532.666 57.6178 536.091C59.0363 539.516 59.7661 543.187 59.7656 546.894V546.894C59.7656 552.478 58.1099 557.936 55.008 562.578C51.9062 567.22 47.4973 570.838 42.3391 572.975C37.1808 575.112 31.5048 575.671 26.0288 574.582C20.5528 573.492 15.5228 570.804 11.5749 566.856C7.62691 562.908 4.93832 557.878 3.84908 552.402C2.75984 546.926 3.31887 541.25 5.45549 536.092C7.59212 530.933 11.2104 526.524 15.8527 523.423C20.495 520.321 25.9529 518.665 31.5361 518.665Z" fill="white" stroke="#27C100" stroke-width="6"/>
<path d="M25.5033 560.06L14.0955 549.012C13.9321 548.854 13.8025 548.666 13.714 548.46C13.6256 548.253 13.5801 548.032 13.5801 547.808C13.5801 547.585 13.6256 547.363 13.714 547.157C13.8025 546.95 13.9321 546.762 14.0955 546.604L16.5722 544.203C16.7353 544.045 16.929 543.919 17.1423 543.833C17.3556 543.748 17.5842 543.704 17.815 543.704C18.0459 543.704 18.2745 543.748 18.4878 543.833C18.7011 543.919 18.8948 544.045 19.0579 544.203L26.7492 551.652L43.2215 535.684C43.3846 535.526 43.5783 535.4 43.7916 535.314C44.0049 535.229 44.2335 535.185 44.4644 535.185C44.6952 535.185 44.9238 535.229 45.1371 535.314C45.3504 535.4 45.5441 535.526 45.7072 535.684L48.1899 538.091C48.3533 538.249 48.4829 538.437 48.5714 538.643C48.6598 538.85 48.7053 539.071 48.7053 539.295C48.7053 539.519 48.6598 539.74 48.5714 539.946C48.4829 540.153 48.3533 540.341 48.1899 540.499L27.98 560.06C27.8169 560.219 27.6232 560.344 27.4099 560.43C27.1967 560.515 26.968 560.56 26.7372 560.56C26.5063 560.56 26.2777 560.515 26.0644 560.43C25.8512 560.344 25.6574 560.219 25.4943 560.06H25.5033Z" fill="#27C100"/>
<path d="M31.5361 405.665H31.5365C35.2438 405.665 38.9148 406.394 42.3399 407.813C45.7651 409.231 48.8772 411.311 51.4987 413.932C54.1201 416.553 56.1994 419.666 57.6178 423.091C59.0363 426.516 59.7661 430.187 59.7656 433.894V433.894C59.7656 439.478 58.1099 444.936 55.008 449.578C51.9062 454.22 47.4973 457.838 42.3391 459.975C37.1808 462.112 31.5048 462.671 26.0288 461.582C20.5528 460.492 15.5228 457.804 11.5749 453.856C7.62691 449.908 4.93832 444.878 3.84908 439.402C2.75984 433.926 3.31887 428.25 5.45549 423.092C7.59212 417.933 11.2104 413.524 15.8527 410.423C20.495 407.321 25.9529 405.665 31.5361 405.665Z" fill="white" stroke="#27C100" stroke-width="6"/>
<path d="M25.5033 447.06L14.0955 436.012C13.9321 435.854 13.8025 435.666 13.714 435.46C13.6256 435.253 13.5801 435.032 13.5801 434.808C13.5801 434.585 13.6256 434.363 13.714 434.157C13.8025 433.95 13.9321 433.762 14.0955 433.604L16.5722 431.203C16.7353 431.045 16.929 430.919 17.1423 430.833C17.3556 430.748 17.5842 430.704 17.815 430.704C18.0459 430.704 18.2745 430.748 18.4878 430.833C18.7011 430.919 18.8948 431.045 19.0579 431.203L26.7492 438.652L43.2215 422.684C43.3846 422.526 43.5783 422.4 43.7916 422.314C44.0049 422.229 44.2335 422.185 44.4644 422.185C44.6952 422.185 44.9238 422.229 45.1371 422.314C45.3504 422.4 45.5441 422.526 45.7072 422.684L48.1899 425.091C48.3533 425.249 48.4829 425.437 48.5714 425.643C48.6598 425.85 48.7053 426.071 48.7053 426.295C48.7053 426.519 48.6598 426.74 48.5714 426.946C48.4829 427.153 48.3533 427.341 48.1899 427.499L27.98 447.06C27.8169 447.219 27.6232 447.344 27.4099 447.43C27.1967 447.515 26.968 447.56 26.7372 447.56C26.5063 447.56 26.2777 447.515 26.0644 447.43C25.8512 447.344 25.6574 447.219 25.4943 447.06H25.5033Z" fill="#27C100"/>
<path d="M31.5361 292.665H31.5365C35.2438 292.665 38.9148 293.394 42.3399 294.813C45.7651 296.231 48.8772 298.311 51.4987 300.932C54.1201 303.553 56.1994 306.666 57.6178 310.091C59.0363 313.516 59.7661 317.187 59.7656 320.894V320.894C59.7656 326.478 58.1099 331.936 55.008 336.578C51.9062 341.22 47.4973 344.838 42.3391 346.975C37.1808 349.112 31.5048 349.671 26.0288 348.582C20.5528 347.492 15.5228 344.804 11.5749 340.856C7.62691 336.908 4.93832 331.878 3.84908 326.402C2.75984 320.926 3.31887 315.25 5.45549 310.092C7.59212 304.933 11.2104 300.524 15.8527 297.423C20.495 294.321 25.9529 292.665 31.5361 292.665Z" fill="white" stroke="#27C100" stroke-width="6"/>
<path d="M25.5033 334.06L14.0955 323.012C13.9321 322.854 13.8025 322.666 13.714 322.46C13.6256 322.253 13.5801 322.032 13.5801 321.808C13.5801 321.585 13.6256 321.363 13.714 321.157C13.8025 320.95 13.9321 320.762 14.0955 320.604L16.5722 318.203C16.7353 318.045 16.929 317.919 17.1423 317.833C17.3556 317.748 17.5842 317.704 17.815 317.704C18.0459 317.704 18.2745 317.748 18.4878 317.833C18.7011 317.919 18.8948 318.045 19.0579 318.203L26.7492 325.652L43.2215 309.684C43.3846 309.526 43.5783 309.4 43.7916 309.314C44.0049 309.229 44.2335 309.185 44.4644 309.185C44.6952 309.185 44.9238 309.229 45.1371 309.314C45.3504 309.4 45.5441 309.526 45.7072 309.684L48.1899 312.091C48.3533 312.249 48.4829 312.437 48.5714 312.643C48.6598 312.85 48.7053 313.071 48.7053 313.295C48.7053 313.519 48.6598 313.74 48.5714 313.946C48.4829 314.153 48.3533 314.341 48.1899 314.499L27.98 334.06C27.8169 334.219 27.6232 334.344 27.4099 334.43C27.1967 334.515 26.968 334.56 26.7372 334.56C26.5063 334.56 26.2777 334.515 26.0644 334.43C25.8512 334.344 25.6574 334.219 25.4943 334.06H25.5033Z" fill="#27C100"/>
<path d="M31.5361 156.665H31.5365C35.2438 156.665 38.9148 157.394 42.3399 158.813C45.7651 160.231 48.8772 162.311 51.4987 164.932C54.1201 167.553 56.1994 170.666 57.6178 174.091C59.0363 177.516 59.7661 181.187 59.7656 184.894V184.894C59.7656 190.478 58.1099 195.936 55.008 200.578C51.9062 205.22 47.4973 208.838 42.3391 210.975C37.1808 213.112 31.5048 213.671 26.0288 212.582C20.5528 211.492 15.5228 208.804 11.5749 204.856C7.62691 200.908 4.93832 195.878 3.84908 190.402C2.75984 184.926 3.31887 179.25 5.45549 174.092C7.59212 168.933 11.2104 164.524 15.8527 161.423C20.495 158.321 25.9529 156.665 31.5361 156.665Z" fill="white" stroke="#27C100" stroke-width="6"/>
<path d="M25.5033 198.06L14.0955 187.012C13.9321 186.854 13.8025 186.666 13.714 186.46C13.6256 186.253 13.5801 186.032 13.5801 185.808C13.5801 185.585 13.6256 185.363 13.714 185.157C13.8025 184.95 13.9321 184.762 14.0955 184.604L16.5722 182.203C16.7353 182.045 16.929 181.919 17.1423 181.833C17.3556 181.748 17.5842 181.704 17.815 181.704C18.0459 181.704 18.2745 181.748 18.4878 181.833C18.7011 181.919 18.8948 182.045 19.0579 182.203L26.7492 189.652L43.2215 173.684C43.3846 173.526 43.5783 173.4 43.7916 173.314C44.0049 173.229 44.2335 173.185 44.4644 173.185C44.6952 173.185 44.9238 173.229 45.1371 173.314C45.3504 173.4 45.5441 173.526 45.7072 173.684L48.1899 176.091C48.3533 176.249 48.4829 176.437 48.5714 176.643C48.6598 176.85 48.7053 177.071 48.7053 177.295C48.7053 177.519 48.6598 177.74 48.5714 177.946C48.4829 178.153 48.3533 178.341 48.1899 178.499L27.98 198.06C27.8169 198.219 27.6232 198.344 27.4099 198.43C27.1967 198.515 26.968 198.56 26.7372 198.56C26.5063 198.56 26.2777 198.515 26.0644 198.43C25.8512 198.344 25.6574 198.219 25.4943 198.06H25.5033Z" fill="#27C100"/>
<path d="M31.5384 17.665C25.3617 17.6646 19.3235 19.4958 14.1876 22.9271C9.05164 26.3583 5.04853 31.2355 2.6845 36.9419C0.320473 42.6483 -0.298295 48.9276 0.906444 54.9857C2.11118 61.0437 5.08532 66.6085 9.45275 70.9762C13.8202 75.344 19.3847 78.3185 25.4427 79.5237C31.5007 80.7289 37.78 80.1106 43.4866 77.7469C49.1931 75.3833 54.0706 71.3806 57.5023 66.2449C60.9339 61.1092 62.7655 55.0712 62.7655 48.8945C62.7664 44.7933 61.9593 40.7321 60.3904 36.943C58.8214 33.1538 56.5213 29.7108 53.6214 26.8107C50.7216 23.9107 47.2788 21.6103 43.4897 20.0411C39.7006 18.4718 35.6395 17.6644 31.5384 17.665V17.665ZM31.5384 74.0774C26.557 74.0779 21.6874 72.6011 17.5454 69.8339C13.4033 67.0667 10.1749 63.1333 8.26846 58.5312C6.36197 53.9291 5.86303 48.8651 6.83473 43.9794C7.80644 39.0937 10.2051 34.606 13.7275 31.0836C17.2498 27.5613 21.7376 25.1626 26.6233 24.1909C31.5089 23.2192 36.573 23.7181 41.1751 25.6246C45.7772 27.5311 49.7105 30.7595 52.4777 34.9015C55.245 39.0435 56.7217 43.9131 56.7213 48.8945C56.7219 52.2017 56.0709 55.4767 54.8056 58.5323C53.5402 61.5879 51.6853 64.3643 49.3467 66.7028C47.0081 69.0414 44.2317 70.8963 41.1761 72.1617C38.1205 73.427 34.8456 74.078 31.5384 74.0774V74.0774ZM39.3209 60.931L28.6292 53.153C28.4382 53.0119 28.2829 52.828 28.1758 52.616C28.0686 52.404 28.0126 52.1699 28.0122 51.9324V31.2658C28.0128 30.8653 28.172 30.4813 28.4549 30.1979C28.7379 29.9145 29.1216 29.7548 29.5221 29.7536H33.5524C33.9528 29.7548 34.3366 29.9145 34.6195 30.1979C34.9025 30.4813 35.0617 30.8653 35.0623 31.2658V49.107L43.4822 55.2281C43.6431 55.3451 43.7792 55.4928 43.8828 55.6627C43.9864 55.8325 44.0554 56.0212 44.0859 56.2178C44.1164 56.4144 44.1077 56.6151 44.0603 56.8083C44.013 57.0016 43.9279 57.1835 43.81 57.3438L41.4343 60.6123C41.196 60.9347 40.8401 61.15 40.4439 61.2114C40.0477 61.2728 39.6433 61.1753 39.3186 60.9401L39.3209 60.931Z" fill="#0355D1"/>
<path d="M31.5361 20.665H31.5365C35.2438 20.6645 38.9148 21.3943 42.3399 22.8128C45.7651 24.2312 48.8772 26.3105 51.4987 28.932C54.1201 31.5534 56.1994 34.6655 57.6178 38.0907C59.0363 41.5158 59.7661 45.1868 59.7656 48.8941V48.8945C59.7656 54.4778 58.1099 59.9356 55.008 64.5779C51.9062 69.2203 47.4973 72.8385 42.3391 74.9751C37.1808 77.1117 31.5048 77.6708 26.0288 76.5815C20.5528 75.4923 15.5228 72.8037 11.5749 68.8557C7.62691 64.9078 4.93832 59.8778 3.84908 54.4018C2.75984 48.9258 3.31887 43.2498 5.45549 38.0916C7.59212 32.9333 11.2104 28.5245 15.8527 25.4226C20.495 22.3207 25.9529 20.665 31.5361 20.665Z" fill="white" stroke="#27C100" stroke-width="6"/>
<path d="M25.5033 62.0406L14.0955 50.992C13.9321 50.8341 13.8025 50.6464 13.714 50.4399C13.6256 50.2333 13.5801 50.0119 13.5801 49.7883C13.5801 49.5647 13.6256 49.3433 13.714 49.1368C13.8025 48.9302 13.9321 48.7426 14.0955 48.5846L16.5722 46.183C16.7353 46.0248 16.929 45.8992 17.1423 45.8136C17.3556 45.7279 17.5842 45.6838 17.815 45.6838C18.0459 45.6838 18.2745 45.7279 18.4878 45.8136C18.7011 45.8992 18.8948 46.0248 19.0579 46.183L26.7492 53.6321L43.2215 37.664C43.3846 37.5057 43.5783 37.3802 43.7916 37.2945C44.0049 37.2089 44.2335 37.1648 44.4644 37.1648C44.6952 37.1648 44.9238 37.2089 45.1371 37.2945C45.3504 37.3802 45.5441 37.5057 45.7072 37.664L48.1899 40.0714C48.3533 40.2294 48.4829 40.417 48.5714 40.6236C48.6598 40.8301 48.7053 41.0515 48.7053 41.2751C48.7053 41.4987 48.6598 41.7201 48.5714 41.9267C48.4829 42.1332 48.3533 42.3209 48.1899 42.4788L27.98 62.0406C27.8169 62.1989 27.6232 62.3244 27.4099 62.4101C27.1967 62.4957 26.968 62.5398 26.7372 62.5398C26.5063 62.5398 26.2777 62.4957 26.0644 62.4101C25.8512 62.3244 25.6574 62.1989 25.4943 62.0406H25.5033Z" fill="#27C100"/>
<defs>
<clipPath id="clip0">
<rect x="17.3066" y="666.665" width="28" height="38" fill="white"/>
</clipPath>
</defs>
</svg>
