<svg width="63" height="888" viewBox="0 0 63 888" fill="none" xmlns="http://www.w3.org/2000/svg">
<path d="M31.4277 0.665039L31.4277 303.665" stroke="#27C100" stroke-width="5.9146"/>
<path d="M31.4278 330.665L31.4278 887.665" stroke="#0355D1" stroke-width="5.9146"/>
<path d="M31.6572 807.665H31.6576C35.3649 807.665 39.0359 808.394 42.461 809.813C45.8862 811.231 48.9983 813.311 51.6198 815.932C54.2412 818.553 56.3205 821.666 57.7389 825.091C59.1574 828.516 59.8872 832.187 59.8867 835.894V835.894C59.8867 841.478 58.231 846.936 55.1291 851.578C52.0273 856.22 47.6184 859.838 42.4602 861.975C37.3019 864.112 31.6259 864.671 26.1499 863.582C20.6739 862.492 15.6439 859.804 11.696 855.856C7.748 851.908 5.05941 846.878 3.97017 841.402C2.88093 835.926 3.43997 830.25 5.57659 825.092C7.71321 819.933 11.3314 815.524 15.9738 812.423C20.6161 809.321 26.0739 807.665 31.6572 807.665Z" fill="white" stroke="#27C100" stroke-width="6"/>
<path d="M31.6595 804.665C25.4828 804.665 19.4446 806.496 14.3087 809.927C9.17273 813.358 5.16963 818.236 2.8056 823.942C0.441567 829.648 -0.177202 835.928 1.02754 841.986C2.23228 848.044 5.20642 853.608 9.57384 857.976C13.9413 862.344 19.5058 865.319 25.5638 866.524C31.6218 867.729 37.9011 867.111 43.6077 864.747C49.3142 862.383 54.1917 858.381 57.6234 853.245C61.055 848.109 62.8866 842.071 62.8866 835.894C62.8875 831.793 62.0804 827.732 60.5115 823.943C58.9425 820.154 56.6424 816.711 53.7425 813.811C50.8427 810.911 47.3999 808.61 43.6108 807.041C39.8217 805.472 35.7606 804.664 31.6595 804.665V804.665ZM31.6595 861.077C26.6781 861.078 21.8085 859.601 17.6665 856.834C13.5244 854.067 10.296 850.133 8.38955 845.531C6.48307 840.929 5.98412 835.865 6.95583 830.979C7.92753 826.094 10.3262 821.606 13.8486 818.084C17.3709 814.561 21.8587 812.163 26.7444 811.191C31.63 810.219 36.6941 810.718 41.2962 812.625C45.8983 814.531 49.8316 817.759 52.5988 821.901C55.3661 826.044 56.8428 830.913 56.8424 835.894C56.843 839.202 56.192 842.477 54.9266 845.532C53.6613 848.588 51.8064 851.364 49.4678 853.703C47.1292 856.041 44.3528 857.896 41.2972 859.162C38.2416 860.427 34.9667 861.078 31.6595 861.077V861.077ZM39.4419 847.931L28.7503 840.153C28.5593 840.012 28.404 839.828 28.2969 839.616C28.1897 839.404 28.1337 839.17 28.1333 838.932V818.266C28.1339 817.865 28.2931 817.481 28.576 817.198C28.859 816.915 29.2427 816.755 29.6432 816.754H33.6735C34.0739 816.755 34.4576 816.915 34.7406 817.198C35.0236 817.481 35.1828 817.865 35.1834 818.266V836.107L43.6033 842.228C43.7642 842.345 43.9003 842.493 44.0039 842.663C44.1075 842.833 44.1765 843.021 44.207 843.218C44.2374 843.414 44.2287 843.615 44.1814 843.808C44.134 844.002 44.049 844.184 43.9311 844.344L41.5554 847.612C41.3171 847.935 40.9612 848.15 40.565 848.211C40.1688 848.273 39.7644 848.175 39.4397 847.94L39.4419 847.931Z" fill="#0355D1"/>
<path d="M31.6572 666.665H31.6576C35.3649 666.665 39.0359 667.394 42.461 668.813C45.8862 670.231 48.9983 672.311 51.6198 674.932C54.2412 677.553 56.3205 680.666 57.7389 684.091C59.1574 687.516 59.8872 691.187 59.8867 694.894V694.894C59.8867 700.478 58.231 705.936 55.1291 710.578C52.0273 715.22 47.6184 718.838 42.4602 720.975C37.3019 723.112 31.6259 723.671 26.1499 722.582C20.6739 721.492 15.6439 718.804 11.696 714.856C7.748 710.908 5.05941 705.878 3.97017 700.402C2.88093 694.926 3.43997 689.25 5.57659 684.092C7.71321 678.933 11.3314 674.524 15.9738 671.423C20.6161 668.321 26.0739 666.665 31.6572 666.665Z" fill="white" stroke="#27C100" stroke-width="6"/>
<path d="M31.6595 663.665C25.4828 663.665 19.4446 665.496 14.3087 668.927C9.17273 672.358 5.16963 677.236 2.8056 682.942C0.441567 688.648 -0.177202 694.928 1.02754 700.986C2.23228 707.044 5.20642 712.608 9.57384 716.976C13.9413 721.344 19.5058 724.319 25.5638 725.524C31.6218 726.729 37.9011 726.111 43.6077 723.747C49.3142 721.383 54.1917 717.381 57.6234 712.245C61.055 707.109 62.8866 701.071 62.8866 694.894C62.8875 690.793 62.0804 686.732 60.5115 682.943C58.9425 679.154 56.6424 675.711 53.7425 672.811C50.8427 669.911 47.3999 667.61 43.6108 666.041C39.8217 664.472 35.7606 663.664 31.6595 663.665V663.665ZM31.6595 720.077C26.6781 720.078 21.8085 718.601 17.6665 715.834C13.5244 713.067 10.296 709.133 8.38955 704.531C6.48307 699.929 5.98412 694.865 6.95583 689.979C7.92753 685.094 10.3262 680.606 13.8486 677.084C17.3709 673.561 21.8587 671.163 26.7444 670.191C31.63 669.219 36.6941 669.718 41.2962 671.625C45.8983 673.531 49.8316 676.759 52.5988 680.901C55.3661 685.044 56.8428 689.913 56.8424 694.894C56.843 698.202 56.192 701.477 54.9266 704.532C53.6613 707.588 51.8064 710.364 49.4678 712.703C47.1292 715.041 44.3528 716.896 41.2972 718.162C38.2416 719.427 34.9667 720.078 31.6595 720.077V720.077ZM39.4419 706.931L28.7503 699.153C28.5593 699.012 28.404 698.828 28.2969 698.616C28.1897 698.404 28.1337 698.17 28.1333 697.932V677.266C28.1339 676.865 28.2931 676.481 28.576 676.198C28.859 675.915 29.2427 675.755 29.6432 675.754H33.6735C34.0739 675.755 34.4576 675.915 34.7406 676.198C35.0236 676.481 35.1828 676.865 35.1834 677.266V695.107L43.6033 701.228C43.7642 701.345 43.9003 701.493 44.0039 701.663C44.1075 701.833 44.1765 702.021 44.207 702.218C44.2374 702.414 44.2287 702.615 44.1814 702.808C44.134 703.002 44.049 703.184 43.9311 703.344L41.5554 706.612C41.3171 706.935 40.9612 707.15 40.565 707.211C40.1688 707.273 39.7644 707.175 39.4397 706.94L39.4419 706.931Z" fill="#0355D1"/>
<path d="M31.6572 528.665H31.6576C35.3649 528.665 39.0359 529.394 42.461 530.813C45.8862 532.231 48.9983 534.311 51.6198 536.932C54.2412 539.553 56.3205 542.666 57.7389 546.091C59.1574 549.516 59.8872 553.187 59.8867 556.894V556.894C59.8867 562.478 58.231 567.936 55.1291 572.578C52.0273 577.22 47.6184 580.838 42.4602 582.975C37.3019 585.112 31.6259 585.671 26.1499 584.582C20.6739 583.492 15.6439 580.804 11.696 576.856C7.748 572.908 5.05941 567.878 3.97017 562.402C2.88093 556.926 3.43997 551.25 5.57659 546.092C7.71321 540.933 11.3314 536.524 15.9738 533.423C20.6161 530.321 26.0739 528.665 31.6572 528.665Z" fill="white" stroke="#27C100" stroke-width="6"/>
<path d="M31.6595 525.665C25.4828 525.665 19.4446 527.496 14.3087 530.927C9.17273 534.358 5.16963 539.236 2.8056 544.942C0.441567 550.648 -0.177202 556.928 1.02754 562.986C2.23228 569.044 5.20642 574.608 9.57384 578.976C13.9413 583.344 19.5058 586.319 25.5638 587.524C31.6218 588.729 37.9011 588.111 43.6077 585.747C49.3142 583.383 54.1917 579.381 57.6234 574.245C61.055 569.109 62.8866 563.071 62.8866 556.894C62.8875 552.793 62.0804 548.732 60.5115 544.943C58.9425 541.154 56.6424 537.711 53.7425 534.811C50.8427 531.911 47.3999 529.61 43.6108 528.041C39.8217 526.472 35.7606 525.664 31.6595 525.665V525.665ZM31.6595 582.077C26.6781 582.078 21.8085 580.601 17.6665 577.834C13.5244 575.067 10.296 571.133 8.38955 566.531C6.48307 561.929 5.98412 556.865 6.95583 551.979C7.92753 547.094 10.3262 542.606 13.8486 539.084C17.3709 535.561 21.8587 533.163 26.7444 532.191C31.63 531.219 36.6941 531.718 41.2962 533.625C45.8983 535.531 49.8316 538.759 52.5988 542.901C55.3661 547.044 56.8428 551.913 56.8424 556.894C56.843 560.202 56.192 563.477 54.9266 566.532C53.6613 569.588 51.8064 572.364 49.4678 574.703C47.1292 577.041 44.3528 578.896 41.2972 580.162C38.2416 581.427 34.9667 582.078 31.6595 582.077V582.077ZM39.4419 568.931L28.7503 561.153C28.5593 561.012 28.404 560.828 28.2969 560.616C28.1897 560.404 28.1337 560.17 28.1333 559.932V539.266C28.1339 538.865 28.2931 538.481 28.576 538.198C28.859 537.915 29.2427 537.755 29.6432 537.754H33.6735C34.0739 537.755 34.4576 537.915 34.7406 538.198C35.0236 538.481 35.1828 538.865 35.1834 539.266V557.107L43.6033 563.228C43.7642 563.345 43.9003 563.493 44.0039 563.663C44.1075 563.833 44.1765 564.021 44.207 564.218C44.2374 564.414 44.2287 564.615 44.1814 564.808C44.134 565.002 44.049 565.184 43.9311 565.344L41.5554 568.612C41.3171 568.935 40.9612 569.15 40.565 569.211C40.1688 569.273 39.7644 569.175 39.4397 568.94L39.4419 568.931Z" fill="#0355D1"/>
<path d="M31.6572 415.665H31.6576C35.3649 415.665 39.0359 416.394 42.461 417.813C45.8862 419.231 48.9983 421.311 51.6198 423.932C54.2412 426.553 56.3205 429.666 57.7389 433.091C59.1574 436.516 59.8872 440.187 59.8867 443.894V443.894C59.8867 449.478 58.231 454.936 55.1291 459.578C52.0273 464.22 47.6184 467.838 42.4602 469.975C37.3019 472.112 31.6259 472.671 26.1499 471.582C20.6739 470.492 15.6439 467.804 11.696 463.856C7.748 459.908 5.05941 454.878 3.97017 449.402C2.88093 443.926 3.43997 438.25 5.57659 433.092C7.71321 427.933 11.3314 423.524 15.9738 420.423C20.6161 417.321 26.0739 415.665 31.6572 415.665Z" fill="white" stroke="#27C100" stroke-width="6"/>
<path d="M31.6595 412.665C25.4828 412.665 19.4446 414.496 14.3087 417.927C9.17273 421.358 5.16963 426.236 2.8056 431.942C0.441567 437.648 -0.177202 443.928 1.02754 449.986C2.23228 456.044 5.20642 461.608 9.57384 465.976C13.9413 470.344 19.5058 473.319 25.5638 474.524C31.6218 475.729 37.9011 475.111 43.6077 472.747C49.3142 470.383 54.1917 466.381 57.6234 461.245C61.055 456.109 62.8866 450.071 62.8866 443.894C62.8875 439.793 62.0804 435.732 60.5115 431.943C58.9425 428.154 56.6424 424.711 53.7425 421.811C50.8427 418.911 47.3999 416.61 43.6108 415.041C39.8217 413.472 35.7606 412.664 31.6595 412.665V412.665ZM31.6595 469.077C26.6781 469.078 21.8085 467.601 17.6665 464.834C13.5244 462.067 10.296 458.133 8.38955 453.531C6.48307 448.929 5.98412 443.865 6.95583 438.979C7.92753 434.094 10.3262 429.606 13.8486 426.084C17.3709 422.561 21.8587 420.163 26.7444 419.191C31.63 418.219 36.6941 418.718 41.2962 420.625C45.8983 422.531 49.8316 425.759 52.5988 429.901C55.3661 434.044 56.8428 438.913 56.8424 443.894C56.843 447.202 56.192 450.477 54.9266 453.532C53.6613 456.588 51.8064 459.364 49.4678 461.703C47.1292 464.041 44.3528 465.896 41.2972 467.162C38.2416 468.427 34.9667 469.078 31.6595 469.077V469.077ZM39.4419 455.931L28.7503 448.153C28.5593 448.012 28.404 447.828 28.2969 447.616C28.1897 447.404 28.1337 447.17 28.1333 446.932V426.266C28.1339 425.865 28.2931 425.481 28.576 425.198C28.859 424.915 29.2427 424.755 29.6432 424.754H33.6735C34.0739 424.755 34.4576 424.915 34.7406 425.198C35.0236 425.481 35.1828 425.865 35.1834 426.266V444.107L43.6033 450.228C43.7642 450.345 43.9003 450.493 44.0039 450.663C44.1075 450.833 44.1765 451.021 44.207 451.218C44.2374 451.414 44.2287 451.615 44.1814 451.808C44.134 452.002 44.049 452.184 43.9311 452.344L41.5554 455.612C41.3171 455.935 40.9612 456.15 40.565 456.211C40.1688 456.273 39.7644 456.175 39.4397 455.94L39.4419 455.931Z" fill="#0355D1"/>
<path d="M31.6572 302.665H31.6576C35.3649 302.665 39.0359 303.394 42.461 304.813C45.8862 306.231 48.9983 308.311 51.6198 310.932C54.2412 313.553 56.3205 316.666 57.7389 320.091C59.1574 323.516 59.8872 327.187 59.8867 330.894V330.894C59.8867 336.478 58.231 341.936 55.1291 346.578C52.0273 351.22 47.6184 354.838 42.4602 356.975C37.3019 359.112 31.6259 359.671 26.1499 358.582C20.6739 357.492 15.6439 354.804 11.696 350.856C7.748 346.908 5.05941 341.878 3.97017 336.402C2.88093 330.926 3.43997 325.25 5.57659 320.092C7.71321 314.933 11.3314 310.524 15.9738 307.423C20.6161 304.321 26.0739 302.665 31.6572 302.665Z" fill="white" stroke="#0355D1" stroke-width="6"/>
<g clip-path="url(#clip0)">
<path d="M43.6777 311.665H19.1777C18.2112 311.665 17.4277 312.463 17.4277 313.446V314.634C17.4277 315.618 18.2112 316.415 19.1777 316.415C19.1777 323.166 22.8977 328.864 27.9891 330.665C22.8977 332.466 19.1777 338.164 19.1777 344.915C18.2112 344.915 17.4277 345.713 17.4277 346.696V347.884C17.4277 348.868 18.2112 349.665 19.1777 349.665H43.6777C44.6442 349.665 45.4277 348.868 45.4277 347.884V346.696C45.4277 345.713 44.6442 344.915 43.6777 344.915C43.6777 338.164 39.9578 332.466 34.8663 330.665C39.9578 328.864 43.6777 323.166 43.6777 316.415C44.6442 316.415 45.4277 315.618 45.4277 314.634V313.446C45.4277 312.463 44.6442 311.665 43.6777 311.665ZM38.2033 340.165H24.6523C25.8962 336.692 28.451 334.228 31.4277 334.228C34.4043 334.228 36.9593 336.691 38.2033 340.165ZM38.2047 321.165H24.6522C24.1352 319.721 23.8444 318.103 23.8444 316.415H39.0111C39.0111 318.108 38.7203 319.724 38.2047 321.165V321.165Z" fill="#0355D1"/>
</g>
<path d="M31.6572 166.665H31.6576C35.3649 166.665 39.0359 167.394 42.461 168.813C45.8862 170.231 48.9983 172.311 51.6198 174.932C54.2412 177.553 56.3205 180.666 57.7389 184.091C59.1574 187.516 59.8872 191.187 59.8867 194.894V194.894C59.8867 200.478 58.231 205.936 55.1291 210.578C52.0273 215.22 47.6184 218.838 42.4602 220.975C37.3019 223.112 31.6259 223.671 26.1499 222.582C20.6739 221.492 15.6439 218.804 11.696 214.856C7.748 210.908 5.05941 205.878 3.97017 200.402C2.88093 194.926 3.43997 189.25 5.57659 184.092C7.71321 178.933 11.3314 174.524 15.9738 171.423C20.6161 168.321 26.0739 166.665 31.6572 166.665Z" fill="white" stroke="#27C100" stroke-width="6"/>
<path d="M25.6244 208.06L14.2166 197.012C14.0532 196.854 13.9236 196.666 13.8351 196.46C13.7467 196.253 13.7012 196.032 13.7012 195.808C13.7012 195.585 13.7467 195.363 13.8351 195.157C13.9236 194.95 14.0532 194.762 14.2166 194.604L16.6933 192.203C16.8564 192.045 17.0501 191.919 17.2634 191.833C17.4767 191.748 17.7053 191.704 17.9361 191.704C18.167 191.704 18.3956 191.748 18.6089 191.833C18.8221 191.919 19.0159 192.045 19.179 192.203L26.8703 199.652L43.3426 183.684C43.5057 183.526 43.6994 183.4 43.9127 183.314C44.126 183.229 44.3546 183.185 44.5854 183.185C44.8163 183.185 45.0449 183.229 45.2582 183.314C45.4715 183.4 45.6652 183.526 45.8283 183.684L48.311 186.091C48.4744 186.249 48.604 186.437 48.6925 186.643C48.7809 186.85 48.8264 187.071 48.8264 187.295C48.8264 187.519 48.7809 187.74 48.6925 187.946C48.604 188.153 48.4744 188.341 48.311 188.499L28.1011 208.06C27.938 208.219 27.7443 208.344 27.531 208.43C27.3177 208.515 27.0891 208.56 26.8583 208.56C26.6274 208.56 26.3988 208.515 26.1855 208.43C25.9723 208.344 25.7785 208.219 25.6154 208.06H25.6244Z" fill="#27C100"/>
<path d="M31.6595 27.665C25.4828 27.6646 19.4446 29.4958 14.3087 32.9271C9.17273 36.3583 5.16963 41.2355 2.8056 46.9419C0.441567 52.6483 -0.177202 58.9276 1.02754 64.9857C2.23228 71.0437 5.20642 76.6085 9.57384 80.9762C13.9413 85.344 19.5058 88.3185 25.5638 89.5237C31.6218 90.7289 37.9011 90.1106 43.6077 87.7469C49.3142 85.3833 54.1917 81.3806 57.6234 76.2449C61.055 71.1092 62.8866 65.0712 62.8866 58.8945C62.8875 54.7933 62.0804 50.7321 60.5115 46.943C58.9425 43.1538 56.6424 39.7108 53.7425 36.8107C50.8427 33.9107 47.3999 31.6103 43.6108 30.0411C39.8217 28.4718 35.7606 27.6644 31.6595 27.665V27.665ZM31.6595 84.0774C26.6781 84.0779 21.8085 82.6011 17.6665 79.8339C13.5244 77.0667 10.296 73.1333 8.38955 68.5312C6.48307 63.9291 5.98412 58.8651 6.95583 53.9794C7.92753 49.0937 10.3262 44.606 13.8486 41.0836C17.3709 37.5613 21.8587 35.1626 26.7444 34.1909C31.63 33.2192 36.6941 33.7181 41.2962 35.6246C45.8983 37.5311 49.8316 40.7595 52.5988 44.9015C55.3661 49.0435 56.8428 53.9131 56.8424 58.8945C56.843 62.2017 56.192 65.4767 54.9266 68.5323C53.6613 71.5879 51.8064 74.3643 49.4678 76.7028C47.1292 79.0414 44.3528 80.8963 41.2972 82.1617C38.2416 83.427 34.9667 84.078 31.6595 84.0774V84.0774ZM39.4419 70.931L28.7503 63.153C28.5593 63.0119 28.404 62.828 28.2969 62.616C28.1897 62.404 28.1337 62.1699 28.1333 61.9324V41.2658C28.1339 40.8653 28.2931 40.4813 28.576 40.1979C28.859 39.9145 29.2427 39.7548 29.6432 39.7536H33.6735C34.0739 39.7548 34.4576 39.9145 34.7406 40.1979C35.0236 40.4813 35.1828 40.8653 35.1834 41.2658V59.107L43.6033 65.2281C43.7642 65.3451 43.9003 65.4928 44.0039 65.6627C44.1075 65.8325 44.1765 66.0212 44.207 66.2178C44.2374 66.4144 44.2287 66.6151 44.1814 66.8083C44.134 67.0016 44.049 67.1835 43.9311 67.3438L41.5554 70.6123C41.3171 70.9347 40.9612 71.15 40.565 71.2114C40.1688 71.2728 39.7644 71.1753 39.4397 70.9401L39.4419 70.931Z" fill="#0355D1"/>
<path d="M31.6572 30.665H31.6576C35.3649 30.6645 39.0359 31.3943 42.461 32.8128C45.8862 34.2312 48.9983 36.3105 51.6198 38.932C54.2412 41.5534 56.3205 44.6655 57.7389 48.0907C59.1574 51.5158 59.8872 55.1868 59.8867 58.8941V58.8945C59.8867 64.4778 58.231 69.9356 55.1291 74.5779C52.0273 79.2203 47.6184 82.8385 42.4602 84.9751C37.3019 87.1117 31.6259 87.6708 26.1499 86.5815C20.6739 85.4923 15.6439 82.8037 11.696 78.8557C7.748 74.9078 5.05941 69.8778 3.97017 64.4018C2.88093 58.9258 3.43997 53.2498 5.57659 48.0916C7.71321 42.9333 11.3314 38.5245 15.9738 35.4226C20.6161 32.3207 26.0739 30.665 31.6572 30.665Z" fill="white" stroke="#27C100" stroke-width="6"/>
<path d="M25.6244 72.0406L14.2166 60.992C14.0532 60.8341 13.9236 60.6464 13.8351 60.4399C13.7467 60.2333 13.7012 60.0119 13.7012 59.7883C13.7012 59.5647 13.7467 59.3433 13.8351 59.1368C13.9236 58.9302 14.0532 58.7426 14.2166 58.5846L16.6933 56.183C16.8564 56.0248 17.0501 55.8992 17.2634 55.8136C17.4767 55.7279 17.7053 55.6838 17.9361 55.6838C18.167 55.6838 18.3956 55.7279 18.6089 55.8136C18.8221 55.8992 19.0159 56.0248 19.179 56.183L26.8703 63.6321L43.3426 47.664C43.5057 47.5057 43.6994 47.3802 43.9127 47.2945C44.126 47.2089 44.3546 47.1648 44.5854 47.1648C44.8163 47.1648 45.0449 47.2089 45.2582 47.2945C45.4715 47.3802 45.6652 47.5057 45.8283 47.664L48.311 50.0714C48.4744 50.2294 48.604 50.417 48.6925 50.6236C48.7809 50.8301 48.8264 51.0515 48.8264 51.2751C48.8264 51.4987 48.7809 51.7201 48.6925 51.9267C48.604 52.1332 48.4744 52.3209 48.311 52.4788L28.1011 72.0406C27.938 72.1989 27.7443 72.3244 27.531 72.4101C27.3177 72.4957 27.0891 72.5398 26.8583 72.5398C26.6274 72.5398 26.3988 72.4957 26.1855 72.4101C25.9723 72.3244 25.7785 72.1989 25.6154 72.0406H25.6244Z" fill="#27C100"/>
<defs>
<clipPath id="clip0">
<rect x="17.4277" y="311.665" width="28" height="38" fill="white"/>
</clipPath>
</defs>
</svg>
