<svg width="64" height="879" viewBox="0 0 64 879" fill="none" xmlns="http://www.w3.org/2000/svg">
<path d="M31.5996 0.665039L31.5996 672.665" stroke="#27C100" stroke-width="5.9146"/>
<path d="M31.5996 716.665L31.5996 878.665" stroke="#E40C0C" stroke-width="5.9146"/>
<path d="M31.8291 798.665H31.8295C35.5367 798.665 39.2078 799.394 42.6329 800.813C46.0581 802.231 49.1702 804.311 51.7916 806.932C54.413 809.553 56.4924 812.666 57.9108 816.091C59.3293 819.516 60.0591 823.187 60.0585 826.894V826.894C60.0585 832.478 58.4029 837.936 55.301 842.578C52.1991 847.22 47.7903 850.838 42.632 852.975C37.4738 855.112 31.7978 855.671 26.3218 854.582C20.8458 853.492 15.8158 850.804 11.8678 846.856C7.91988 842.908 5.23128 837.878 4.14204 832.402C3.0528 826.926 3.61184 821.25 5.74846 816.092C7.88508 810.933 11.5033 806.524 16.1456 803.423C20.7879 800.321 26.2458 798.665 31.8291 798.665Z" fill="white" stroke="#E40C0C" stroke-width="6"/>
<path d="M17.3774 810.665L47.5996 842.665M15.5996 842.665L45.8218 810.665" stroke="#E40C0C" stroke-width="6"/>
<path d="M31.8291 657.665H31.8295C35.5367 657.665 39.2078 658.394 42.6329 659.813C46.0581 661.231 49.1702 663.311 51.7916 665.932C54.413 668.553 56.4924 671.666 57.9108 675.091C59.3293 678.516 60.0591 682.187 60.0585 685.894V685.894C60.0585 691.478 58.4029 696.936 55.301 701.578C52.1991 706.22 47.7903 709.838 42.632 711.975C37.4738 714.112 31.7978 714.671 26.3218 713.582C20.8458 712.492 15.8158 709.804 11.8678 705.856C7.91988 701.908 5.23128 696.878 4.14204 691.402C3.0528 685.926 3.61184 680.25 5.74846 675.092C7.88508 669.933 11.5033 665.524 16.1456 662.423C20.7879 659.321 26.2458 657.665 31.8291 657.665Z" fill="white" stroke="#27C100" stroke-width="6"/>
<path d="M25.7963 699.06L14.3885 688.012C14.2251 687.854 14.0954 687.666 14.007 687.46C13.9186 687.253 13.873 687.032 13.873 686.808C13.873 686.585 13.9186 686.363 14.007 686.157C14.0954 685.95 14.2251 685.762 14.3885 685.604L16.8652 683.203C17.0283 683.045 17.222 682.919 17.4353 682.833C17.6485 682.748 17.8771 682.704 18.108 682.704C18.3389 682.704 18.5675 682.748 18.7808 682.833C18.994 682.919 19.1878 683.045 19.3509 683.203L27.0422 690.652L43.5145 674.684C43.6776 674.526 43.8713 674.4 44.0846 674.314C44.2978 674.229 44.5265 674.185 44.7573 674.185C44.9882 674.185 45.2168 674.229 45.4301 674.314C45.6433 674.4 45.8371 674.526 46.0002 674.684L48.4829 677.091C48.6463 677.249 48.7759 677.437 48.8643 677.643C48.9528 677.85 48.9983 678.071 48.9983 678.295C48.9983 678.519 48.9528 678.74 48.8643 678.946C48.7759 679.153 48.6463 679.341 48.4829 679.499L28.273 699.06C28.1099 699.219 27.9161 699.344 27.7029 699.43C27.4896 699.515 27.261 699.56 27.0301 699.56C26.7993 699.56 26.5707 699.515 26.3574 699.43C26.1441 699.344 25.9504 699.219 25.7873 699.06H25.7963Z" fill="#27C100"/>
<path d="M31.8291 518.665H31.8295C35.5367 518.665 39.2078 519.394 42.6329 520.813C46.0581 522.231 49.1702 524.311 51.7916 526.932C54.413 529.553 56.4924 532.666 57.9108 536.091C59.3293 539.516 60.0591 543.187 60.0585 546.894V546.894C60.0585 552.478 58.4029 557.936 55.301 562.578C52.1991 567.22 47.7903 570.838 42.632 572.975C37.4738 575.112 31.7978 575.671 26.3218 574.582C20.8458 573.492 15.8158 570.804 11.8678 566.856C7.91988 562.908 5.23128 557.878 4.14204 552.402C3.0528 546.926 3.61184 541.25 5.74846 536.092C7.88508 530.933 11.5033 526.524 16.1456 523.423C20.7879 520.321 26.2458 518.665 31.8291 518.665Z" fill="white" stroke="#27C100" stroke-width="6"/>
<path d="M25.7963 560.06L14.3885 549.012C14.2251 548.854 14.0954 548.666 14.007 548.46C13.9186 548.253 13.873 548.032 13.873 547.808C13.873 547.585 13.9186 547.363 14.007 547.157C14.0954 546.95 14.2251 546.762 14.3885 546.604L16.8652 544.203C17.0283 544.045 17.222 543.919 17.4353 543.833C17.6485 543.748 17.8771 543.704 18.108 543.704C18.3389 543.704 18.5675 543.748 18.7808 543.833C18.994 543.919 19.1878 544.045 19.3509 544.203L27.0422 551.652L43.5145 535.684C43.6776 535.526 43.8713 535.4 44.0846 535.314C44.2978 535.229 44.5265 535.185 44.7573 535.185C44.9882 535.185 45.2168 535.229 45.4301 535.314C45.6433 535.4 45.8371 535.526 46.0002 535.684L48.4829 538.091C48.6463 538.249 48.7759 538.437 48.8643 538.643C48.9528 538.85 48.9983 539.071 48.9983 539.295C48.9983 539.519 48.9528 539.74 48.8643 539.946C48.7759 540.153 48.6463 540.341 48.4829 540.499L28.273 560.06C28.1099 560.219 27.9161 560.344 27.7029 560.43C27.4896 560.515 27.261 560.56 27.0301 560.56C26.7993 560.56 26.5707 560.515 26.3574 560.43C26.1441 560.344 25.9504 560.219 25.7873 560.06H25.7963Z" fill="#27C100"/>
<path d="M31.8291 405.665H31.8295C35.5367 405.665 39.2078 406.394 42.6329 407.813C46.0581 409.231 49.1702 411.311 51.7916 413.932C54.413 416.553 56.4924 419.666 57.9108 423.091C59.3293 426.516 60.0591 430.187 60.0585 433.894V433.894C60.0585 439.478 58.4029 444.936 55.301 449.578C52.1991 454.22 47.7903 457.838 42.632 459.975C37.4738 462.112 31.7978 462.671 26.3218 461.582C20.8458 460.492 15.8158 457.804 11.8678 453.856C7.91988 449.908 5.23128 444.878 4.14204 439.402C3.0528 433.926 3.61184 428.25 5.74846 423.092C7.88508 417.933 11.5033 413.524 16.1456 410.423C20.7879 407.321 26.2458 405.665 31.8291 405.665Z" fill="white" stroke="#27C100" stroke-width="6"/>
<path d="M25.7963 447.06L14.3885 436.012C14.2251 435.854 14.0954 435.666 14.007 435.46C13.9186 435.253 13.873 435.032 13.873 434.808C13.873 434.585 13.9186 434.363 14.007 434.157C14.0954 433.95 14.2251 433.762 14.3885 433.604L16.8652 431.203C17.0283 431.045 17.222 430.919 17.4353 430.833C17.6485 430.748 17.8771 430.704 18.108 430.704C18.3389 430.704 18.5675 430.748 18.7808 430.833C18.994 430.919 19.1878 431.045 19.3509 431.203L27.0422 438.652L43.5145 422.684C43.6776 422.526 43.8713 422.4 44.0846 422.314C44.2978 422.229 44.5265 422.185 44.7573 422.185C44.9882 422.185 45.2168 422.229 45.4301 422.314C45.6433 422.4 45.8371 422.526 46.0002 422.684L48.4829 425.091C48.6463 425.249 48.7759 425.437 48.8643 425.643C48.9528 425.85 48.9983 426.071 48.9983 426.295C48.9983 426.519 48.9528 426.74 48.8643 426.946C48.7759 427.153 48.6463 427.341 48.4829 427.499L28.273 447.06C28.1099 447.219 27.9161 447.344 27.7029 447.43C27.4896 447.515 27.261 447.56 27.0301 447.56C26.7993 447.56 26.5707 447.515 26.3574 447.43C26.1441 447.344 25.9504 447.219 25.7873 447.06H25.7963Z" fill="#27C100"/>
<path d="M31.8291 292.665H31.8295C35.5367 292.665 39.2078 293.394 42.6329 294.813C46.0581 296.231 49.1702 298.311 51.7916 300.932C54.413 303.553 56.4924 306.666 57.9108 310.091C59.3293 313.516 60.0591 317.187 60.0585 320.894V320.894C60.0585 326.478 58.4029 331.936 55.301 336.578C52.1991 341.22 47.7903 344.838 42.632 346.975C37.4738 349.112 31.7978 349.671 26.3218 348.582C20.8458 347.492 15.8158 344.804 11.8678 340.856C7.91988 336.908 5.23128 331.878 4.14204 326.402C3.0528 320.926 3.61184 315.25 5.74846 310.092C7.88508 304.933 11.5033 300.524 16.1456 297.423C20.7879 294.321 26.2458 292.665 31.8291 292.665Z" fill="white" stroke="#27C100" stroke-width="6"/>
<path d="M25.7963 334.06L14.3885 323.012C14.2251 322.854 14.0954 322.666 14.007 322.46C13.9186 322.253 13.873 322.032 13.873 321.808C13.873 321.585 13.9186 321.363 14.007 321.157C14.0954 320.95 14.2251 320.762 14.3885 320.604L16.8652 318.203C17.0283 318.045 17.222 317.919 17.4353 317.833C17.6485 317.748 17.8771 317.704 18.108 317.704C18.3389 317.704 18.5675 317.748 18.7808 317.833C18.994 317.919 19.1878 318.045 19.3509 318.203L27.0422 325.652L43.5145 309.684C43.6776 309.526 43.8713 309.4 44.0846 309.314C44.2978 309.229 44.5265 309.185 44.7573 309.185C44.9882 309.185 45.2168 309.229 45.4301 309.314C45.6433 309.4 45.8371 309.526 46.0002 309.684L48.4829 312.091C48.6463 312.249 48.7759 312.437 48.8643 312.643C48.9528 312.85 48.9983 313.071 48.9983 313.295C48.9983 313.519 48.9528 313.74 48.8643 313.946C48.7759 314.153 48.6463 314.341 48.4829 314.499L28.273 334.06C28.1099 334.219 27.9161 334.344 27.7029 334.43C27.4896 334.515 27.261 334.56 27.0301 334.56C26.7993 334.56 26.5707 334.515 26.3574 334.43C26.1441 334.344 25.9504 334.219 25.7873 334.06H25.7963Z" fill="#27C100"/>
<path d="M31.8291 156.665H31.8295C35.5367 156.665 39.2078 157.394 42.6329 158.813C46.0581 160.231 49.1702 162.311 51.7916 164.932C54.413 167.553 56.4924 170.666 57.9108 174.091C59.3293 177.516 60.0591 181.187 60.0585 184.894V184.894C60.0585 190.478 58.4029 195.936 55.301 200.578C52.1991 205.22 47.7903 208.838 42.632 210.975C37.4738 213.112 31.7978 213.671 26.3218 212.582C20.8458 211.492 15.8158 208.804 11.8678 204.856C7.91988 200.908 5.23128 195.878 4.14204 190.402C3.0528 184.926 3.61184 179.25 5.74846 174.092C7.88508 168.933 11.5033 164.524 16.1456 161.423C20.7879 158.321 26.2458 156.665 31.8291 156.665Z" fill="white" stroke="#27C100" stroke-width="6"/>
<path d="M25.7963 198.06L14.3885 187.012C14.2251 186.854 14.0954 186.666 14.007 186.46C13.9186 186.253 13.873 186.032 13.873 185.808C13.873 185.585 13.9186 185.363 14.007 185.157C14.0954 184.95 14.2251 184.762 14.3885 184.604L16.8652 182.203C17.0283 182.045 17.222 181.919 17.4353 181.833C17.6485 181.748 17.8771 181.704 18.108 181.704C18.3389 181.704 18.5675 181.748 18.7808 181.833C18.994 181.919 19.1878 182.045 19.3509 182.203L27.0422 189.652L43.5145 173.684C43.6776 173.526 43.8713 173.4 44.0846 173.314C44.2978 173.229 44.5265 173.185 44.7573 173.185C44.9882 173.185 45.2168 173.229 45.4301 173.314C45.6433 173.4 45.8371 173.526 46.0002 173.684L48.4829 176.091C48.6463 176.249 48.7759 176.437 48.8643 176.643C48.9528 176.85 48.9983 177.071 48.9983 177.295C48.9983 177.519 48.9528 177.74 48.8643 177.946C48.7759 178.153 48.6463 178.341 48.4829 178.499L28.273 198.06C28.1099 198.219 27.9161 198.344 27.7029 198.43C27.4896 198.515 27.261 198.56 27.0301 198.56C26.7993 198.56 26.5707 198.515 26.3574 198.43C26.1441 198.344 25.9504 198.219 25.7873 198.06H25.7963Z" fill="#27C100"/>
<path d="M31.8313 17.665C25.6546 17.6646 19.6165 19.4958 14.4806 22.9271C9.34461 26.3583 5.3415 31.2355 2.97747 36.9419C0.613442 42.6483 -0.00532657 48.9276 1.19941 54.9857C2.40415 61.0437 5.37829 66.6085 9.74572 70.9762C14.1131 75.344 19.6777 78.3185 25.7357 79.5237C31.7937 80.7289 38.073 80.1106 43.7795 77.7469C49.4861 75.3833 54.3636 71.3806 57.7952 66.2449C61.2269 61.1092 63.0585 55.0712 63.0585 48.8945C63.0594 44.7933 62.2523 40.7321 60.6833 36.943C59.1144 33.1538 56.8143 29.7108 53.9144 26.8107C51.0145 23.9107 47.5717 21.6103 43.7827 20.0411C39.9936 18.4718 35.9325 17.6644 31.8313 17.665V17.665ZM31.8313 74.0774C26.85 74.0779 21.9804 72.6011 17.8383 69.8339C13.6963 67.0667 10.4679 63.1333 8.56143 58.5312C6.65494 53.9291 6.156 48.8651 7.1277 43.9794C8.09941 39.0937 10.4981 34.606 14.0205 31.0836C17.5428 27.5613 22.0306 25.1626 26.9162 24.1909C31.8019 23.2192 36.866 23.7181 41.4681 25.6246C46.0701 27.5311 50.0035 30.7595 52.7707 34.9015C55.5379 39.0435 57.0147 43.9131 57.0142 48.8945C57.0148 52.2017 56.3639 55.4767 55.0985 58.5323C53.8332 61.5879 51.9782 64.3643 49.6397 66.7028C47.3011 69.0414 44.5247 70.8963 41.4691 72.1617C38.4135 73.427 35.1386 74.078 31.8313 74.0774V74.0774ZM39.6138 60.931L28.9222 53.153C28.7312 53.0119 28.5759 52.828 28.4688 52.616C28.3616 52.404 28.3056 52.1699 28.3051 51.9324V31.2658C28.3057 30.8653 28.4649 30.4813 28.7479 30.1979C29.0309 29.9145 29.4146 29.7548 29.8151 29.7536H33.8453C34.2458 29.7548 34.6295 29.9145 34.9125 30.1979C35.1955 30.4813 35.3547 30.8653 35.3553 31.2658V49.107L43.7752 55.2281C43.9361 55.3451 44.0722 55.4928 44.1758 55.6627C44.2794 55.8325 44.3484 56.0212 44.3789 56.2178C44.4093 56.4144 44.4006 56.6151 44.3533 56.8083C44.3059 57.0016 44.2208 57.1835 44.1029 57.3438L41.7273 60.6123C41.489 60.9347 41.133 61.15 40.7368 61.2114C40.3406 61.2728 39.9362 61.1753 39.6116 60.9401L39.6138 60.931Z" fill="#0355D1"/>
<path d="M31.8291 20.665H31.8295C35.5367 20.6645 39.2078 21.3943 42.6329 22.8128C46.0581 24.2312 49.1702 26.3105 51.7916 28.932C54.413 31.5534 56.4924 34.6655 57.9108 38.0907C59.3293 41.5158 60.0591 45.1868 60.0585 48.8941V48.8945C60.0585 54.4778 58.4029 59.9356 55.301 64.5779C52.1991 69.2203 47.7903 72.8385 42.632 74.9751C37.4738 77.1117 31.7978 77.6708 26.3218 76.5815C20.8458 75.4923 15.8158 72.8037 11.8678 68.8557C7.91988 64.9078 5.23128 59.8778 4.14204 54.4018C3.0528 48.9258 3.61184 43.2498 5.74846 38.0916C7.88508 32.9333 11.5033 28.5245 16.1456 25.4226C20.7879 22.3207 26.2458 20.665 31.8291 20.665Z" fill="white" stroke="#27C100" stroke-width="6"/>
<path d="M25.7963 62.0406L14.3885 50.992C14.2251 50.8341 14.0954 50.6464 14.007 50.4399C13.9186 50.2333 13.873 50.0119 13.873 49.7883C13.873 49.5647 13.9186 49.3433 14.007 49.1368C14.0954 48.9302 14.2251 48.7426 14.3885 48.5846L16.8652 46.183C17.0283 46.0248 17.222 45.8992 17.4353 45.8136C17.6485 45.7279 17.8771 45.6838 18.108 45.6838C18.3389 45.6838 18.5675 45.7279 18.7808 45.8136C18.994 45.8992 19.1878 46.0248 19.3509 46.183L27.0422 53.6321L43.5145 37.664C43.6776 37.5057 43.8713 37.3802 44.0846 37.2945C44.2978 37.2089 44.5265 37.1648 44.7573 37.1648C44.9882 37.1648 45.2168 37.2089 45.4301 37.2945C45.6433 37.3802 45.8371 37.5057 46.0002 37.664L48.4829 40.0714C48.6463 40.2294 48.7759 40.417 48.8643 40.6236C48.9528 40.8301 48.9983 41.0515 48.9983 41.2751C48.9983 41.4987 48.9528 41.7201 48.8643 41.9267C48.7759 42.1332 48.6463 42.3209 48.4829 42.4788L28.273 62.0406C28.1099 62.1989 27.9161 62.3244 27.7029 62.4101C27.4896 62.4957 27.261 62.5398 27.0301 62.5398C26.7993 62.5398 26.5707 62.4957 26.3574 62.4101C26.1441 62.3244 25.9504 62.1989 25.7873 62.0406H25.7963Z" fill="#27C100"/>
</svg>
