<svg width="64" height="881" viewBox="0 0 64 881" fill="none" xmlns="http://www.w3.org/2000/svg">
<path d="M31.7207 0.665039L31.7207 421.665" stroke="#27C100" stroke-width="5.9146"/>
<path d="M31.7207 432.665L31.7207 880.665" stroke="#E40C0C" stroke-width="5.9146"/>
<path d="M31.9502 800.665H31.9506C35.6578 800.665 39.3289 801.394 42.754 802.813C46.1792 804.231 49.2913 806.311 51.9127 808.932C54.5341 811.553 56.6134 814.666 58.0319 818.091C59.4504 821.516 60.1802 825.187 60.1796 828.894V828.894C60.1796 834.478 58.524 839.936 55.4221 844.578C52.3202 849.22 47.9114 852.838 42.7531 854.975C37.5949 857.112 31.9189 857.671 26.4429 856.582C20.9669 855.492 15.9369 852.804 11.9889 848.856C8.04097 844.908 5.35238 839.878 4.26314 834.402C3.1739 828.926 3.73294 823.25 5.86956 818.092C8.00618 812.933 11.6244 808.524 16.2667 805.423C20.909 802.321 26.3669 800.665 31.9502 800.665Z" fill="white" stroke="#E40C0C" stroke-width="6"/>
<path d="M17.4985 812.665L47.7207 844.665M15.7207 844.665L45.9429 812.665" stroke="#E40C0C" stroke-width="6"/>
<path d="M31.9502 659.665H31.9506C35.6578 659.665 39.3289 660.394 42.754 661.813C46.1792 663.231 49.2913 665.311 51.9127 667.932C54.5341 670.553 56.6134 673.666 58.0319 677.091C59.4504 680.516 60.1802 684.187 60.1796 687.894V687.894C60.1796 693.478 58.524 698.936 55.4221 703.578C52.3202 708.22 47.9114 711.838 42.7531 713.975C37.5949 716.112 31.9189 716.671 26.4429 715.582C20.9669 714.492 15.9369 711.804 11.9889 707.856C8.04097 703.908 5.35238 698.878 4.26314 693.402C3.1739 687.926 3.73294 682.25 5.86956 677.092C8.00618 671.933 11.6244 667.524 16.2667 664.423C20.909 661.321 26.3669 659.665 31.9502 659.665Z" fill="white" stroke="#E40C0C" stroke-width="6"/>
<path d="M17.4985 671.665L47.7207 703.665M15.7207 703.665L45.9429 671.665" stroke="#E40C0C" stroke-width="6"/>
<path d="M31.9502 520.665H31.9506C35.6578 520.665 39.3289 521.394 42.754 522.813C46.1792 524.231 49.2913 526.311 51.9127 528.932C54.5341 531.553 56.6134 534.666 58.0319 538.091C59.4504 541.516 60.1802 545.187 60.1796 548.894V548.894C60.1796 554.478 58.524 559.936 55.4221 564.578C52.3202 569.22 47.9114 572.838 42.7531 574.975C37.5949 577.112 31.9189 577.671 26.4429 576.582C20.9669 575.492 15.9369 572.804 11.9889 568.856C8.04097 564.908 5.35238 559.878 4.26314 554.402C3.1739 548.926 3.73294 543.25 5.86956 538.092C8.00618 532.933 11.6244 528.524 16.2667 525.423C20.909 522.321 26.3669 520.665 31.9502 520.665Z" fill="white" stroke="#E40C0C" stroke-width="6"/>
<path d="M17.4985 532.665L47.7207 564.665M15.7207 564.665L45.9429 532.665" stroke="#E40C0C" stroke-width="6"/>
<path d="M31.9502 407.665H31.9506C35.6578 407.665 39.3289 408.394 42.754 409.813C46.1792 411.231 49.2913 413.311 51.9127 415.932C54.5341 418.553 56.6134 421.666 58.0319 425.091C59.4504 428.516 60.1802 432.187 60.1796 435.894V435.894C60.1796 441.478 58.524 446.936 55.4221 451.578C52.3202 456.22 47.9114 459.838 42.7531 461.975C37.5949 464.112 31.9189 464.671 26.4429 463.582C20.9669 462.492 15.9369 459.804 11.9889 455.856C8.04097 451.908 5.35238 446.878 4.26314 441.402C3.1739 435.926 3.73294 430.25 5.86956 425.092C8.00618 419.933 11.6244 415.524 16.2667 412.423C20.909 409.321 26.3669 407.665 31.9502 407.665Z" fill="white" stroke="#E40C0C" stroke-width="6"/>
<path d="M17.4985 419.665L47.7207 451.665M15.7207 451.665L45.9429 419.665" stroke="#E40C0C" stroke-width="6"/>
<path d="M31.9502 294.665H31.9506C35.6578 294.665 39.3289 295.394 42.754 296.813C46.1792 298.231 49.2913 300.311 51.9127 302.932C54.5341 305.553 56.6134 308.666 58.0319 312.091C59.4504 315.516 60.1802 319.187 60.1796 322.894V322.894C60.1796 328.478 58.524 333.936 55.4221 338.578C52.3202 343.22 47.9114 346.838 42.7531 348.975C37.5949 351.112 31.9189 351.671 26.4429 350.582C20.9669 349.492 15.9369 346.804 11.9889 342.856C8.04097 338.908 5.35238 333.878 4.26314 328.402C3.1739 322.926 3.73294 317.25 5.86956 312.092C8.00618 306.933 11.6244 302.524 16.2667 299.423C20.909 296.321 26.3669 294.665 31.9502 294.665Z" fill="white" stroke="#27C100" stroke-width="6"/>
<path d="M25.9174 336.06L14.5096 325.012C14.3462 324.854 14.2165 324.666 14.1281 324.46C14.0397 324.253 13.9941 324.032 13.9941 323.808C13.9941 323.585 14.0397 323.363 14.1281 323.157C14.2165 322.95 14.3462 322.762 14.5096 322.604L16.9863 320.203C17.1494 320.045 17.3431 319.919 17.5564 319.833C17.7696 319.748 17.9982 319.704 18.2291 319.704C18.46 319.704 18.6886 319.748 18.9019 319.833C19.1151 319.919 19.3088 320.045 19.472 320.203L27.1632 327.652L43.6356 311.684C43.7987 311.526 43.9924 311.4 44.2057 311.314C44.4189 311.229 44.6475 311.185 44.8784 311.185C45.1093 311.185 45.3379 311.229 45.5512 311.314C45.7644 311.4 45.9582 311.526 46.1213 311.684L48.604 314.091C48.7674 314.249 48.897 314.437 48.9854 314.643C49.0739 314.85 49.1194 315.071 49.1194 315.295C49.1194 315.519 49.0739 315.74 48.9854 315.946C48.897 316.153 48.7674 316.341 48.604 316.499L28.3941 336.06C28.231 336.219 28.0372 336.344 27.824 336.43C27.6107 336.515 27.3821 336.56 27.1512 336.56C26.9204 336.56 26.6918 336.515 26.4785 336.43C26.2652 336.344 26.0715 336.219 25.9084 336.06H25.9174Z" fill="#27C100"/>
<path d="M31.9502 158.665H31.9506C35.6578 158.665 39.3289 159.394 42.754 160.813C46.1792 162.231 49.2913 164.311 51.9127 166.932C54.5341 169.553 56.6134 172.666 58.0319 176.091C59.4504 179.516 60.1802 183.187 60.1796 186.894V186.894C60.1796 192.478 58.524 197.936 55.4221 202.578C52.3202 207.22 47.9114 210.838 42.7531 212.975C37.5949 215.112 31.9189 215.671 26.4429 214.582C20.9669 213.492 15.9369 210.804 11.9889 206.856C8.04097 202.908 5.35238 197.878 4.26314 192.402C3.1739 186.926 3.73294 181.25 5.86956 176.092C8.00618 170.933 11.6244 166.524 16.2667 163.423C20.909 160.321 26.3669 158.665 31.9502 158.665Z" fill="white" stroke="#27C100" stroke-width="6"/>
<path d="M25.9174 200.06L14.5096 189.012C14.3462 188.854 14.2165 188.666 14.1281 188.46C14.0397 188.253 13.9941 188.032 13.9941 187.808C13.9941 187.585 14.0397 187.363 14.1281 187.157C14.2165 186.95 14.3462 186.762 14.5096 186.604L16.9863 184.203C17.1494 184.045 17.3431 183.919 17.5564 183.833C17.7696 183.748 17.9982 183.704 18.2291 183.704C18.46 183.704 18.6886 183.748 18.9019 183.833C19.1151 183.919 19.3088 184.045 19.472 184.203L27.1632 191.652L43.6356 175.684C43.7987 175.526 43.9924 175.4 44.2057 175.314C44.4189 175.229 44.6475 175.185 44.8784 175.185C45.1093 175.185 45.3379 175.229 45.5512 175.314C45.7644 175.4 45.9582 175.526 46.1213 175.684L48.604 178.091C48.7674 178.249 48.897 178.437 48.9854 178.643C49.0739 178.85 49.1194 179.071 49.1194 179.295C49.1194 179.519 49.0739 179.74 48.9854 179.946C48.897 180.153 48.7674 180.341 48.604 180.499L28.3941 200.06C28.231 200.219 28.0372 200.344 27.824 200.43C27.6107 200.515 27.3821 200.56 27.1512 200.56C26.9204 200.56 26.6918 200.515 26.4785 200.43C26.2652 200.344 26.0715 200.219 25.9084 200.06H25.9174Z" fill="#27C100"/>
<path d="M31.9524 19.665C25.7757 19.6646 19.7376 21.4958 14.6017 24.9271C9.4657 28.3583 5.46259 33.2355 3.09856 38.9419C0.734535 44.6483 0.115767 50.9276 1.32051 56.9857C2.52525 63.0437 5.49938 68.6085 9.86681 72.9762C14.2342 77.344 19.7988 80.3185 25.8568 81.5237C31.9147 82.7289 38.1941 82.1106 43.9006 79.7469C49.6072 77.3833 54.4847 73.3806 57.9163 68.2449C61.348 63.1092 63.1796 57.0712 63.1796 50.8945C63.1805 46.7933 62.3734 42.7321 60.8044 38.943C59.2355 35.1538 56.9354 31.7108 54.0355 28.8107C51.1356 25.9107 47.6928 23.6103 43.9038 22.0411C40.1147 20.4718 36.0536 19.6644 31.9524 19.665V19.665ZM31.9524 76.0774C26.9711 76.0779 22.1015 74.6011 17.9594 71.8339C13.8174 69.0667 10.589 65.1333 8.68252 60.5312C6.77603 55.9291 6.27709 50.8651 7.2488 45.9794C8.2205 41.0937 10.6192 36.606 14.1415 33.0836C17.6639 29.5613 22.1517 27.1626 27.0373 26.1909C31.923 25.2192 36.9871 25.7181 41.5892 27.6246C46.1912 29.5311 50.1246 32.7595 52.8918 36.9015C55.659 41.0435 57.1358 45.9131 57.1353 50.8945C57.1359 54.2017 56.485 57.4767 55.2196 60.5323C53.9543 63.5879 52.0993 66.3643 49.7608 68.7028C47.4222 71.0414 44.6458 72.8963 41.5902 74.1617C38.5346 75.427 35.2597 76.078 31.9524 76.0774V76.0774ZM39.7349 62.931L29.0433 55.153C28.8523 55.0119 28.697 54.828 28.5899 54.616C28.4827 54.404 28.4267 54.1699 28.4262 53.9324V33.2658C28.4268 32.8653 28.586 32.4813 28.869 32.1979C29.152 31.9145 29.5357 31.7548 29.9362 31.7536H33.9664C34.3669 31.7548 34.7506 31.9145 35.0336 32.1979C35.3166 32.4813 35.4758 32.8653 35.4764 33.2658V51.107L43.8963 57.2281C44.0571 57.3451 44.1933 57.4928 44.2969 57.6627C44.4005 57.8325 44.4695 58.0212 44.5 58.2178C44.5304 58.4144 44.5217 58.6151 44.4744 58.8083C44.427 59.0016 44.3419 59.1835 44.224 59.3438L41.8484 62.6123C41.6101 62.9347 41.2541 63.15 40.8579 63.2114C40.4617 63.2728 40.0573 63.1753 39.7327 62.9401L39.7349 62.931Z" fill="#0355D1"/>
<path d="M31.9502 22.665H31.9506C35.6578 22.6645 39.3289 23.3943 42.754 24.8128C46.1792 26.2312 49.2913 28.3105 51.9127 30.932C54.5341 33.5534 56.6134 36.6655 58.0319 40.0907C59.4504 43.5158 60.1802 47.1868 60.1796 50.8941V50.8945C60.1796 56.4778 58.524 61.9356 55.4221 66.5779C52.3202 71.2203 47.9114 74.8385 42.7531 76.9751C37.5949 79.1117 31.9189 79.6708 26.4429 78.5815C20.9669 77.4923 15.9369 74.8037 11.9889 70.8557C8.04097 66.9078 5.35238 61.8778 4.26314 56.4018C3.1739 50.9258 3.73294 45.2498 5.86956 40.0916C8.00618 34.9333 11.6244 30.5245 16.2667 27.4226C20.909 24.3207 26.3669 22.665 31.9502 22.665Z" fill="white" stroke="#27C100" stroke-width="6"/>
<path d="M25.9174 64.0406L14.5096 52.992C14.3462 52.8341 14.2165 52.6464 14.1281 52.4399C14.0397 52.2333 13.9941 52.0119 13.9941 51.7883C13.9941 51.5647 14.0397 51.3433 14.1281 51.1368C14.2165 50.9302 14.3462 50.7426 14.5096 50.5846L16.9863 48.183C17.1494 48.0248 17.3431 47.8992 17.5564 47.8136C17.7696 47.7279 17.9982 47.6838 18.2291 47.6838C18.46 47.6838 18.6886 47.7279 18.9019 47.8136C19.1151 47.8992 19.3088 48.0248 19.472 48.183L27.1632 55.6321L43.6356 39.664C43.7987 39.5057 43.9924 39.3802 44.2057 39.2945C44.4189 39.2089 44.6475 39.1648 44.8784 39.1648C45.1093 39.1648 45.3379 39.2089 45.5512 39.2945C45.7644 39.3802 45.9582 39.5057 46.1213 39.664L48.604 42.0714C48.7674 42.2294 48.897 42.417 48.9854 42.6236C49.0739 42.8301 49.1194 43.0515 49.1194 43.2751C49.1194 43.4987 49.0739 43.7201 48.9854 43.9267C48.897 44.1332 48.7674 44.3209 48.604 44.4788L28.3941 64.0406C28.231 64.1989 28.0372 64.3244 27.824 64.4101C27.6107 64.4957 27.3821 64.5398 27.1512 64.5398C26.9204 64.5398 26.6918 64.4957 26.4785 64.4101C26.2652 64.3244 26.0715 64.1989 25.9084 64.0406H25.9174Z" fill="#27C100"/>
</svg>
