<svg width="63" height="887" viewBox="0 0 63 887" fill="none" xmlns="http://www.w3.org/2000/svg">
<path d="M31 0L31 303" stroke="#27C100" stroke-width="5.9146"/>
<path d="M31 330L31 887" stroke="#0355D1" stroke-width="5.9146"/>
<path d="M31.2295 807H31.2299C34.9371 806.999 38.6082 807.729 42.0333 809.148C45.4585 810.566 48.5706 812.645 51.192 815.267C53.8134 817.888 55.8927 821 57.3112 824.426C58.7297 827.851 59.4595 831.522 59.4589 835.229V835.229C59.4589 840.813 57.8033 846.271 54.7014 850.913C51.5995 855.555 47.1907 859.173 42.0324 861.31C36.8742 863.447 31.1982 864.006 25.7222 862.916C20.2462 861.827 15.2162 859.139 11.2682 855.191C7.32027 851.243 4.63168 846.213 3.54244 840.737C2.4532 835.261 3.01223 829.585 5.14885 824.427C7.28548 819.268 10.9037 814.859 15.546 811.758C20.1883 808.656 25.6462 807 31.2295 807Z" fill="white" stroke="#27C100" stroke-width="6"/>
<path d="M31.2317 804C25.055 804 19.0169 805.831 13.881 809.262C8.745 812.693 4.74189 817.57 2.37786 823.277C0.0138323 828.983 -0.604936 835.263 0.599804 841.321C1.80454 847.379 4.77868 852.943 9.14611 857.311C13.5135 861.679 19.0781 864.653 25.1361 865.859C31.194 867.064 37.4734 866.446 43.1799 864.082C48.8865 861.718 53.764 857.716 57.1956 852.58C60.6273 847.444 62.4589 841.406 62.4589 835.229C62.4598 831.128 61.6527 827.067 60.0837 823.278C58.5148 819.489 56.2146 816.046 53.3148 813.146C50.4149 810.246 46.9721 807.945 43.1831 806.376C39.394 804.807 35.3329 803.999 31.2317 804V804ZM31.2317 860.412C26.2504 860.413 21.3808 858.936 17.2387 856.169C13.0967 853.402 9.8683 849.468 7.96182 844.866C6.05533 840.264 5.55639 835.2 6.52809 830.314C7.4998 825.429 9.8985 820.941 13.4208 817.419C16.9432 813.896 21.431 811.498 26.3166 810.526C31.2023 809.554 36.2664 810.053 40.8685 811.96C45.4705 813.866 49.4039 817.094 52.1711 821.236C54.9383 825.378 56.4151 830.248 56.4146 835.229C56.4152 838.537 55.7643 841.812 54.4989 844.867C53.2336 847.923 51.3786 850.699 49.0401 853.038C46.7015 855.376 43.9251 857.231 40.8695 858.497C37.8139 859.762 34.539 860.413 31.2317 860.412V860.412ZM39.0142 847.266L28.3226 839.488C28.1316 839.347 27.9763 839.163 27.8692 838.951C27.762 838.739 27.706 838.505 27.7055 838.267V817.601C27.7061 817.2 27.8653 816.816 28.1483 816.533C28.4313 816.249 28.815 816.09 29.2155 816.089H33.2457C33.6462 816.09 34.0299 816.249 34.3129 816.533C34.5959 816.816 34.7551 817.2 34.7557 817.601V835.442L43.1756 841.563C43.3364 841.68 43.4726 841.828 43.5762 841.998C43.6798 842.168 43.7488 842.356 43.7793 842.553C43.8097 842.749 43.801 842.95 43.7537 843.143C43.7063 843.337 43.6212 843.519 43.5033 843.679L41.1277 846.947C40.8894 847.27 40.5334 847.485 40.1372 847.546C39.741 847.608 39.3366 847.51 39.012 847.275L39.0142 847.266Z" fill="#0355D1"/>
<path d="M31.2295 666H31.2299C34.9371 665.999 38.6082 666.729 42.0333 668.148C45.4585 669.566 48.5706 671.645 51.192 674.267C53.8134 676.888 55.8927 680 57.3112 683.426C58.7297 686.851 59.4595 690.522 59.4589 694.229V694.229C59.4589 699.813 57.8033 705.271 54.7014 709.913C51.5995 714.555 47.1907 718.173 42.0324 720.31C36.8742 722.447 31.1982 723.006 25.7222 721.916C20.2462 720.827 15.2162 718.139 11.2682 714.191C7.32027 710.243 4.63168 705.213 3.54244 699.737C2.4532 694.261 3.01223 688.585 5.14885 683.427C7.28548 678.268 10.9037 673.859 15.546 670.758C20.1883 667.656 25.6462 666 31.2295 666Z" fill="white" stroke="#27C100" stroke-width="6"/>
<path d="M31.2317 663C25.055 663 19.0169 664.831 13.881 668.262C8.745 671.693 4.74189 676.57 2.37786 682.277C0.0138323 687.983 -0.604936 694.263 0.599804 700.321C1.80454 706.379 4.77868 711.943 9.14611 716.311C13.5135 720.679 19.0781 723.653 25.1361 724.859C31.194 726.064 37.4734 725.446 43.1799 723.082C48.8865 720.718 53.764 716.716 57.1956 711.58C60.6273 706.444 62.4589 700.406 62.4589 694.229C62.4598 690.128 61.6527 686.067 60.0837 682.278C58.5148 678.489 56.2146 675.046 53.3148 672.146C50.4149 669.246 46.9721 666.945 43.1831 665.376C39.394 663.807 35.3329 662.999 31.2317 663V663ZM31.2317 719.412C26.2504 719.413 21.3808 717.936 17.2387 715.169C13.0967 712.402 9.8683 708.468 7.96182 703.866C6.05533 699.264 5.55639 694.2 6.52809 689.314C7.4998 684.429 9.8985 679.941 13.4208 676.419C16.9432 672.896 21.431 670.498 26.3166 669.526C31.2023 668.554 36.2664 669.053 40.8685 670.96C45.4705 672.866 49.4039 676.094 52.1711 680.236C54.9383 684.378 56.4151 689.248 56.4146 694.229C56.4152 697.537 55.7643 700.812 54.4989 703.867C53.2336 706.923 51.3786 709.699 49.0401 712.038C46.7015 714.376 43.9251 716.231 40.8695 717.497C37.8139 718.762 34.539 719.413 31.2317 719.412V719.412ZM39.0142 706.266L28.3226 698.488C28.1316 698.347 27.9763 698.163 27.8692 697.951C27.762 697.739 27.706 697.505 27.7055 697.267V676.601C27.7061 676.2 27.8653 675.816 28.1483 675.533C28.4313 675.249 28.815 675.09 29.2155 675.089H33.2457C33.6462 675.09 34.0299 675.249 34.3129 675.533C34.5959 675.816 34.7551 676.2 34.7557 676.601V694.442L43.1756 700.563C43.3364 700.68 43.4726 700.828 43.5762 700.998C43.6798 701.168 43.7488 701.356 43.7793 701.553C43.8097 701.749 43.801 701.95 43.7537 702.143C43.7063 702.337 43.6212 702.519 43.5033 702.679L41.1277 705.947C40.8894 706.27 40.5334 706.485 40.1372 706.546C39.741 706.608 39.3366 706.51 39.012 706.275L39.0142 706.266Z" fill="#0355D1"/>
<path d="M31.2295 528H31.2299C34.9371 527.999 38.6082 528.729 42.0333 530.148C45.4585 531.566 48.5706 533.645 51.192 536.267C53.8134 538.888 55.8927 542 57.3112 545.426C58.7297 548.851 59.4595 552.522 59.4589 556.229V556.229C59.4589 561.813 57.8033 567.271 54.7014 571.913C51.5995 576.555 47.1907 580.173 42.0324 582.31C36.8742 584.447 31.1982 585.006 25.7222 583.916C20.2462 582.827 15.2162 580.139 11.2682 576.191C7.32027 572.243 4.63168 567.213 3.54244 561.737C2.4532 556.261 3.01223 550.585 5.14885 545.427C7.28548 540.268 10.9037 535.859 15.546 532.758C20.1883 529.656 25.6462 528 31.2295 528Z" fill="white" stroke="#27C100" stroke-width="6"/>
<path d="M31.2317 525C25.055 525 19.0169 526.831 13.881 530.262C8.745 533.693 4.74189 538.57 2.37786 544.277C0.0138323 549.983 -0.604936 556.263 0.599804 562.321C1.80454 568.379 4.77868 573.943 9.14611 578.311C13.5135 582.679 19.0781 585.653 25.1361 586.859C31.194 588.064 37.4734 587.446 43.1799 585.082C48.8865 582.718 53.764 578.716 57.1956 573.58C60.6273 568.444 62.4589 562.406 62.4589 556.229C62.4598 552.128 61.6527 548.067 60.0837 544.278C58.5148 540.489 56.2146 537.046 53.3148 534.146C50.4149 531.246 46.9721 528.945 43.1831 527.376C39.394 525.807 35.3329 524.999 31.2317 525V525ZM31.2317 581.412C26.2504 581.413 21.3808 579.936 17.2387 577.169C13.0967 574.402 9.8683 570.468 7.96182 565.866C6.05533 561.264 5.55639 556.2 6.52809 551.314C7.4998 546.429 9.8985 541.941 13.4208 538.419C16.9432 534.896 21.431 532.498 26.3166 531.526C31.2023 530.554 36.2664 531.053 40.8685 532.96C45.4705 534.866 49.4039 538.094 52.1711 542.236C54.9383 546.378 56.4151 551.248 56.4146 556.229C56.4152 559.537 55.7643 562.812 54.4989 565.867C53.2336 568.923 51.3786 571.699 49.0401 574.038C46.7015 576.376 43.9251 578.231 40.8695 579.497C37.8139 580.762 34.539 581.413 31.2317 581.412V581.412ZM39.0142 568.266L28.3226 560.488C28.1316 560.347 27.9763 560.163 27.8692 559.951C27.762 559.739 27.706 559.505 27.7055 559.267V538.601C27.7061 538.2 27.8653 537.816 28.1483 537.533C28.4313 537.249 28.815 537.09 29.2155 537.089H33.2457C33.6462 537.09 34.0299 537.249 34.3129 537.533C34.5959 537.816 34.7551 538.2 34.7557 538.601V556.442L43.1756 562.563C43.3364 562.68 43.4726 562.828 43.5762 562.998C43.6798 563.168 43.7488 563.356 43.7793 563.553C43.8097 563.749 43.801 563.95 43.7537 564.143C43.7063 564.337 43.6212 564.519 43.5033 564.679L41.1277 567.947C40.8894 568.27 40.5334 568.485 40.1372 568.546C39.741 568.608 39.3366 568.51 39.012 568.275L39.0142 568.266Z" fill="#0355D1"/>
<path d="M31.2295 415H31.2299C34.9371 414.999 38.6082 415.729 42.0333 417.148C45.4585 418.566 48.5706 420.645 51.192 423.267C53.8134 425.888 55.8927 429 57.3112 432.426C58.7297 435.851 59.4595 439.522 59.4589 443.229V443.229C59.4589 448.813 57.8033 454.271 54.7014 458.913C51.5995 463.555 47.1907 467.173 42.0324 469.31C36.8742 471.447 31.1982 472.006 25.7222 470.916C20.2462 469.827 15.2162 467.139 11.2682 463.191C7.32027 459.243 4.63168 454.213 3.54244 448.737C2.4532 443.261 3.01223 437.585 5.14885 432.427C7.28548 427.268 10.9037 422.859 15.546 419.758C20.1883 416.656 25.6462 415 31.2295 415Z" fill="white" stroke="#27C100" stroke-width="6"/>
<path d="M31.2317 412C25.055 412 19.0169 413.831 13.881 417.262C8.745 420.693 4.74189 425.57 2.37786 431.277C0.0138323 436.983 -0.604936 443.263 0.599804 449.321C1.80454 455.379 4.77868 460.943 9.14611 465.311C13.5135 469.679 19.0781 472.653 25.1361 473.859C31.194 475.064 37.4734 474.446 43.1799 472.082C48.8865 469.718 53.764 465.716 57.1956 460.58C60.6273 455.444 62.4589 449.406 62.4589 443.229C62.4598 439.128 61.6527 435.067 60.0837 431.278C58.5148 427.489 56.2146 424.046 53.3148 421.146C50.4149 418.246 46.9721 415.945 43.1831 414.376C39.394 412.807 35.3329 411.999 31.2317 412V412ZM31.2317 468.412C26.2504 468.413 21.3808 466.936 17.2387 464.169C13.0967 461.402 9.8683 457.468 7.96182 452.866C6.05533 448.264 5.55639 443.2 6.52809 438.314C7.4998 433.429 9.8985 428.941 13.4208 425.419C16.9432 421.896 21.431 419.498 26.3166 418.526C31.2023 417.554 36.2664 418.053 40.8685 419.96C45.4705 421.866 49.4039 425.094 52.1711 429.236C54.9383 433.378 56.4151 438.248 56.4146 443.229C56.4152 446.537 55.7643 449.812 54.4989 452.867C53.2336 455.923 51.3786 458.699 49.0401 461.038C46.7015 463.376 43.9251 465.231 40.8695 466.497C37.8139 467.762 34.539 468.413 31.2317 468.412V468.412ZM39.0142 455.266L28.3226 447.488C28.1316 447.347 27.9763 447.163 27.8692 446.951C27.762 446.739 27.706 446.505 27.7055 446.267V425.601C27.7061 425.2 27.8653 424.816 28.1483 424.533C28.4313 424.249 28.815 424.09 29.2155 424.089H33.2457C33.6462 424.09 34.0299 424.249 34.3129 424.533C34.5959 424.816 34.7551 425.2 34.7557 425.601V443.442L43.1756 449.563C43.3364 449.68 43.4726 449.828 43.5762 449.998C43.6798 450.168 43.7488 450.356 43.7793 450.553C43.8097 450.749 43.801 450.95 43.7537 451.143C43.7063 451.337 43.6212 451.519 43.5033 451.679L41.1277 454.947C40.8894 455.27 40.5334 455.485 40.1372 455.546C39.741 455.608 39.3366 455.51 39.012 455.275L39.0142 455.266Z" fill="#0355D1"/>
<path d="M31.2295 302H31.2299C34.9371 301.999 38.6082 302.729 42.0333 304.148C45.4585 305.566 48.5706 307.645 51.192 310.267C53.8134 312.888 55.8927 316 57.3112 319.426C58.7297 322.851 59.4595 326.522 59.4589 330.229V330.229C59.4589 335.813 57.8033 341.271 54.7014 345.913C51.5995 350.555 47.1907 354.173 42.0324 356.31C36.8742 358.447 31.1982 359.006 25.7222 357.916C20.2462 356.827 15.2162 354.139 11.2682 350.191C7.32027 346.243 4.63168 341.213 3.54244 335.737C2.4532 330.261 3.01223 324.585 5.14885 319.427C7.28548 314.268 10.9037 309.859 15.546 306.758C20.1883 303.656 25.6462 302 31.2295 302Z" fill="white" stroke="#0355D1" stroke-width="6"/>
<path d="M43.25 311H18.75C17.7835 311 17 311.797 17 312.781V313.969C17 314.953 17.7835 315.75 18.75 315.75C18.75 322.501 22.4699 328.199 27.5614 330C22.4699 331.801 18.75 337.499 18.75 344.25C17.7835 344.25 17 345.047 17 346.031V347.219C17 348.203 17.7835 349 18.75 349H43.25C44.2165 349 45 348.203 45 347.219V346.031C45 345.047 44.2165 344.25 43.25 344.25C43.25 337.499 39.5301 331.801 34.4386 330C39.5301 328.199 43.25 322.501 43.25 315.75C44.2165 315.75 45 314.953 45 313.969V312.781C45 311.797 44.2165 311 43.25 311ZM37.7756 339.5H24.2246C25.4685 336.027 28.0232 333.562 31 333.562C33.9765 333.562 36.5316 336.026 37.7756 339.5ZM37.7769 320.5H24.2244C23.7075 319.056 23.4167 317.438 23.4167 315.75H38.5833C38.5833 317.443 38.2926 319.059 37.7769 320.5V320.5Z" fill="#0355D1"/>
<path d="M31.2295 166H31.2299C34.9371 165.999 38.6082 166.729 42.0333 168.148C45.4585 169.566 48.5706 171.645 51.192 174.267C53.8134 176.888 55.8927 180 57.3112 183.426C58.7297 186.851 59.4595 190.522 59.4589 194.229V194.229C59.4589 199.813 57.8033 205.271 54.7014 209.913C51.5995 214.555 47.1907 218.173 42.0324 220.31C36.8742 222.447 31.1982 223.006 25.7222 221.916C20.2462 220.827 15.2162 218.139 11.2682 214.191C7.32027 210.243 4.63168 205.213 3.54244 199.737C2.4532 194.261 3.01223 188.585 5.14885 183.427C7.28548 178.268 10.9037 173.859 15.546 170.758C20.1883 167.656 25.6462 166 31.2295 166Z" fill="white" stroke="#27C100" stroke-width="6"/>
<path d="M25.1967 207.395L13.7888 196.347C13.6255 196.189 13.4958 196.001 13.4074 195.795C13.319 195.588 13.2734 195.367 13.2734 195.143C13.2734 194.919 13.319 194.698 13.4074 194.491C13.4958 194.285 13.6255 194.097 13.7888 193.939L16.2655 191.538C16.4287 191.379 16.6224 191.254 16.8357 191.168C17.0489 191.083 17.2775 191.038 17.5084 191.038C17.7393 191.038 17.9679 191.083 18.1811 191.168C18.3944 191.254 18.5881 191.379 18.7513 191.538L26.4425 198.987L42.9149 183.019C43.078 182.86 43.2717 182.735 43.485 182.649C43.6982 182.564 43.9268 182.519 44.1577 182.519C44.3886 182.519 44.6172 182.564 44.8305 182.649C45.0437 182.735 45.2375 182.86 45.4006 183.019L47.8833 185.426C48.0467 185.584 48.1763 185.772 48.2647 185.978C48.3532 186.185 48.3987 186.406 48.3987 186.63C48.3987 186.853 48.3532 187.075 48.2647 187.281C48.1763 187.488 48.0467 187.675 47.8833 187.833L27.6734 207.395C27.5103 207.553 27.3165 207.679 27.1033 207.765C26.89 207.85 26.6614 207.894 26.4305 207.894C26.1997 207.894 25.9711 207.85 25.7578 207.765C25.5445 207.679 25.3508 207.553 25.1877 207.395H25.1967Z" fill="#27C100"/>
<path d="M31.2317 27C25.055 26.9996 19.0169 28.8307 13.881 32.262C8.745 35.6933 4.74189 40.5705 2.37786 46.2769C0.0138323 51.9833 -0.604936 58.2626 0.599804 64.3206C1.80454 70.3787 4.77868 75.9435 9.14611 80.3112C13.5135 84.6789 19.0781 87.6535 25.1361 88.8587C31.194 90.0638 37.4734 89.4455 43.1799 87.0819C48.8865 84.7183 53.764 80.7155 57.1956 75.5798C60.6273 70.4441 62.4589 64.4061 62.4589 58.2294C62.4598 54.1283 61.6527 50.0671 60.0837 46.2779C58.5148 42.4887 56.2146 39.0458 53.3148 36.1457C50.4149 33.2456 46.9721 30.9453 43.1831 29.376C39.394 27.8068 35.3329 26.9994 31.2317 27V27ZM31.2317 83.4124C26.2504 83.4128 21.3808 81.9361 17.2387 79.1688C13.0967 76.4016 9.8683 72.4683 7.96182 67.8662C6.05533 63.2641 5.55639 58.2 6.52809 53.3144C7.4998 48.4287 9.8985 43.9409 13.4208 40.4186C16.9432 36.8962 21.431 34.4975 26.3166 33.5258C31.2023 32.5541 36.2664 33.0531 40.8685 34.9595C45.4705 36.866 49.4039 40.0944 52.1711 44.2365C54.9383 48.3785 56.4151 53.2481 56.4146 58.2294C56.4152 61.5367 55.7643 64.8116 54.4989 67.8672C53.2336 70.9228 51.3786 73.6992 49.0401 76.0378C46.7015 78.3764 43.9251 80.2313 40.8695 81.4966C37.8139 82.762 34.539 83.413 31.2317 83.4124V83.4124ZM39.0142 70.266L28.3226 62.488C28.1316 62.3468 27.9763 62.1629 27.8692 61.951C27.762 61.739 27.706 61.5049 27.7055 61.2674V40.6007C27.7061 40.2002 27.8653 39.8163 28.1483 39.5329C28.4313 39.2495 28.815 39.0897 29.2155 39.0885H33.2457C33.6462 39.0897 34.0299 39.2495 34.3129 39.5329C34.5959 39.8163 34.7551 40.2002 34.7557 40.6007V58.4419L43.1756 64.563C43.3364 64.6801 43.4726 64.8278 43.5762 64.9977C43.6798 65.1675 43.7488 65.3562 43.7793 65.5528C43.8097 65.7494 43.801 65.9501 43.7537 66.1433C43.7063 66.3365 43.6212 66.5185 43.5033 66.6788L41.1277 69.9473C40.8894 70.2697 40.5334 70.485 40.1372 70.5463C39.741 70.6077 39.3366 70.5102 39.012 70.275L39.0142 70.266Z" fill="#0355D1"/>
<path d="M31.2295 30H31.2299C34.9371 29.9995 38.6082 30.7293 42.0333 32.1477C45.4585 33.5662 48.5706 35.6455 51.192 38.2669C53.8134 40.8883 55.8927 44.0005 57.3112 47.4256C58.7297 50.8508 59.4595 54.5218 59.4589 58.229V58.2295C59.4589 63.8127 57.8033 69.2706 54.7014 73.9129C51.5995 78.5552 47.1907 82.1735 42.0324 84.3101C36.8742 86.4467 31.1982 87.0057 25.7222 85.9165C20.2462 84.8273 15.2162 82.1387 11.2682 78.1907C7.32027 74.2427 4.63168 69.2127 3.54244 63.7368C2.4532 58.2608 3.01223 52.5848 5.14885 47.4265C7.28548 42.2683 10.9037 37.8594 15.546 34.7575C20.1883 31.6556 25.6462 30 31.2295 30Z" fill="white" stroke="#27C100" stroke-width="6"/>
<path d="M25.1967 71.3755L13.7888 60.3269C13.6255 60.1689 13.4958 59.9813 13.4074 59.7747C13.319 59.5682 13.2734 59.3468 13.2734 59.1232C13.2734 58.8996 13.319 58.6782 13.4074 58.4716C13.4958 58.2651 13.6255 58.0774 13.7888 57.9195L16.2655 55.5178C16.4287 55.3596 16.6224 55.2341 16.8357 55.1484C17.0489 55.0628 17.2775 55.0187 17.5084 55.0187C17.7393 55.0187 17.9679 55.0628 18.1811 55.1484C18.3944 55.2341 18.5881 55.3596 18.7513 55.5178L26.4425 62.9669L42.9149 46.9988C43.078 46.8406 43.2717 46.715 43.485 46.6294C43.6982 46.5437 43.9268 46.4996 44.1577 46.4996C44.3886 46.4996 44.6172 46.5437 44.8305 46.6294C45.0437 46.715 45.2375 46.8406 45.4006 46.9988L47.8833 49.4062C48.0467 49.5642 48.1763 49.7518 48.2647 49.9584C48.3532 50.1649 48.3987 50.3864 48.3987 50.61C48.3987 50.8336 48.3532 51.055 48.2647 51.2615C48.1763 51.4681 48.0467 51.6557 47.8833 51.8137L27.6734 71.3755C27.5103 71.5337 27.3165 71.6592 27.1033 71.7449C26.89 71.8305 26.6614 71.8746 26.4305 71.8746C26.1997 71.8746 25.9711 71.8305 25.7578 71.7449C25.5445 71.6592 25.3508 71.5337 25.1877 71.3755H25.1967Z" fill="#27C100"/>
</svg>
