<svg width="64" height="879" viewBox="0 0 64 879" fill="none" xmlns="http://www.w3.org/2000/svg">
<path d="M31.9532 0.665039L31.9532 878.665" stroke="#27C100" stroke-width="5.9146"/>
<path d="M32.1826 798.665H32.183C35.8903 798.665 39.5613 799.394 42.9864 800.813C46.4116 802.231 49.5237 804.311 52.1451 806.932C54.7666 809.553 56.8459 812.666 58.2643 816.091C59.6828 819.516 60.4126 823.187 60.4121 826.894V826.894C60.4121 832.478 58.7564 837.936 55.6545 842.578C52.5526 847.22 48.1438 850.838 42.9855 852.975C37.8273 855.112 32.1513 855.671 26.6753 854.582C21.1993 853.492 16.1693 850.804 12.2214 846.856C8.27339 842.908 5.5848 837.878 4.49556 832.402C3.40632 826.926 3.96536 821.25 6.10198 816.092C8.2386 810.933 11.8568 806.524 16.4992 803.423C21.1415 800.321 26.5993 798.665 32.1826 798.665Z" fill="white" stroke="#27C100" stroke-width="6"/>
<path d="M26.1498 840.06L14.742 829.012C14.5786 828.854 14.449 828.666 14.3605 828.46C14.2721 828.253 14.2266 828.032 14.2266 827.808C14.2266 827.585 14.2721 827.363 14.3605 827.157C14.449 826.95 14.5786 826.762 14.742 826.604L17.2187 824.203C17.3818 824.045 17.5755 823.919 17.7888 823.833C18.002 823.748 18.2307 823.704 18.4615 823.704C18.6924 823.704 18.921 823.748 19.1343 823.833C19.3475 823.919 19.5413 824.045 19.7044 824.203L27.3957 831.652L43.868 815.684C44.0311 815.526 44.2248 815.4 44.4381 815.314C44.6514 815.229 44.88 815.185 45.1108 815.185C45.3417 815.185 45.5703 815.229 45.7836 815.314C45.9968 815.4 46.1906 815.526 46.3537 815.684L48.8364 818.091C48.9998 818.249 49.1294 818.437 49.2178 818.643C49.3063 818.85 49.3518 819.071 49.3518 819.295C49.3518 819.519 49.3063 819.74 49.2178 819.946C49.1294 820.153 48.9998 820.341 48.8364 820.499L28.6265 840.06C28.4634 840.219 28.2697 840.344 28.0564 840.43C27.8431 840.515 27.6145 840.56 27.3837 840.56C27.1528 840.56 26.9242 840.515 26.7109 840.43C26.4977 840.344 26.3039 840.219 26.1408 840.06H26.1498Z" fill="#27C100"/>
<path d="M32.1826 657.665H32.183C35.8903 657.665 39.5613 658.394 42.9864 659.813C46.4116 661.231 49.5237 663.311 52.1451 665.932C54.7666 668.553 56.8459 671.666 58.2643 675.091C59.6828 678.516 60.4126 682.187 60.4121 685.894V685.894C60.4121 691.478 58.7564 696.936 55.6545 701.578C52.5526 706.22 48.1438 709.838 42.9855 711.975C37.8273 714.112 32.1513 714.671 26.6753 713.582C21.1993 712.492 16.1693 709.804 12.2214 705.856C8.27339 701.908 5.5848 696.878 4.49556 691.402C3.40632 685.926 3.96536 680.25 6.10198 675.092C8.2386 669.933 11.8568 665.524 16.4992 662.423C21.1415 659.321 26.5993 657.665 32.1826 657.665Z" fill="white" stroke="#27C100" stroke-width="6"/>
<path d="M26.1498 699.06L14.742 688.012C14.5786 687.854 14.449 687.666 14.3605 687.46C14.2721 687.253 14.2266 687.032 14.2266 686.808C14.2266 686.585 14.2721 686.363 14.3605 686.157C14.449 685.95 14.5786 685.762 14.742 685.604L17.2187 683.203C17.3818 683.045 17.5755 682.919 17.7888 682.833C18.002 682.748 18.2307 682.704 18.4615 682.704C18.6924 682.704 18.921 682.748 19.1343 682.833C19.3475 682.919 19.5413 683.045 19.7044 683.203L27.3957 690.652L43.868 674.684C44.0311 674.526 44.2248 674.4 44.4381 674.314C44.6514 674.229 44.88 674.185 45.1108 674.185C45.3417 674.185 45.5703 674.229 45.7836 674.314C45.9968 674.4 46.1906 674.526 46.3537 674.684L48.8364 677.091C48.9998 677.249 49.1294 677.437 49.2178 677.643C49.3063 677.85 49.3518 678.071 49.3518 678.295C49.3518 678.519 49.3063 678.74 49.2178 678.946C49.1294 679.153 48.9998 679.341 48.8364 679.499L28.6265 699.06C28.4634 699.219 28.2697 699.344 28.0564 699.43C27.8431 699.515 27.6145 699.56 27.3837 699.56C27.1528 699.56 26.9242 699.515 26.7109 699.43C26.4977 699.344 26.3039 699.219 26.1408 699.06H26.1498Z" fill="#27C100"/>
<path d="M32.1826 518.665H32.183C35.8903 518.665 39.5613 519.394 42.9864 520.813C46.4116 522.231 49.5237 524.311 52.1451 526.932C54.7666 529.553 56.8459 532.666 58.2643 536.091C59.6828 539.516 60.4126 543.187 60.4121 546.894V546.894C60.4121 552.478 58.7564 557.936 55.6545 562.578C52.5526 567.22 48.1438 570.838 42.9855 572.975C37.8273 575.112 32.1513 575.671 26.6753 574.582C21.1993 573.492 16.1693 570.804 12.2214 566.856C8.27339 562.908 5.5848 557.878 4.49556 552.402C3.40632 546.926 3.96536 541.25 6.10198 536.092C8.2386 530.933 11.8568 526.524 16.4992 523.423C21.1415 520.321 26.5993 518.665 32.1826 518.665Z" fill="white" stroke="#27C100" stroke-width="6"/>
<path d="M26.1498 560.06L14.742 549.012C14.5786 548.854 14.449 548.666 14.3605 548.46C14.2721 548.253 14.2266 548.032 14.2266 547.808C14.2266 547.585 14.2721 547.363 14.3605 547.157C14.449 546.95 14.5786 546.762 14.742 546.604L17.2187 544.203C17.3818 544.045 17.5755 543.919 17.7888 543.833C18.002 543.748 18.2307 543.704 18.4615 543.704C18.6924 543.704 18.921 543.748 19.1343 543.833C19.3475 543.919 19.5413 544.045 19.7044 544.203L27.3957 551.652L43.868 535.684C44.0311 535.526 44.2248 535.4 44.4381 535.314C44.6514 535.229 44.88 535.185 45.1108 535.185C45.3417 535.185 45.5703 535.229 45.7836 535.314C45.9968 535.4 46.1906 535.526 46.3537 535.684L48.8364 538.091C48.9998 538.249 49.1294 538.437 49.2178 538.643C49.3063 538.85 49.3518 539.071 49.3518 539.295C49.3518 539.519 49.3063 539.74 49.2178 539.946C49.1294 540.153 48.9998 540.341 48.8364 540.499L28.6265 560.06C28.4634 560.219 28.2697 560.344 28.0564 560.43C27.8431 560.515 27.6145 560.56 27.3837 560.56C27.1528 560.56 26.9242 560.515 26.7109 560.43C26.4977 560.344 26.3039 560.219 26.1408 560.06H26.1498Z" fill="#27C100"/>
<path d="M32.1826 405.665H32.183C35.8903 405.665 39.5613 406.394 42.9864 407.813C46.4116 409.231 49.5237 411.311 52.1451 413.932C54.7666 416.553 56.8459 419.666 58.2643 423.091C59.6828 426.516 60.4126 430.187 60.4121 433.894V433.894C60.4121 439.478 58.7564 444.936 55.6545 449.578C52.5526 454.22 48.1438 457.838 42.9855 459.975C37.8273 462.112 32.1513 462.671 26.6753 461.582C21.1993 460.492 16.1693 457.804 12.2214 453.856C8.27339 449.908 5.5848 444.878 4.49556 439.402C3.40632 433.926 3.96536 428.25 6.10198 423.092C8.2386 417.933 11.8568 413.524 16.4992 410.423C21.1415 407.321 26.5993 405.665 32.1826 405.665Z" fill="white" stroke="#27C100" stroke-width="6"/>
<path d="M26.1498 447.06L14.742 436.012C14.5786 435.854 14.449 435.666 14.3605 435.46C14.2721 435.253 14.2266 435.032 14.2266 434.808C14.2266 434.585 14.2721 434.363 14.3605 434.157C14.449 433.95 14.5786 433.762 14.742 433.604L17.2187 431.203C17.3818 431.045 17.5755 430.919 17.7888 430.833C18.002 430.748 18.2307 430.704 18.4615 430.704C18.6924 430.704 18.921 430.748 19.1343 430.833C19.3475 430.919 19.5413 431.045 19.7044 431.203L27.3957 438.652L43.868 422.684C44.0311 422.526 44.2248 422.4 44.4381 422.314C44.6514 422.229 44.88 422.185 45.1108 422.185C45.3417 422.185 45.5703 422.229 45.7836 422.314C45.9968 422.4 46.1906 422.526 46.3537 422.684L48.8364 425.091C48.9998 425.249 49.1294 425.437 49.2178 425.643C49.3063 425.85 49.3518 426.071 49.3518 426.295C49.3518 426.519 49.3063 426.74 49.2178 426.946C49.1294 427.153 48.9998 427.341 48.8364 427.499L28.6265 447.06C28.4634 447.219 28.2697 447.344 28.0564 447.43C27.8431 447.515 27.6145 447.56 27.3837 447.56C27.1528 447.56 26.9242 447.515 26.7109 447.43C26.4977 447.344 26.3039 447.219 26.1408 447.06H26.1498Z" fill="#27C100"/>
<path d="M32.1826 292.665H32.183C35.8903 292.665 39.5613 293.394 42.9864 294.813C46.4116 296.231 49.5237 298.311 52.1451 300.932C54.7666 303.553 56.8459 306.666 58.2643 310.091C59.6828 313.516 60.4126 317.187 60.4121 320.894V320.894C60.4121 326.478 58.7564 331.936 55.6545 336.578C52.5526 341.22 48.1438 344.838 42.9855 346.975C37.8273 349.112 32.1513 349.671 26.6753 348.582C21.1993 347.492 16.1693 344.804 12.2214 340.856C8.27339 336.908 5.5848 331.878 4.49556 326.402C3.40632 320.926 3.96536 315.25 6.10198 310.092C8.2386 304.933 11.8568 300.524 16.4992 297.423C21.1415 294.321 26.5993 292.665 32.1826 292.665Z" fill="white" stroke="#27C100" stroke-width="6"/>
<path d="M26.1498 334.06L14.742 323.012C14.5786 322.854 14.449 322.666 14.3605 322.46C14.2721 322.253 14.2266 322.032 14.2266 321.808C14.2266 321.585 14.2721 321.363 14.3605 321.157C14.449 320.95 14.5786 320.762 14.742 320.604L17.2187 318.203C17.3818 318.045 17.5755 317.919 17.7888 317.833C18.002 317.748 18.2307 317.704 18.4615 317.704C18.6924 317.704 18.921 317.748 19.1343 317.833C19.3475 317.919 19.5413 318.045 19.7044 318.203L27.3957 325.652L43.868 309.684C44.0311 309.526 44.2248 309.4 44.4381 309.314C44.6514 309.229 44.88 309.185 45.1108 309.185C45.3417 309.185 45.5703 309.229 45.7836 309.314C45.9968 309.4 46.1906 309.526 46.3537 309.684L48.8364 312.091C48.9998 312.249 49.1294 312.437 49.2178 312.643C49.3063 312.85 49.3518 313.071 49.3518 313.295C49.3518 313.519 49.3063 313.74 49.2178 313.946C49.1294 314.153 48.9998 314.341 48.8364 314.499L28.6265 334.06C28.4634 334.219 28.2697 334.344 28.0564 334.43C27.8431 334.515 27.6145 334.56 27.3837 334.56C27.1528 334.56 26.9242 334.515 26.7109 334.43C26.4977 334.344 26.3039 334.219 26.1408 334.06H26.1498Z" fill="#27C100"/>
<path d="M32.1826 156.665H32.183C35.8903 156.665 39.5613 157.394 42.9864 158.813C46.4116 160.231 49.5237 162.311 52.1451 164.932C54.7666 167.553 56.8459 170.666 58.2643 174.091C59.6828 177.516 60.4126 181.187 60.4121 184.894V184.894C60.4121 190.478 58.7564 195.936 55.6545 200.578C52.5526 205.22 48.1438 208.838 42.9855 210.975C37.8273 213.112 32.1513 213.671 26.6753 212.582C21.1993 211.492 16.1693 208.804 12.2214 204.856C8.27339 200.908 5.5848 195.878 4.49556 190.402C3.40632 184.926 3.96536 179.25 6.10198 174.092C8.2386 168.933 11.8568 164.524 16.4992 161.423C21.1415 158.321 26.5993 156.665 32.1826 156.665Z" fill="white" stroke="#27C100" stroke-width="6"/>
<path d="M26.1498 198.06L14.742 187.012C14.5786 186.854 14.449 186.666 14.3605 186.46C14.2721 186.253 14.2266 186.032 14.2266 185.808C14.2266 185.585 14.2721 185.363 14.3605 185.157C14.449 184.95 14.5786 184.762 14.742 184.604L17.2187 182.203C17.3818 182.045 17.5755 181.919 17.7888 181.833C18.002 181.748 18.2307 181.704 18.4615 181.704C18.6924 181.704 18.921 181.748 19.1343 181.833C19.3475 181.919 19.5413 182.045 19.7044 182.203L27.3957 189.652L43.868 173.684C44.0311 173.526 44.2248 173.4 44.4381 173.314C44.6514 173.229 44.88 173.185 45.1108 173.185C45.3417 173.185 45.5703 173.229 45.7836 173.314C45.9968 173.4 46.1906 173.526 46.3537 173.684L48.8364 176.091C48.9998 176.249 49.1294 176.437 49.2178 176.643C49.3063 176.85 49.3518 177.071 49.3518 177.295C49.3518 177.519 49.3063 177.74 49.2178 177.946C49.1294 178.153 48.9998 178.341 48.8364 178.499L28.6265 198.06C28.4634 198.219 28.2697 198.344 28.0564 198.43C27.8431 198.515 27.6145 198.56 27.3837 198.56C27.1528 198.56 26.9242 198.515 26.7109 198.43C26.4977 198.344 26.3039 198.219 26.1408 198.06H26.1498Z" fill="#27C100"/>
<path d="M32.1848 17.665C26.0081 17.6646 19.97 19.4958 14.8341 22.9271C9.69812 26.3583 5.69502 31.2355 3.33099 36.9419C0.966957 42.6483 0.348189 48.9276 1.55293 54.9857C2.75767 61.0437 5.73181 66.6085 10.0992 70.9762C14.4667 75.344 20.0312 78.3185 26.0892 79.5237C32.1472 80.7289 38.4265 80.1106 44.133 77.7469C49.8396 75.3833 54.7171 71.3806 58.1488 66.2449C61.5804 61.1092 63.412 55.0712 63.412 48.8945C63.4129 44.7933 62.6058 40.7321 61.0369 36.943C59.4679 33.1538 57.1678 29.7108 54.2679 26.8107C51.3681 23.9107 47.9253 21.6103 44.1362 20.0411C40.3471 18.4718 36.286 17.6644 32.1848 17.665V17.665ZM32.1848 74.0774C27.2035 74.0779 22.3339 72.6011 18.1919 69.8339C14.0498 67.0667 10.8214 63.1333 8.91494 58.5312C7.00846 53.9291 6.50951 48.8651 7.48122 43.9794C8.45292 39.0937 10.8516 34.606 14.374 31.0836C17.8963 27.5613 22.3841 25.1626 27.2698 24.1909C32.1554 23.2192 37.2195 23.7181 41.8216 25.6246C46.4237 27.5311 50.357 30.7595 53.1242 34.9015C55.8914 39.0435 57.3682 43.9131 57.3678 48.8945C57.3684 52.2017 56.7174 55.4767 55.452 58.5323C54.1867 61.5879 52.3317 64.3643 49.9932 66.7028C47.6546 69.0414 44.8782 70.8963 41.8226 72.1617C38.767 73.427 35.4921 74.078 32.1848 74.0774V74.0774ZM39.9673 60.931L29.2757 53.153C29.0847 53.0119 28.9294 52.828 28.8223 52.616C28.7151 52.404 28.6591 52.1699 28.6586 51.9324V31.2658C28.6592 30.8653 28.8184 30.4813 29.1014 30.1979C29.3844 29.9145 29.7681 29.7548 30.1686 29.7536H34.1988C34.5993 29.7548 34.983 29.9145 35.266 30.1979C35.549 30.4813 35.7082 30.8653 35.7088 31.2658V49.107L44.1287 55.2281C44.2896 55.3451 44.4257 55.4928 44.5293 55.6627C44.6329 55.8325 44.7019 56.0212 44.7324 56.2178C44.7628 56.4144 44.7541 56.6151 44.7068 56.8083C44.6594 57.0016 44.5744 57.1835 44.4565 57.3438L42.0808 60.6123C41.8425 60.9347 41.4865 61.15 41.0904 61.2114C40.6942 61.2728 40.2898 61.1753 39.9651 60.9401L39.9673 60.931Z" fill="#0355D1"/>
<path d="M32.1826 20.665H32.183C35.8903 20.6645 39.5613 21.3943 42.9864 22.8128C46.4116 24.2312 49.5237 26.3105 52.1451 28.932C54.7666 31.5534 56.8459 34.6655 58.2643 38.0907C59.6828 41.5158 60.4126 45.1868 60.4121 48.8941V48.8945C60.4121 54.4778 58.7564 59.9356 55.6545 64.5779C52.5526 69.2203 48.1438 72.8385 42.9855 74.9751C37.8273 77.1117 32.1513 77.6708 26.6753 76.5815C21.1993 75.4923 16.1693 72.8037 12.2214 68.8557C8.27339 64.9078 5.5848 59.8778 4.49556 54.4018C3.40632 48.9258 3.96536 43.2498 6.10198 38.0916C8.2386 32.9333 11.8568 28.5245 16.4992 25.4226C21.1415 22.3207 26.5993 20.665 32.1826 20.665Z" fill="white" stroke="#27C100" stroke-width="6"/>
<path d="M26.1498 62.0406L14.742 50.992C14.5786 50.8341 14.449 50.6464 14.3605 50.4399C14.2721 50.2333 14.2266 50.0119 14.2266 49.7883C14.2266 49.5647 14.2721 49.3433 14.3605 49.1368C14.449 48.9302 14.5786 48.7426 14.742 48.5846L17.2187 46.183C17.3818 46.0248 17.5755 45.8992 17.7888 45.8136C18.002 45.7279 18.2307 45.6838 18.4615 45.6838C18.6924 45.6838 18.921 45.7279 19.1343 45.8136C19.3475 45.8992 19.5413 46.0248 19.7044 46.183L27.3957 53.6321L43.868 37.664C44.0311 37.5057 44.2248 37.3802 44.4381 37.2945C44.6514 37.2089 44.88 37.1648 45.1108 37.1648C45.3417 37.1648 45.5703 37.2089 45.7836 37.2945C45.9968 37.3802 46.1906 37.5057 46.3537 37.664L48.8364 40.0714C48.9998 40.2294 49.1294 40.417 49.2178 40.6236C49.3063 40.8301 49.3518 41.0515 49.3518 41.2751C49.3518 41.4987 49.3063 41.7201 49.2178 41.9267C49.1294 42.1332 48.9998 42.3209 48.8364 42.4788L28.6265 62.0406C28.4634 62.1989 28.2697 62.3244 28.0564 62.4101C27.8431 62.4957 27.6145 62.5398 27.3837 62.5398C27.1528 62.5398 26.9242 62.4957 26.7109 62.4101C26.4977 62.3244 26.3039 62.1989 26.1408 62.0406H26.1498Z" fill="#27C100"/>
</svg>
