<svg width="63" height="881" viewBox="0 0 63 881" fill="none" xmlns="http://www.w3.org/2000/svg">
<path d="M31.0742 0.665039L31.0742 421.665" stroke="#27C100" stroke-width="5.9146"/>
<path d="M31.0742 432.665L31.0742 880.665" stroke="#0355D1" stroke-width="5.9146"/>
<path d="M31.3037 800.665H31.3041C35.0114 800.665 38.6824 801.394 42.1075 802.813C45.5327 804.231 48.6448 806.311 51.2662 808.932C53.8876 811.553 55.967 814.666 57.3854 818.091C58.8039 821.516 59.5337 825.187 59.5331 828.894V828.894C59.5331 834.478 57.8775 839.936 54.7756 844.578C51.6737 849.22 47.2649 852.838 42.1066 854.975C36.9484 857.112 31.2724 857.671 25.7964 856.582C20.3204 855.492 15.2904 852.804 11.3424 848.856C7.39449 844.908 4.70589 839.878 3.61665 834.402C2.52741 828.926 3.08645 823.25 5.22307 818.092C7.35969 812.933 10.9779 808.524 15.6202 805.423C20.2626 802.321 25.7204 800.665 31.3037 800.665Z" fill="white" stroke="#27C100" stroke-width="6"/>
<path d="M31.3059 797.665C25.1292 797.665 19.0911 799.496 13.9552 802.927C8.81922 806.358 4.81611 811.236 2.45208 816.942C0.0880511 822.648 -0.530717 828.928 0.674023 834.986C1.87876 841.044 4.8529 846.608 9.22033 850.976C13.5878 855.344 19.1523 858.319 25.2103 859.524C31.2683 860.729 37.5476 860.111 43.2541 857.747C48.9607 855.383 53.8382 851.381 57.2698 846.245C60.7015 841.109 62.5331 835.071 62.5331 828.894C62.534 824.793 61.7269 820.732 60.158 816.943C58.589 813.154 56.2889 809.711 53.389 806.811C50.4891 803.911 47.0464 801.61 43.2573 800.041C39.4682 798.472 35.4071 797.664 31.3059 797.665V797.665ZM31.3059 854.077C26.3246 854.078 21.455 852.601 17.3129 849.834C13.1709 847.067 9.94252 843.133 8.03604 838.531C6.12955 833.929 5.63061 828.865 6.60231 823.979C7.57402 819.094 9.97272 814.606 13.4951 811.084C17.0174 807.561 21.5052 805.163 26.3908 804.191C31.2765 803.219 36.3406 803.718 40.9427 805.625C45.5448 807.531 49.4781 810.759 52.2453 814.901C55.0125 819.044 56.4893 823.913 56.4889 828.894C56.4895 832.202 55.8385 835.477 54.5731 838.532C53.3078 841.588 51.4528 844.364 49.1143 846.703C46.7757 849.041 43.9993 850.896 40.9437 852.162C37.8881 853.427 34.6132 854.078 31.3059 854.077V854.077ZM39.0884 840.931L28.3968 833.153C28.2058 833.012 28.0505 832.828 27.9434 832.616C27.8362 832.404 27.7802 832.17 27.7797 831.932V811.266C27.7803 810.865 27.9395 810.481 28.2225 810.198C28.5055 809.915 28.8892 809.755 29.2897 809.754H33.3199C33.7204 809.755 34.1041 809.915 34.3871 810.198C34.6701 810.481 34.8293 810.865 34.8299 811.266V829.107L43.2498 835.228C43.4107 835.345 43.5468 835.493 43.6504 835.663C43.754 835.833 43.823 836.021 43.8535 836.218C43.8839 836.414 43.8752 836.615 43.8279 836.808C43.7805 837.002 43.6955 837.184 43.5776 837.344L41.2019 840.612C40.9636 840.935 40.6076 841.15 40.2114 841.211C39.8153 841.273 39.4109 841.175 39.0862 840.94L39.0884 840.931Z" fill="#0355D1"/>
<path d="M31.3037 659.665H31.3041C35.0114 659.665 38.6824 660.394 42.1075 661.813C45.5327 663.231 48.6448 665.311 51.2662 667.932C53.8876 670.553 55.967 673.666 57.3854 677.091C58.8039 680.516 59.5337 684.187 59.5331 687.894V687.894C59.5331 693.478 57.8775 698.936 54.7756 703.578C51.6737 708.22 47.2649 711.838 42.1066 713.975C36.9484 716.112 31.2724 716.671 25.7964 715.582C20.3204 714.492 15.2904 711.804 11.3424 707.856C7.39449 703.908 4.70589 698.878 3.61665 693.402C2.52741 687.926 3.08645 682.25 5.22307 677.092C7.35969 671.933 10.9779 667.524 15.6202 664.423C20.2626 661.321 25.7204 659.665 31.3037 659.665Z" fill="white" stroke="#27C100" stroke-width="6"/>
<path d="M31.3059 656.665C25.1292 656.665 19.0911 658.496 13.9552 661.927C8.81922 665.358 4.81611 670.236 2.45208 675.942C0.0880511 681.648 -0.530717 687.928 0.674023 693.986C1.87876 700.044 4.8529 705.608 9.22033 709.976C13.5878 714.344 19.1523 717.319 25.2103 718.524C31.2683 719.729 37.5476 719.111 43.2541 716.747C48.9607 714.383 53.8382 710.381 57.2698 705.245C60.7015 700.109 62.5331 694.071 62.5331 687.894C62.534 683.793 61.7269 679.732 60.158 675.943C58.589 672.154 56.2889 668.711 53.389 665.811C50.4891 662.911 47.0464 660.61 43.2573 659.041C39.4682 657.472 35.4071 656.664 31.3059 656.665V656.665ZM31.3059 713.077C26.3246 713.078 21.455 711.601 17.3129 708.834C13.1709 706.067 9.94252 702.133 8.03604 697.531C6.12955 692.929 5.63061 687.865 6.60231 682.979C7.57402 678.094 9.97272 673.606 13.4951 670.084C17.0174 666.561 21.5052 664.163 26.3908 663.191C31.2765 662.219 36.3406 662.718 40.9427 664.625C45.5448 666.531 49.4781 669.759 52.2453 673.901C55.0125 678.044 56.4893 682.913 56.4889 687.894C56.4895 691.202 55.8385 694.477 54.5731 697.532C53.3078 700.588 51.4528 703.364 49.1143 705.703C46.7757 708.041 43.9993 709.896 40.9437 711.162C37.8881 712.427 34.6132 713.078 31.3059 713.077V713.077ZM39.0884 699.931L28.3968 692.153C28.2058 692.012 28.0505 691.828 27.9434 691.616C27.8362 691.404 27.7802 691.17 27.7797 690.932V670.266C27.7803 669.865 27.9395 669.481 28.2225 669.198C28.5055 668.915 28.8892 668.755 29.2897 668.754H33.3199C33.7204 668.755 34.1041 668.915 34.3871 669.198C34.6701 669.481 34.8293 669.865 34.8299 670.266V688.107L43.2498 694.228C43.4107 694.345 43.5468 694.493 43.6504 694.663C43.754 694.833 43.823 695.021 43.8535 695.218C43.8839 695.414 43.8752 695.615 43.8279 695.808C43.7805 696.002 43.6955 696.184 43.5776 696.344L41.2019 699.612C40.9636 699.935 40.6076 700.15 40.2114 700.211C39.8153 700.273 39.4109 700.175 39.0862 699.94L39.0884 699.931Z" fill="#0355D1"/>
<path d="M31.3037 520.665H31.3041C35.0114 520.665 38.6824 521.394 42.1075 522.813C45.5327 524.231 48.6448 526.311 51.2662 528.932C53.8876 531.553 55.967 534.666 57.3854 538.091C58.8039 541.516 59.5337 545.187 59.5331 548.894V548.894C59.5331 554.478 57.8775 559.936 54.7756 564.578C51.6737 569.22 47.2649 572.838 42.1066 574.975C36.9484 577.112 31.2724 577.671 25.7964 576.582C20.3204 575.492 15.2904 572.804 11.3424 568.856C7.39449 564.908 4.70589 559.878 3.61665 554.402C2.52741 548.926 3.08645 543.25 5.22307 538.092C7.35969 532.933 10.9779 528.524 15.6202 525.423C20.2626 522.321 25.7204 520.665 31.3037 520.665Z" fill="white" stroke="#27C100" stroke-width="6"/>
<path d="M31.3059 517.665C25.1292 517.665 19.0911 519.496 13.9552 522.927C8.81922 526.358 4.81611 531.236 2.45208 536.942C0.0880511 542.648 -0.530717 548.928 0.674023 554.986C1.87876 561.044 4.8529 566.608 9.22033 570.976C13.5878 575.344 19.1523 578.319 25.2103 579.524C31.2683 580.729 37.5476 580.111 43.2541 577.747C48.9607 575.383 53.8382 571.381 57.2698 566.245C60.7015 561.109 62.5331 555.071 62.5331 548.894C62.534 544.793 61.7269 540.732 60.158 536.943C58.589 533.154 56.2889 529.711 53.389 526.811C50.4891 523.911 47.0464 521.61 43.2573 520.041C39.4682 518.472 35.4071 517.664 31.3059 517.665V517.665ZM31.3059 574.077C26.3246 574.078 21.455 572.601 17.3129 569.834C13.1709 567.067 9.94252 563.133 8.03604 558.531C6.12955 553.929 5.63061 548.865 6.60231 543.979C7.57402 539.094 9.97272 534.606 13.4951 531.084C17.0174 527.561 21.5052 525.163 26.3908 524.191C31.2765 523.219 36.3406 523.718 40.9427 525.625C45.5448 527.531 49.4781 530.759 52.2453 534.901C55.0125 539.044 56.4893 543.913 56.4889 548.894C56.4895 552.202 55.8385 555.477 54.5731 558.532C53.3078 561.588 51.4528 564.364 49.1143 566.703C46.7757 569.041 43.9993 570.896 40.9437 572.162C37.8881 573.427 34.6132 574.078 31.3059 574.077V574.077ZM39.0884 560.931L28.3968 553.153C28.2058 553.012 28.0505 552.828 27.9434 552.616C27.8362 552.404 27.7802 552.17 27.7797 551.932V531.266C27.7803 530.865 27.9395 530.481 28.2225 530.198C28.5055 529.915 28.8892 529.755 29.2897 529.754H33.3199C33.7204 529.755 34.1041 529.915 34.3871 530.198C34.6701 530.481 34.8293 530.865 34.8299 531.266V549.107L43.2498 555.228C43.4107 555.345 43.5468 555.493 43.6504 555.663C43.754 555.833 43.823 556.021 43.8535 556.218C43.8839 556.414 43.8752 556.615 43.8279 556.808C43.7805 557.002 43.6955 557.184 43.5776 557.344L41.2019 560.612C40.9636 560.935 40.6076 561.15 40.2114 561.211C39.8153 561.273 39.4109 561.175 39.0862 560.94L39.0884 560.931Z" fill="#0355D1"/>
<path d="M31.3037 407.665H31.3041C35.0114 407.665 38.6824 408.394 42.1075 409.813C45.5327 411.231 48.6448 413.311 51.2662 415.932C53.8876 418.553 55.967 421.666 57.3854 425.091C58.8039 428.516 59.5337 432.187 59.5331 435.894V435.894C59.5331 441.478 57.8775 446.936 54.7756 451.578C51.6737 456.22 47.2649 459.838 42.1066 461.975C36.9484 464.112 31.2724 464.671 25.7964 463.582C20.3204 462.492 15.2904 459.804 11.3424 455.856C7.39449 451.908 4.70589 446.878 3.61665 441.402C2.52741 435.926 3.08645 430.25 5.22307 425.092C7.35969 419.933 10.9779 415.524 15.6202 412.423C20.2626 409.321 25.7204 407.665 31.3037 407.665Z" fill="white" stroke="#0355D1" stroke-width="6"/>
<g clip-path="url(#clip0)">
<path d="M43.3242 416.665H18.8242C17.8577 416.665 17.0742 417.463 17.0742 418.446V419.634C17.0742 420.618 17.8577 421.415 18.8242 421.415C18.8242 428.166 22.5441 433.864 27.6356 435.665C22.5441 437.466 18.8242 443.164 18.8242 449.915C17.8577 449.915 17.0742 450.713 17.0742 451.696V452.884C17.0742 453.868 17.8577 454.665 18.8242 454.665H43.3242C44.2907 454.665 45.0742 453.868 45.0742 452.884V451.696C45.0742 450.713 44.2907 449.915 43.3242 449.915C43.3242 443.164 39.6043 437.466 34.5128 435.665C39.6043 433.864 43.3242 428.166 43.3242 421.415C44.2907 421.415 45.0742 420.618 45.0742 419.634V418.446C45.0742 417.463 44.2907 416.665 43.3242 416.665ZM37.8498 445.165H24.2988C25.5427 441.692 28.0975 439.228 31.0742 439.228C34.0507 439.228 36.6058 441.691 37.8498 445.165ZM37.8512 426.165H24.2987C23.7817 424.721 23.4909 423.103 23.4909 421.415H38.6576C38.6576 423.108 38.3668 424.724 37.8512 426.165V426.165Z" fill="#0355D1"/>
</g>
<path d="M31.3037 294.665H31.3041C35.0114 294.665 38.6824 295.394 42.1075 296.813C45.5327 298.231 48.6448 300.311 51.2662 302.932C53.8876 305.553 55.967 308.666 57.3854 312.091C58.8039 315.516 59.5337 319.187 59.5331 322.894V322.894C59.5331 328.478 57.8775 333.936 54.7756 338.578C51.6737 343.22 47.2649 346.838 42.1066 348.975C36.9484 351.112 31.2724 351.671 25.7964 350.582C20.3204 349.492 15.2904 346.804 11.3424 342.856C7.39449 338.908 4.70589 333.878 3.61665 328.402C2.52741 322.926 3.08645 317.25 5.22307 312.092C7.35969 306.933 10.9779 302.524 15.6202 299.423C20.2626 296.321 25.7204 294.665 31.3037 294.665Z" fill="white" stroke="#27C100" stroke-width="6"/>
<path d="M25.2709 336.06L13.8631 325.012C13.6997 324.854 13.5701 324.666 13.4816 324.46C13.3932 324.253 13.3477 324.032 13.3477 323.808C13.3477 323.585 13.3932 323.363 13.4816 323.157C13.5701 322.95 13.6997 322.762 13.8631 322.604L16.3398 320.203C16.5029 320.045 16.6966 319.919 16.9099 319.833C17.1231 319.748 17.3517 319.704 17.5826 319.704C17.8135 319.704 18.0421 319.748 18.2554 319.833C18.4686 319.919 18.6624 320.045 18.8255 320.203L26.5168 327.652L42.9891 311.684C43.1522 311.526 43.3459 311.4 43.5592 311.314C43.7725 311.229 44.0011 311.185 44.2319 311.185C44.4628 311.185 44.6914 311.229 44.9047 311.314C45.1179 311.4 45.3117 311.526 45.4748 311.684L47.9575 314.091C48.1209 314.249 48.2505 314.437 48.3389 314.643C48.4274 314.85 48.4729 315.071 48.4729 315.295C48.4729 315.519 48.4274 315.74 48.3389 315.946C48.2505 316.153 48.1209 316.341 47.9575 316.499L27.7476 336.06C27.5845 336.219 27.3908 336.344 27.1775 336.43C26.9642 336.515 26.7356 336.56 26.5048 336.56C26.2739 336.56 26.0453 336.515 25.832 336.43C25.6187 336.344 25.425 336.219 25.2619 336.06H25.2709Z" fill="#27C100"/>
<path d="M31.3037 158.665H31.3041C35.0114 158.665 38.6824 159.394 42.1075 160.813C45.5327 162.231 48.6448 164.311 51.2662 166.932C53.8876 169.553 55.967 172.666 57.3854 176.091C58.8039 179.516 59.5337 183.187 59.5331 186.894V186.894C59.5331 192.478 57.8775 197.936 54.7756 202.578C51.6737 207.22 47.2649 210.838 42.1066 212.975C36.9484 215.112 31.2724 215.671 25.7964 214.582C20.3204 213.492 15.2904 210.804 11.3424 206.856C7.39449 202.908 4.70589 197.878 3.61665 192.402C2.52741 186.926 3.08645 181.25 5.22307 176.092C7.35969 170.933 10.9779 166.524 15.6202 163.423C20.2626 160.321 25.7204 158.665 31.3037 158.665Z" fill="white" stroke="#27C100" stroke-width="6"/>
<path d="M25.2709 200.06L13.8631 189.012C13.6997 188.854 13.5701 188.666 13.4816 188.46C13.3932 188.253 13.3477 188.032 13.3477 187.808C13.3477 187.585 13.3932 187.363 13.4816 187.157C13.5701 186.95 13.6997 186.762 13.8631 186.604L16.3398 184.203C16.5029 184.045 16.6966 183.919 16.9099 183.833C17.1231 183.748 17.3517 183.704 17.5826 183.704C17.8135 183.704 18.0421 183.748 18.2554 183.833C18.4686 183.919 18.6624 184.045 18.8255 184.203L26.5168 191.652L42.9891 175.684C43.1522 175.526 43.3459 175.4 43.5592 175.314C43.7725 175.229 44.0011 175.185 44.2319 175.185C44.4628 175.185 44.6914 175.229 44.9047 175.314C45.1179 175.4 45.3117 175.526 45.4748 175.684L47.9575 178.091C48.1209 178.249 48.2505 178.437 48.3389 178.643C48.4274 178.85 48.4729 179.071 48.4729 179.295C48.4729 179.519 48.4274 179.74 48.3389 179.946C48.2505 180.153 48.1209 180.341 47.9575 180.499L27.7476 200.06C27.5845 200.219 27.3908 200.344 27.1775 200.43C26.9642 200.515 26.7356 200.56 26.5048 200.56C26.2739 200.56 26.0453 200.515 25.832 200.43C25.6187 200.344 25.425 200.219 25.2619 200.06H25.2709Z" fill="#27C100"/>
<path d="M31.3059 19.665C25.1292 19.6646 19.0911 21.4958 13.9552 24.9271C8.81922 28.3583 4.81611 33.2355 2.45208 38.9419C0.0880511 44.6483 -0.530717 50.9276 0.674023 56.9857C1.87876 63.0437 4.8529 68.6085 9.22033 72.9762C13.5878 77.344 19.1523 80.3185 25.2103 81.5237C31.2683 82.7289 37.5476 82.1106 43.2541 79.7469C48.9607 77.3833 53.8382 73.3806 57.2698 68.2449C60.7015 63.1092 62.5331 57.0712 62.5331 50.8945C62.534 46.7933 61.7269 42.7321 60.158 38.943C58.589 35.1538 56.2889 31.7108 53.389 28.8107C50.4891 25.9107 47.0464 23.6103 43.2573 22.0411C39.4682 20.4718 35.4071 19.6644 31.3059 19.665V19.665ZM31.3059 76.0774C26.3246 76.0779 21.455 74.6011 17.3129 71.8339C13.1709 69.0667 9.94252 65.1333 8.03604 60.5312C6.12955 55.9291 5.63061 50.8651 6.60231 45.9794C7.57402 41.0937 9.97272 36.606 13.4951 33.0836C17.0174 29.5613 21.5052 27.1626 26.3908 26.1909C31.2765 25.2192 36.3406 25.7181 40.9427 27.6246C45.5448 29.5311 49.4781 32.7595 52.2453 36.9015C55.0125 41.0435 56.4893 45.9131 56.4889 50.8945C56.4895 54.2017 55.8385 57.4767 54.5731 60.5323C53.3078 63.5879 51.4528 66.3643 49.1143 68.7028C46.7757 71.0414 43.9993 72.8963 40.9437 74.1617C37.8881 75.427 34.6132 76.078 31.3059 76.0774V76.0774ZM39.0884 62.931L28.3968 55.153C28.2058 55.0119 28.0505 54.828 27.9434 54.616C27.8362 54.404 27.7802 54.1699 27.7797 53.9324V33.2658C27.7803 32.8653 27.9395 32.4813 28.2225 32.1979C28.5055 31.9145 28.8892 31.7548 29.2897 31.7536H33.3199C33.7204 31.7548 34.1041 31.9145 34.3871 32.1979C34.6701 32.4813 34.8293 32.8653 34.8299 33.2658V51.107L43.2498 57.2281C43.4107 57.3451 43.5468 57.4928 43.6504 57.6627C43.754 57.8325 43.823 58.0212 43.8535 58.2178C43.8839 58.4144 43.8752 58.6151 43.8279 58.8083C43.7805 59.0016 43.6955 59.1835 43.5776 59.3438L41.2019 62.6123C40.9636 62.9347 40.6076 63.15 40.2114 63.2114C39.8153 63.2728 39.4109 63.1753 39.0862 62.9401L39.0884 62.931Z" fill="#0355D1"/>
<path d="M31.3037 22.665H31.3041C35.0114 22.6645 38.6824 23.3943 42.1075 24.8128C45.5327 26.2312 48.6448 28.3105 51.2662 30.932C53.8876 33.5534 55.967 36.6655 57.3854 40.0907C58.8039 43.5158 59.5337 47.1868 59.5331 50.8941V50.8945C59.5331 56.4778 57.8775 61.9356 54.7756 66.5779C51.6737 71.2203 47.2649 74.8385 42.1066 76.9751C36.9484 79.1117 31.2724 79.6708 25.7964 78.5815C20.3204 77.4923 15.2904 74.8037 11.3424 70.8557C7.39449 66.9078 4.70589 61.8778 3.61665 56.4018C2.52741 50.9258 3.08645 45.2498 5.22307 40.0916C7.35969 34.9333 10.9779 30.5245 15.6202 27.4226C20.2626 24.3207 25.7204 22.665 31.3037 22.665Z" fill="white" stroke="#27C100" stroke-width="6"/>
<path d="M25.2709 64.0406L13.8631 52.992C13.6997 52.8341 13.5701 52.6464 13.4816 52.4399C13.3932 52.2333 13.3477 52.0119 13.3477 51.7883C13.3477 51.5647 13.3932 51.3433 13.4816 51.1368C13.5701 50.9302 13.6997 50.7426 13.8631 50.5846L16.3398 48.183C16.5029 48.0248 16.6966 47.8992 16.9099 47.8136C17.1231 47.7279 17.3517 47.6838 17.5826 47.6838C17.8135 47.6838 18.0421 47.7279 18.2554 47.8136C18.4686 47.8992 18.6624 48.0248 18.8255 48.183L26.5168 55.6321L42.9891 39.664C43.1522 39.5057 43.3459 39.3802 43.5592 39.2945C43.7725 39.2089 44.0011 39.1648 44.2319 39.1648C44.4628 39.1648 44.6914 39.2089 44.9047 39.2945C45.1179 39.3802 45.3117 39.5057 45.4748 39.664L47.9575 42.0714C48.1209 42.2294 48.2505 42.417 48.3389 42.6236C48.4274 42.8301 48.4729 43.0515 48.4729 43.2751C48.4729 43.4987 48.4274 43.7201 48.3389 43.9267C48.2505 44.1332 48.1209 44.3209 47.9575 44.4788L27.7476 64.0406C27.5845 64.1989 27.3908 64.3244 27.1775 64.4101C26.9642 64.4957 26.7356 64.5398 26.5048 64.5398C26.2739 64.5398 26.0453 64.4957 25.832 64.4101C25.6187 64.3244 25.425 64.1989 25.2619 64.0406H25.2709Z" fill="#27C100"/>
<defs>
<clipPath id="clip0">
<rect x="17.0742" y="416.665" width="28" height="38" fill="white"/>
</clipPath>
</defs>
</svg>
